<?xml version="1.0" standalone="no"?>
<!DOCTYPE svg PUBLIC "-//W3C//DTD SVG 1.1//EN" "http://www.w3.org/Graphics/SVG/1.1/DTD/svg11.dtd" >
<svg xmlns="http://www.w3.org/2000/svg" xmlns:xlink="http://www.w3.org/1999/xlink" version="1.1">
<metadata>
Created by FontForge 20201107 at Mon Mar 31 16:46:59 2025
 By 
Copyright (c) 2011 by James Puckett. All rights reserved.
</metadata>
<defs>
<font id="LorimerNo2TrialCondensedMedium" horiz-adv-x="1024" >
  <font-face 
    font-family="Lorimer No 2 Trial Condensed"
    font-weight="500"
    font-stretch="condensed"
    units-per-em="2048"
    panose-1="1 0 0 0 0 0 0 0 0 0"
    ascent="1638"
    descent="-410"
    x-height="930"
    cap-height="1434"
    bbox="-74 -346 1368 1827"
    underline-thickness="102"
    underline-position="-204"
    unicode-range="U+0020-2212"
  />
<missing-glyph 
d="M150 0v1434h724v-1434h-724zM207 145l272 572l-272 571v-1143zM227 57h568l-285 592zM510 784l285 592h-568zM817 145v1143l-274 -571z" />
    <glyph glyph-name=".notdef" 
d="M150 0v1434h724v-1434h-724zM207 145l272 572l-272 571v-1143zM227 57h568l-285 592zM510 784l285 592h-568zM817 145v1143l-274 -571z" />
    <glyph glyph-name=".null" horiz-adv-x="0" 
 />
    <glyph glyph-name="nonmarkingreturn" horiz-adv-x="682" 
 />
    <glyph glyph-name="space" unicode=" " horiz-adv-x="333" 
 />
    <glyph glyph-name="exclam" unicode="!" horiz-adv-x="397" 
d="M111 0v182h176v-182h-176zM152 365l-48 1069h189l-45 -1069h-96z" />
    <glyph glyph-name="quotedbl" unicode="&#x22;" horiz-adv-x="598" 
d="M121 780l-27 654h162l-25 -654h-110zM367 780l-27 654h164l-27 -654h-110z" />
    <glyph glyph-name="numbersign" unicode="#" horiz-adv-x="1157" 
d="M129 909l25 121h221l86 404h135l-86 -404h260l86 404h135l-86 -404h225l-26 -121h-223l-78 -362h225l-24 -123h-226l-90 -424h-135l90 424h-260l-90 -424h-135l90 424h-221l24 123h221l78 362h-221zM485 909l-77 -362h260l77 362h-260z" />
    <glyph glyph-name="dollar" unicode="$" horiz-adv-x="753" 
d="M446 1634v-215q64 -12 108 -45.5t68.5 -87.5t35 -118t12.5 -150l-154 -35q-1 66 -3.5 106.5t-10.5 82.5t-23 64t-41 36t-63 14q-139 0 -139 -168q0 -33 7 -64t14 -53.5t28.5 -53.5t32 -46t44 -49t45.5 -45t54 -51q52 -49 84.5 -86t66.5 -90t50 -114.5t16 -135.5
q0 -136 -58.5 -218.5t-173.5 -99.5v-213h-145v217q-106 24 -163.5 123.5t-61.5 294.5l153 33q0 -178 35 -247.5t123 -69.5q68 0 99.5 38t31.5 125q0 62 -14 112t-49.5 100t-67.5 84.5t-96 95.5q-106 100 -159.5 191t-53.5 218q0 129 57 207t166 98v215h145z" />
    <glyph glyph-name="percent" unicode="%" horiz-adv-x="1241" 
d="M276 696q-126 0 -177.5 83.5t-51.5 293.5t51.5 293.5t177.5 83.5q127 0 179.5 -83.5t52.5 -293.5t-52.5 -293.5t-179.5 -83.5zM276 807q63 0 85 53t22 213q0 161 -22 214.5t-85 53.5q-42 0 -63.5 -21.5t-31 -78.5t-9.5 -168q0 -110 9.5 -166.5t31 -78t63.5 -21.5z
M733 360q0 210 53 293.5t179 83.5t177.5 -83.5t51.5 -293.5t-51.5 -293t-177.5 -83t-179 83t-53 293zM860 360q0 -111 9.5 -167.5t31 -78.5t64.5 -22q42 0 63.5 21.5t31 78.5t9.5 168q0 110 -9.5 166.5t-31 78.5t-63.5 22q-43 0 -64.5 -22t-31 -78.5t-9.5 -166.5zM193 0
l739 1434h112l-739 -1434h-112z" />
    <glyph glyph-name="ampersand" unicode="&#x26;" horiz-adv-x="860" 
d="M338 -25q-142 0 -214.5 91.5t-72.5 289.5q0 175 60.5 293t179.5 197q-88 191 -88 330q0 141 62.5 209.5t174.5 68.5q222 0 222 -287q0 -123 -46.5 -208.5t-150.5 -147.5l137 -297q27 74 71 141.5t93 92.5l86 -125q-97 -69 -172 -275l162 -348h-166l-78 170
q-40 -97 -99 -146t-161 -49zM352 1178q0 -123 68 -269q66 39 91.5 100t25.5 150q0 87 -21 125.5t-70 38.5q-47 0 -70.5 -34t-23.5 -111zM354 117q61 0 98 51t72 164l-184 403q-131 -110 -131 -362q0 -125 32.5 -190.5t112.5 -65.5z" />
    <glyph glyph-name="quotesingle" unicode="'" horiz-adv-x="356" 
d="M121 780l-27 654h166l-24 -654h-115z" />
    <glyph glyph-name="parenleft" unicode="(" horiz-adv-x="485" 
d="M449 -293l-115 -24q-240 419 -240 890q0 281 69.5 507.5t176.5 377.5h123q-107 -196 -166 -409.5t-59 -481.5q0 -205 46 -411t165 -449z" />
    <glyph glyph-name="parenright" unicode=")" horiz-adv-x="485" 
d="M37 -293q119 243 165 449t46 411q0 268 -59 481.5t-166 409.5h122q107 -151 176.5 -377.5t69.5 -507.5q0 -473 -239 -890z" />
    <glyph glyph-name="asterisk" unicode="*" horiz-adv-x="733" 
d="M301 1444h131l-14 -266l250 96l41 -127l-260 -68l167 -209l-106 -75l-143 223l-146 -223l-104 77l168 207l-258 68l41 127l247 -96z" />
    <glyph glyph-name="plus" unicode="+" horiz-adv-x="808" 
d="M334 416v241h-230v136h230v241h141v-241h230v-136h-230v-241h-141z" />
    <glyph glyph-name="comma" unicode="," horiz-adv-x="374" 
d="M98 0v182h176v-153l-106 -267l-64 21l68 217h-74z" />
    <glyph glyph-name="hyphen" unicode="-" horiz-adv-x="577" 
d="M98 578v137h379v-137h-379z" />
    <glyph glyph-name="period" unicode="." horiz-adv-x="374" 
d="M98 0v182h176v-182h-176z" />
    <glyph glyph-name="slash" unicode="/" horiz-adv-x="749" 
d="M2 -154l606 1639h131l-608 -1639h-129z" />
    <glyph glyph-name="zero" unicode="0" horiz-adv-x="796" 
d="M135 133q-49 122 -49 584q0 461 49 583q64 158 262 158q90 0 161 -38t104 -120q49 -122 49 -583q0 -462 -49 -584q-33 -82 -104 -120t-161 -38q-198 0 -262 158zM266 250q10 -74 41 -103.5t90 -29.5q61 0 92 29.5t41 103.5q17 136 17 467t-17 467q-10 74 -41 103.5
t-92 29.5q-59 0 -90 -29.5t-41 -103.5q-18 -129 -18 -467t18 -467z" />
    <glyph glyph-name="one" unicode="1" horiz-adv-x="450" 
d="M166 0v1268l-119 -25l-33 123l193 76h119v-1442h-160z" />
    <glyph glyph-name="two" unicode="2" horiz-adv-x="706" 
d="M27 0v111q238 342 349 569.5t111 429.5q0 108 -34 157.5t-105 49.5q-86 0 -122.5 -65t-39.5 -234l-155 33q8 208 84.5 307.5t234.5 99.5q150 0 223.5 -91t73.5 -253q0 -207 -108.5 -439.5t-327.5 -527.5h446v-147h-630z" />
    <glyph glyph-name="three" unicode="3" horiz-adv-x="722" 
d="M119 84q-56 84 -66 319l156 33q12 -207 37 -258q27 -59 110 -59q54 0 85 27t42 102q13 89 13 198q0 111 -4 181q-7 96 -59.5 127.5t-196.5 33.5l-27 119l268 381h-422v146h602v-117l-270 -397q52 -2 93 -16t69.5 -36t48.5 -56.5t32 -70t18.5 -85.5t8.5 -94.5t2 -104.5
q0 -213 -47 -324q-62 -158 -256 -158q-166 0 -237 109z" />
    <glyph glyph-name="four" unicode="4" horiz-adv-x="768" 
d="M51 465l-28 133l407 836h182v-834h121v-135h-121v-465h-153v465h-408zM449 1180l-277 -580h289v604l-2 2z" />
    <glyph glyph-name="five" unicode="5" horiz-adv-x="735" 
d="M125 84q-53 80 -64 319l156 33q6 -121 13.5 -174t21.5 -84q17 -33 43 -46t67 -13q67 0 97 35t39 96q12 82 12 211q0 103 -6 174q-7 75 -36.5 115.5t-100.5 40.5q-97 0 -131 -89l-154 33l45 699h528l-28 -144h-361l-28 -428q61 70 172 70q89 0 145 -43.5t86.5 -150
t30.5 -283.5q0 -222 -49 -326q-36 -77 -104 -115.5t-157 -38.5q-73 0 -136.5 26.5t-100.5 82.5z" />
    <glyph glyph-name="six" unicode="6" horiz-adv-x="780" 
d="M135 133q-28 68 -38.5 202t-10.5 386q0 239 10 374.5t39 204.5q64 158 271 158q195 0 256 -158q22 -57 32 -219l-153 -32q-2 69 -11 137q-10 74 -40 102.5t-89 28.5q-57 0 -90.5 -27.5t-44.5 -103.5q-17 -116 -20 -369q84 76 221 76q138 0 191 -93.5t53 -318.5
q0 -230 -49 -348q-67 -158 -261 -158q-204 0 -266 158zM410 754q-85 0 -164 -56q0 -313 20 -450q11 -78 41 -103.5t90 -25.5q61 0 92.5 26t45.5 103q16 94 16 229q0 63 -3 103.5t-11.5 76.5t-24 55.5t-40.5 30.5t-62 11z" />
    <glyph glyph-name="seven" unicode="7" horiz-adv-x="612" 
d="M145 0q16 341 100.5 684t200.5 604h-436v146h588v-117q-81 -207 -132.5 -376.5t-93.5 -410t-61 -530.5h-166z" />
    <glyph glyph-name="eight" unicode="8" horiz-adv-x="745" 
d="M53 342q0 265 209 414q-58 53 -94 97.5t-64 116.5t-28 156q0 151 82 241.5t231 90.5q144 0 220.5 -88t76.5 -240q0 -121 -50 -208.5t-147 -161.5q38 -32 65.5 -59.5t58.5 -67.5t50 -81t31.5 -97t12.5 -119q0 -169 -83.5 -265t-238.5 -96q-156 0 -244 97t-88 270zM547 322
q0 61 -15 113t-45.5 96t-60.5 75.5t-76 71.5q-75 -64 -109 -139t-34 -181q0 -239 176 -239q164 0 164 203zM229 1133q0 -95 43.5 -162t126.5 -137q75 66 107.5 130t32.5 156q0 201 -152 201q-78 0 -118 -50.5t-40 -137.5z" />
    <glyph glyph-name="nine" unicode="9" horiz-adv-x="780" 
d="M121 133q-16 42 -22 83t-13 136l156 35q3 -84 10 -137q10 -76 39.5 -103.5t87.5 -27.5q57 0 90.5 27.5t44.5 103.5q14 94 18 364q-81 -73 -219 -73q-137 0 -190 93.5t-53 317.5q0 237 49 348q67 158 260 158q204 0 266 -158q28 -68 38.5 -201.5t10.5 -379.5
q0 -238 -10.5 -377.5t-38.5 -208.5q-63 -158 -270 -158q-193 0 -254 158zM371 680q89 0 164 53q0 309 -21 453q-10 78 -40 104.5t-91 26.5t-92 -26.5t-45 -104.5q-17 -96 -17 -230q0 -153 27.5 -214.5t114.5 -61.5z" />
    <glyph glyph-name="colon" unicode=":" horiz-adv-x="378" 
d="M100 0v182h176v-182h-176zM100 602v182h176v-182h-176z" />
    <glyph glyph-name="semicolon" unicode=";" horiz-adv-x="378" 
d="M100 0v182h176v-153l-106 -267l-64 21l68 217h-74zM100 602v182h176v-182h-176z" />
    <glyph glyph-name="less" unicode="&#x3c;" horiz-adv-x="845" 
d="M78 653v146l661 340v-164l-506 -250l506 -250v-164z" />
    <glyph glyph-name="equal" unicode="=" horiz-adv-x="808" 
d="M104 811v135h601v-135h-601zM104 504v135h601v-135h-601z" />
    <glyph glyph-name="greater" unicode="&#x3e;" horiz-adv-x="845" 
d="M768 799v-146l-662 -342v164l506 250l-506 250v164z" />
    <glyph glyph-name="question" unicode="?" horiz-adv-x="714" 
d="M270 387q0 71 9.5 129.5t34 117t45 95.5t63.5 109q55 91 73.5 145.5t18.5 140.5q0 94 -32 142.5t-113 48.5q-84 0 -125.5 -51.5t-48.5 -184.5l-152 33q34 346 332 346q141 0 218 -86.5t77 -247.5q0 -94 -27 -172t-65 -134.5t-76.5 -114t-65.5 -138t-28 -178.5h-138z
M250 0v182h176v-182h-176z" />
    <glyph glyph-name="at" unicode="@" horiz-adv-x="1234" 
d="M319 289q0 87 33 246q23 110 49 187.5t50.5 121.5t56 69t58 32t63.5 7q124 0 143 -82l29 70h127l-105 -481q-12 -62 -12 -131q0 -144 111 -144q76 0 113.5 96t37.5 326q0 127 -13 228.5t-43.5 189t-79.5 146t-123 91.5t-171 33q-255 0 -369 -183.5t-114 -582.5
q0 -162 21.5 -283.5t59 -200t95.5 -127t124.5 -68t151.5 -19.5q188 0 303 66l39 -80q-130 -74 -340 -74q-82 0 -149.5 15.5t-130.5 50.5t-110.5 95.5t-83 146t-54 207t-18.5 273.5q0 452 139 651t438 199q143 0 245.5 -54t161.5 -157t86 -237.5t27 -310.5q0 -275 -61 -396
t-186 -121q-78 0 -132 42t-67 135q-33 -89 -85.5 -127.5t-135.5 -38.5q-179 0 -179 174zM459 313q0 -41 17.5 -59t55.5 -18q53 0 82 35t56 126q20 71 32 138q31 158 31 204q0 50 -19.5 71t-62.5 21q-51 0 -73.5 -30t-47.5 -117q-18 -64 -34 -147q-37 -178 -37 -224z" />
    <glyph glyph-name="A" unicode="A" horiz-adv-x="710" 
d="M10 0l254 1434h180l256 -1434h-157l-43 272h-291l-43 -272h-156zM348 1126l-119 -727h250l-117 727l-6 39h-4z" />
    <glyph glyph-name="B" unicode="B" horiz-adv-x="794" 
d="M102 0v1434h236q209 0 286.5 -79t77.5 -278q0 -120 -29 -193.5t-102 -107.5v-4q88 -22 121 -116t33 -253q0 -221 -71 -312t-253 -91h-299zM258 143h125q73 0 109.5 19.5t54.5 77.5t18 174q0 69 -4.5 110.5t-17 75.5t-37.5 50.5t-62.5 25t-95.5 8.5h-90v-541zM258 819h74
q131 0 174 48.5t43 191.5q0 141 -42 186t-171 45h-78v-471z" />
    <glyph glyph-name="C" unicode="C" horiz-adv-x="763" 
d="M133 133q-49 124 -49 584q0 459 49 583q32 82 102.5 120t161.5 38q165 0 240 -108q30 -44 42.5 -108.5t20.5 -190.5l-157 -35q-4 73 -6.5 107t-9.5 72.5t-19 61.5q-28 60 -111 60q-59 0 -90 -29.5t-43 -105.5q-16 -112 -16 -465t16 -465q12 -76 43 -105.5t90 -29.5
q82 0 113 63q14 29 20.5 76.5t12.5 171.5l159 -33q-14 -234 -65 -311q-73 -109 -240 -109q-91 0 -161.5 38t-102.5 120z" />
    <glyph glyph-name="D" unicode="D" horiz-adv-x="804" 
d="M102 0v1434h275q119 0 192 -36t107 -126q27 -70 36 -198.5t9 -356.5q0 -247 -8.5 -365.5t-34.5 -191.5q-34 -90 -104 -125t-197 -35h-275zM262 143h98q78 0 115 19.5t55 81.5q27 103 27 473q0 373 -27 473q-16 62 -53.5 81t-116.5 19h-98v-1147z" />
    <glyph glyph-name="E" unicode="E" horiz-adv-x="692" 
d="M102 0v1434h549v-144h-393v-428h291v-145h-291v-570h393v-147h-549z" />
    <glyph glyph-name="F" unicode="F" horiz-adv-x="684" 
d="M102 0v1434h539v-144h-381v-428h297v-147h-297v-715h-158z" />
    <glyph glyph-name="G" unicode="G" horiz-adv-x="788" 
d="M133 133q-49 121 -49 584q0 465 49 583q33 83 103.5 120.5t160.5 37.5q165 0 240 -108q31 -45 45 -114.5t20 -184.5l-159 -35q-3 102 -9.5 154.5t-23.5 86.5q-32 60 -113 60q-60 0 -90.5 -29.5t-42.5 -105.5q-18 -126 -18 -465t18 -465q12 -76 43.5 -105.5t89.5 -29.5
q56 0 86.5 25t42.5 79q19 78 19 418h-142v139h299v-778h-88l-24 94q-49 -119 -207 -119q-87 0 -153 39t-97 119z" />
    <glyph glyph-name="H" unicode="H" horiz-adv-x="811" 
d="M102 0v1434h160v-570h289v570h158v-1434h-158v715h-289v-715h-160z" />
    <glyph glyph-name="I" unicode="I" horiz-adv-x="364" 
d="M102 0v1434h160v-1434h-160z" />
    <glyph glyph-name="J" unicode="J" horiz-adv-x="468" 
d="M14 2v150q90 -9 97 -9q63 0 81.5 24t18.5 103v1164h158v-1201q0 -125 -52.5 -181t-185.5 -56q-67 0 -117 6z" />
    <glyph glyph-name="K" unicode="K" horiz-adv-x="724" 
d="M102 0v1434h158v-674l272 674h170l-208 -500l217 -934h-162l-162 727l-127 -317v-410h-158z" />
    <glyph glyph-name="L" unicode="L" horiz-adv-x="632" 
d="M102 0v1434h160v-1284h356v-150h-516z" />
    <glyph glyph-name="M" unicode="M" horiz-adv-x="1056" 
d="M106 0v1434h263l157 -1096l158 1096h266v-1434h-155v1286h-4l-199 -1290h-131l-197 1290h-4v-1286h-154z" />
    <glyph glyph-name="N" unicode="N" horiz-adv-x="829" 
d="M102 0v1434h160l311 -1008v1008h154v-1434h-160l-309 1008v-1008h-156z" />
    <glyph glyph-name="O" unicode="O" horiz-adv-x="794" 
d="M133 133q-49 124 -49 584q0 459 49 583q32 82 102.5 120t161.5 38q203 0 265 -158q27 -69 38 -204.5t11 -378.5q0 -460 -49 -584q-32 -82 -102.5 -120t-162.5 -38q-91 0 -161.5 38t-102.5 120zM264 252q12 -76 43 -105.5t90 -29.5t90 29.5t43 105.5q19 133 19 465
t-19 465q-12 76 -43 105.5t-90 29.5t-90 -29.5t-43 -105.5q-16 -112 -16 -465t16 -465z" />
    <glyph glyph-name="P" unicode="P" horiz-adv-x="761" 
d="M102 0v1434h256q200 0 282.5 -84.5t82.5 -290.5q0 -103 -17 -173.5t-58.5 -121.5t-114 -74.5t-181.5 -23.5h-92v-666h-158zM260 805h90q129 0 171 49t42 197q0 145 -42 192t-171 47h-90v-485z" />
    <glyph glyph-name="Q" unicode="Q" horiz-adv-x="794" 
d="M133 133q-49 124 -49 584q0 459 49 583q32 82 102.5 120t161.5 38q203 0 265 -158q27 -69 38 -204.5t11 -378.5q0 -460 -49 -584q-16 -36 -33 -59q45 -31 131 -31l-27 -149q-154 9 -229 96q-52 -15 -107 -15q-91 0 -161.5 38t-102.5 120zM264 252q12 -76 43 -105.5
t90 -29.5t90 29.5t43 105.5q19 133 19 465t-19 465q-12 76 -43 105.5t-90 29.5t-90 -29.5t-43 -105.5q-16 -112 -16 -465t16 -465z" />
    <glyph glyph-name="R" unicode="R" horiz-adv-x="804" 
d="M102 0v1434h252q201 0 285 -81.5t84 -283.5q0 -126 -29 -198.5t-100 -108.5v-2q37 -14 61 -37.5t37 -60t18 -77.5t5 -98q0 -311 10 -477v-10h-160q-6 180 -6 459q0 120 -35.5 164.5t-136.5 44.5h-127v-668h-158zM260 805h90q129 0 171 49t42 197q0 145 -41.5 192
t-171.5 47h-90v-485z" />
    <glyph glyph-name="S" unicode="S" horiz-adv-x="708" 
d="M358 -25q-73 0 -126 19.5t-94 65.5t-63 129t-26 204l154 31q6 -130 22 -194t46 -87.5t89 -23.5q69 0 101.5 38.5t32.5 129.5q0 65 -12.5 117t-43.5 101t-59.5 82.5t-83.5 90.5q-122 125 -180 226.5t-58 234.5q0 156 79.5 237.5t221.5 81.5q67 0 118 -19.5t84 -53.5
t53.5 -86.5t29.5 -112t10 -135.5l-155 -29q-1 64 -3.5 104.5t-11 80.5t-23.5 61.5t-41.5 35t-64.5 13.5q-141 0 -141 -170q0 -34 6.5 -67t13.5 -57t26 -55.5t29 -47t39.5 -49t39.5 -44t45 -47.5q44 -45 62.5 -65.5t54 -62.5t52 -73.5t36.5 -77t28 -95.5t8 -107
q0 -152 -70.5 -238t-224.5 -86z" />
    <glyph glyph-name="T" unicode="T" horiz-adv-x="677" 
d="M260 0v1286h-227v148h612v-148h-227v-1286h-158z" />
    <glyph glyph-name="U" unicode="U" horiz-adv-x="804" 
d="M266 262q10 -83 42 -112t93 -29t94.5 29.5t43.5 111.5q8 63 8 242v930h158v-1000q0 -124 -13.5 -206t-47.5 -141t-93.5 -85.5t-149.5 -26.5t-148.5 26.5t-93 85t-48 141t-13.5 206.5v1000h160v-930q0 -179 8 -242z" />
    <glyph glyph-name="V" unicode="V" horiz-adv-x="729" 
d="M285 -4l-260 1438h161l170 -1043l6 -55h3l6 55l172 1043h159l-260 -1438h-157z" />
    <glyph glyph-name="W" unicode="W" horiz-adv-x="1159" 
d="M240 0l-201 1434h160l133 -1026l2 -39h4l2 39l168 1026h143l168 -1026l4 -39h2l2 39l134 1026h157l-200 -1434h-164l-168 1022l-4 37h-4l-5 -37l-167 -1022h-166z" />
    <glyph glyph-name="X" unicode="X" horiz-adv-x="720" 
d="M8 0l256 754l-235 680h164l167 -516l168 516h164l-237 -680l258 -754h-170l-183 584l-182 -584h-170z" />
    <glyph glyph-name="Y" unicode="Y" horiz-adv-x="716" 
d="M281 0v664l-265 770h168l156 -519l18 -69l21 69l153 519h168l-262 -770v-664h-157z" />
    <glyph glyph-name="Z" unicode="Z" horiz-adv-x="667" 
d="M41 0v123l408 1163h-402v148h571v-123l-407 -1164h416v-147h-586z" />
    <glyph glyph-name="bracketleft" unicode="[" horiz-adv-x="514" 
d="M297 -223h195v-123h-338v1804h338v-123h-195v-1558z" />
    <glyph glyph-name="backslash" unicode="\" horiz-adv-x="749" 
d="M618 -154l-606 1639h129l609 -1639h-132z" />
    <glyph glyph-name="bracketright" unicode="]" horiz-adv-x="514" 
d="M23 -223h194v1558h-194v123h337v-1804h-337v123z" />
    <glyph glyph-name="asciicircum" unicode="^" horiz-adv-x="722" 
d="M39 950l254 488h137l254 -488h-147l-177 297l-172 -297h-149z" />
    <glyph glyph-name="underscore" unicode="_" 
d="M0 -25h1024v-129h-1024v129z" />
    <glyph glyph-name="grave" unicode="`" horiz-adv-x="1021" 
d="M449 1044l-146 279h178l94 -279h-126z" />
    <glyph glyph-name="a" unicode="a" horiz-adv-x="671" 
d="M37 233q0 67 20.5 121t65.5 99t126.5 70.5t194.5 27.5v80q0 99 -22 141.5t-86 42.5q-62 0 -95 -38t-36 -128l-137 29q7 73 31 126t61.5 83t81.5 43.5t98 13.5q250 0 250 -311v-463q0 -36 13 -47.5t46 -11.5v-109q-30 -6 -53 -6q-51 0 -87.5 21.5t-47.5 66.5
q-22 -45 -71 -70.5t-118 -25.5q-104 0 -169.5 61.5t-65.5 183.5zM188 250q0 -139 121 -139q63 0 99 36.5t36 106.5v190q-77 -1 -130 -17.5t-79 -45t-36.5 -59.5t-10.5 -72z" />
    <glyph glyph-name="b" unicode="b" horiz-adv-x="700" 
d="M471 229q8 63 8 236q0 175 -8 235q-8 58 -33.5 86.5t-77.5 28.5q-83 0 -110 -82q-21 -64 -21 -268q0 -208 21 -270q26 -80 115 -80q51 0 74.5 27t31.5 87zM535 29q-56 -43 -138 -43q-124 0 -178 98l-16 -84h-117v1434h147v-578q47 88 160 88q89 0 142 -45
q55 -46 76.5 -139.5t21.5 -290.5q0 -212 -23 -305t-75 -135z" />
    <glyph glyph-name="c" unicode="c" horiz-adv-x="663" 
d="M166 39q-58 47 -80.5 139.5t-22.5 286.5q0 192 22 284.5t81 141.5q65 55 176 55q254 0 274 -293l-149 -30q-1 39 -3.5 63t-10 51.5t-20.5 42.5t-36 25t-55 10q-103 0 -117 -115q-8 -60 -8 -235q0 -174 8 -234t35.5 -88t81.5 -28q71 0 97 45.5t28 152.5l149 -30
q-17 -299 -274 -299q-110 0 -176 55z" />
    <glyph glyph-name="d" unicode="d" horiz-adv-x="700" 
d="M229 229q8 -60 32 -87t75 -27q89 0 115 80q20 59 20 270q0 207 -20 268q-27 82 -111 82q-52 0 -77.5 -28.5t-33.5 -86.5q-8 -60 -8 -235q0 -173 8 -236zM166 29q-52 42 -75 135t-23 305q0 197 21.5 290.5t76.5 139.5q53 45 141 45q113 0 160 -88v578h147v-1434h-116
l-17 84q-54 -98 -178 -98q-81 0 -137 43z" />
    <glyph glyph-name="e" unicode="e" horiz-adv-x="681" 
d="M166 39q-58 47 -80.5 136.5t-22.5 291.5q0 190 22 282.5t81 141.5q65 55 176 55q112 0 178 -55q58 -47 81.5 -143.5t23.5 -307.5h-410q0 -139 10 -211q8 -60 35.5 -88t81.5 -28q70 0 98.5 46t28.5 154l147 -30q-8 -142 -71.5 -220.5t-202.5 -78.5q-109 0 -176 55z
M225 702q-7 -60 -10 -143h256q-3 88 -10 143q-6 50 -31 83.5t-88 33.5q-52 0 -81 -28.5t-36 -88.5z" />
    <glyph glyph-name="f" unicode="f" horiz-adv-x="413" 
d="M25 801v129h98v254q0 131 54.5 196.5t180.5 65.5q20 0 48 -4v-133q-6 2 -25 2q-65 0 -88 -35.5t-23 -140.5v-205h131v-129h-131v-801h-147v801h-98z" />
    <glyph glyph-name="g" unicode="g" horiz-adv-x="688" 
d="M18 -121q0 70 37.5 116.5t102.5 67.5q-95 42 -95 138q0 85 84 123q-77 81 -77 268q0 103 17.5 174t66.5 117q66 63 170 63q119 0 184 -84q50 81 168 84v-153q-20 4 -43 4q-48 0 -80 -19q25 -79 25 -186q0 -96 -18 -163.5t-66 -113.5q-64 -61 -170 -61q-61 0 -113 25
q-25 -17 -25 -46q0 -20 9 -32.5t34 -22t51.5 -16t79.5 -16.5q30 -6 46 -9q146 -29 197.5 -81.5t51.5 -149.5q0 -135 -76 -190.5t-227 -55.5q-160 0 -247 55.5t-87 163.5zM162 -102q0 -61 42.5 -90t151.5 -29q95 0 126.5 25t31.5 85q0 63 -45.5 88t-210.5 56
q-96 -31 -96 -135zM434 592q0 133 -22.5 180t-87.5 47q-66 0 -88.5 -47t-22.5 -180q0 -123 23.5 -168t87.5 -45t87 44.5t23 168.5z" />
    <glyph glyph-name="h" unicode="h" horiz-adv-x="696" 
d="M86 0v1434h147v-582q50 94 173 94q107 0 158.5 -76.5t51.5 -261.5v-608h-149v604q0 124 -22.5 169.5t-79.5 45.5q-64 0 -98 -47t-34 -160v-612h-147z" />
    <glyph glyph-name="i" unicode="i" horiz-adv-x="321" 
d="M86 0v930h150v-930h-150zM74 1106v180h174v-180h-174z" />
    <glyph glyph-name="j" unicode="j" horiz-adv-x="325" 
d="M90 -23v953h148v-940q0 -153 -61 -214t-208 -63v137q12 -2 29 -2q53 0 72.5 28t19.5 101zM78 1106v180h172v-180h-172z" />
    <glyph glyph-name="k" unicode="k" horiz-adv-x="641" 
d="M467 0l-129 426l-107 -215v-211h-145v1434h145v-955l228 451h159l-182 -357l187 -573h-156z" />
    <glyph glyph-name="l" unicode="l" horiz-adv-x="319" 
d="M86 0v1434h147v-1434h-147z" />
    <glyph glyph-name="m" unicode="m" horiz-adv-x="1056" 
d="M86 0v930h125l16 -96q46 112 172 112q137 0 172 -125q56 125 195 125q107 0 158 -76.5t51 -263.5v-606h-146v604q0 123 -22.5 169t-77.5 46q-60 0 -92.5 -46.5t-32.5 -160.5v-612h-147v604q0 123 -23 169t-78 46q-60 0 -92.5 -46.5t-32.5 -160.5v-612h-145z" />
    <glyph glyph-name="n" unicode="n" horiz-adv-x="696" 
d="M86 0v930h125l16 -92q48 108 179 108q107 0 158.5 -76.5t51.5 -261.5v-608h-149v604q0 124 -22.5 169.5t-79.5 45.5q-64 0 -98 -47t-34 -160v-612h-147z" />
    <glyph glyph-name="o" unicode="o" horiz-adv-x="686" 
d="M166 39q-58 47 -80.5 139.5t-22.5 286.5q0 192 22 284.5t81 141.5q65 55 176 55q113 0 178 -55q59 -49 81 -141.5t22 -284.5q0 -194 -22.5 -286.5t-80.5 -139.5q-66 -55 -178 -55q-110 0 -176 55zM225 229q8 -59 35.5 -86.5t81.5 -27.5q55 0 83 27.5t36 86.5q8 63 8 236
q0 175 -8 235q-8 59 -36 87t-83 28q-54 0 -81.5 -28t-35.5 -87q-8 -60 -8 -235q0 -173 8 -236z" />
    <glyph glyph-name="p" unicode="p" horiz-adv-x="702" 
d="M252 195q29 -80 110 -80q52 0 77.5 27.5t33.5 86.5q8 63 8 236q0 175 -8 235q-8 58 -33.5 86.5t-77.5 28.5q-47 0 -72 -21t-38 -61q-21 -64 -21 -268q0 -124 4 -177.5t17 -92.5zM399 -14q-111 0 -166 73v-391h-147v1262h147v-78q47 92 162 92q86 0 142 -45
q55 -46 76.5 -139.5t21.5 -290.5q0 -213 -22.5 -305.5t-75.5 -134.5q-56 -43 -138 -43z" />
    <glyph glyph-name="q" unicode="q" horiz-adv-x="702" 
d="M229 229q8 -60 33 -87t76 -27q87 0 113 80q20 59 20 270q0 207 -20 268q-27 82 -111 82q-52 0 -77.5 -28.5t-33.5 -86.5q-8 -60 -8 -235q0 -173 8 -236zM166 29q-53 42 -75.5 134.5t-22.5 305.5q0 197 21.5 290.5t76.5 139.5q53 45 141 45q119 0 166 -100l14 86h129
v-1262h-147v391q-55 -73 -166 -73q-81 0 -137 43z" />
    <glyph glyph-name="r" unicode="r" horiz-adv-x="466" 
d="M86 0v930h125l20 -113q45 124 218 127v-162q-20 4 -54 4q-89 0 -125.5 -51.5t-36.5 -173.5v-561h-147z" />
    <glyph glyph-name="s" unicode="s" horiz-adv-x="618" 
d="M43 272l141 27q3 -102 34 -144t97 -42q57 0 85 25.5t28 84.5q0 29 -8 53.5t-19.5 40.5t-34.5 33.5t-41 28t-52 30t-56 33.5q-36 23 -60.5 42.5t-52 51t-41.5 74.5t-14 95q0 115 70.5 178t189.5 63q127 0 190 -75t68 -209l-137 -25q-3 97 -31.5 139.5t-93.5 42.5
q-112 0 -112 -110q0 -27 8.5 -49.5t20 -38t34.5 -33t40.5 -27.5t50.5 -28.5t52 -30.5q42 -26 69.5 -48t53.5 -54t38.5 -74.5t12.5 -96.5q0 -243 -254 -243q-126 0 -197.5 66t-78.5 220z" />
    <glyph glyph-name="t" unicode="t" horiz-adv-x="471" 
d="M10 801v129h107v215l149 33v-248h176v-129h-176v-506q0 -101 22 -136.5t81 -35.5q21 0 75 6v-129q-52 -10 -102 -10q-120 0 -173.5 65.5t-53.5 214.5q0 9 0.5 100t1 215.5t0.5 215.5h-107z" />
    <glyph glyph-name="u" unicode="u" horiz-adv-x="690" 
d="M285 -14q-103 0 -154 74.5t-51 256.5v613h149v-611q0 -121 21.5 -163.5t77.5 -42.5q65 0 97 45.5t32 158.5v613h147v-930h-121l-18 102q-46 -116 -180 -116z" />
    <glyph glyph-name="v" unicode="v" horiz-adv-x="610" 
d="M227 -6l-211 936h156l115 -600l16 -94h4l19 94l112 600h156l-209 -936h-158z" />
    <glyph glyph-name="w" unicode="w" horiz-adv-x="958" 
d="M203 0l-176 930h149l94 -561l17 -95h4l16 95l107 561h129l108 -561l17 -95h4l16 95l92 561h152l-176 -930h-146l-112 567l-19 92h-4l-16 -92l-111 -567h-145z" />
    <glyph glyph-name="x" unicode="x" horiz-adv-x="589" 
d="M10 0l201 481l-191 449h154l121 -316l121 316h153l-190 -449l201 -481h-164l-121 336l-121 -336h-164z" />
    <glyph glyph-name="y" unicode="y" horiz-adv-x="616" 
d="M51 -195q40 -4 55 -4q62 0 88.5 35t26.5 129q0 97 -35 252l-161 713h155l113 -600l18 -94h4l17 94l112 600h156l-207 -928q-16 -74 -28 -117.5t-30 -86t-38 -63.5t-52 -39t-71.5 -23.5t-97.5 -6.5z" />
    <glyph glyph-name="z" unicode="z" horiz-adv-x="591" 
d="M35 0v115l338 684h-332v131h498v-111l-336 -686h342v-133h-510z" />
    <glyph glyph-name="braceleft" unicode="{" horiz-adv-x="548" 
d="M412 -223h116v-123h-139q-109 0 -154 43t-45 151v500q0 82 -22.5 110.5t-99.5 28.5v138q76 0 99 29t23 108v502q0 108 45 151t154 43h139v-123h-116q-44 0 -61 -16.5t-17 -61.5v-534q0 -79 -23 -116t-82 -50q59 -15 82 -52.5t23 -113.5v-538q0 -46 17 -61t61 -15z" />
    <glyph glyph-name="bar" unicode="|" 
d="M446 -334v1870h132v-1870h-132z" />
    <glyph glyph-name="braceright" unicode="}" horiz-adv-x="548" 
d="M20 -223h117q44 0 61 15t17 61v538q0 77 22.5 114t81.5 52q-59 13 -81.5 50t-22.5 116v534q0 45 -17 61.5t-61 16.5h-117v123h140q109 0 153.5 -43t44.5 -151v-502q0 -79 23.5 -108t99.5 -29v-138q-77 0 -100 -29t-23 -110v-500q0 -108 -44.5 -151t-153.5 -43h-140v123z
" />
    <glyph glyph-name="asciitilde" unicode="~" horiz-adv-x="804" 
d="M135 616l-88 37q24 87 83 132.5t138 45.5q59 0 148.5 -35.5t132.5 -35.5t70.5 19t50.5 59l88 -39q-24 -86 -83.5 -131t-137.5 -45q-59 0 -148.5 34.5t-134.5 34.5q-42 0 -69.5 -18.5t-49.5 -57.5z" />
    <glyph glyph-name="nbspace" unicode="&#xa0;" horiz-adv-x="167" 
 />
    <glyph glyph-name="exclamdown" unicode="&#xa1;" horiz-adv-x="397" 
d="M285 1434v-183h-176v183h176zM244 1069l47 -1069h-189l45 1069h97z" />
    <glyph glyph-name="cent" unicode="&#xa2;" horiz-adv-x="673" 
d="M178 301q-58 48 -79 141t-21 283q0 191 20.5 283.5t79.5 140.5q43 37 103 47v164h141v-162q184 -37 201 -287l-144 -30q-1 39 -4 64t-10.5 52.5t-20.5 42.5t-35.5 25t-54.5 10q-103 0 -118 -117q-9 -88 -9 -233t9 -233q13 -117 118 -117q72 0 97.5 46t27.5 154l144 -30
q-14 -257 -201 -293v-162h-141v162q-62 13 -103 49z" />
    <glyph glyph-name="sterling" unicode="&#xa3;" horiz-adv-x="829" 
d="M113 592v129h127q-11 26 -37.5 81.5t-39.5 87t-29.5 78.5t-24 90.5t-7.5 88.5q0 145 81 228t231 83q168 0 247 -105t84 -304l-157 -33q0 160 -42 229.5t-130 69.5q-152 0 -152 -178q0 -66 17 -128.5t55.5 -155t52.5 -132.5h266v-129h-229q18 -83 18 -178q0 -148 -41 -256
q73 -39 146 -39q46 0 66 17.5t20 62.5q0 28 -4 61h149q4 -36 4 -80q0 -111 -54.5 -158t-154.5 -47q-73 0 -126 21.5t-107 60.5q-65 -75 -176 -75q-72 0 -118 32.5t-46 98.5q0 60 44.5 94.5t123.5 34.5q74 0 154 -41q12 59 12 143q-3 123 -45 248h-178zM176 55q71 0 103 47
q-59 39 -111 39q-64 0 -64 -41q0 -45 72 -45z" />
    <glyph glyph-name="yen" unicode="&#xa5;" horiz-adv-x="774" 
d="M70 631v123h215l-240 680h168l174 -588l174 588h168l-242 -680h218v-123h-240v-172h240v-123h-240v-336h-156v336h-239v123h239v172h-239z" />
    <glyph glyph-name="brokenbar" unicode="&#xa6;" 
d="M446 -334v809h132v-809h-132zM446 678v858h132v-858h-132z" />
    <glyph glyph-name="section" unicode="&#xa7;" horiz-adv-x="739" 
d="M70 229l153 31q12 -84 46.5 -128t109.5 -44q67 0 102 37t35 100q0 51 -24.5 91t-63.5 67.5t-86.5 52.5t-95 53t-86.5 62t-63.5 86t-24.5 119q0 127 102 209q-108 91 -108 239q0 130 81 203.5t215 73.5q140 0 216.5 -79.5t91.5 -197.5l-154 -30q-12 84 -46.5 128
t-109.5 44q-67 0 -102 -37t-35 -99q0 -51 24.5 -91.5t64 -68t87 -52t94.5 -52.5t86.5 -61.5t64 -85.5t24.5 -119q0 -125 -103 -211q109 -98 109 -240q0 -129 -81.5 -202.5t-215.5 -73.5q-140 0 -216 79t-91 197zM532 649q0 38 -15 69t-47.5 57.5t-60 44t-78.5 44.5t-77 43
q-47 -53 -47 -121q0 -39 14.5 -70t47 -57.5t60.5 -44t78.5 -45t77.5 -43.5q47 60 47 123z" />
    <glyph glyph-name="dieresis" unicode="&#xa8;" 
d="M305 1044v179h160v-179h-160zM559 1044v179h160v-179h-160z" />
    <glyph glyph-name="copyright" unicode="&#xa9;" horiz-adv-x="1484" 
d="M584 344q-54 44 -74.5 124.5t-20.5 248.5q0 171 20.5 251.5t74.5 121.5q65 51 164 51q125 0 181.5 -65.5t69.5 -196.5l-135 -27q-2 84 -25 125t-89 41q-79 0 -102 -63t-23 -238q0 -176 23 -238.5t102 -62.5q29 0 49.5 9t32.5 23t19 39.5t9.5 48.5t3.5 60l135 -27
q-6 -63 -20 -109.5t-41.5 -86t-76 -60t-116.5 -20.5q-98 0 -161 51zM117 717q0 195 45 339.5t129.5 231.5t196.5 128.5t255 41.5q113 0 207 -25.5t172.5 -82t132 -142.5t83.5 -210t30 -281q0 -195 -45 -339.5t-129.5 -231.5t-196.5 -129t-254 -42q-143 0 -255 42t-196.5 129
t-129.5 231.5t-45 339.5zM743 63q531 0 531 654q0 653 -531 653q-532 0 -532 -653q0 -654 532 -654z" />
    <glyph glyph-name="ordfeminine" unicode="&#xaa;" horiz-adv-x="497" 
d="M195 807q-72 0 -119 41.5t-47 122.5q0 91 66 148.5t216 58.5v61q0 56 -13 81.5t-52 25.5q-37 0 -57 -25t-21 -84l-115 25q24 180 197 180q93 0 137.5 -52.5t44.5 -158.5v-291q0 -25 10.5 -34t38.5 -11v-76q-21 -8 -53 -8q-86 0 -102 59q-32 -63 -131 -63zM231 895
q38 0 59 22t21 64v127q-155 -2 -155 -125q0 -88 75 -88zM61 621v86h390v-86h-390z" />
    <glyph glyph-name="guillemotleft" unicode="&#xab;" horiz-adv-x="681" 
d="M485 465l142 -375h-140l-153 375l153 375h140zM205 465l143 -375h-141l-154 375l154 375h141z" />
    <glyph glyph-name="registered" unicode="&#xae;" horiz-adv-x="913" 
d="M315 786v482h138q91 0 126 -30t35 -95q0 -45 -14 -69t-47 -36v-2q34 -7 45.5 -25.5t11.5 -56.5q0 -113 4 -168h-88q-2 45 -2 140q0 38 -10 49.5t-43 11.5h-70v-201h-86zM457 586q-175 0 -282 108t-107 330t107 330t282 108t282 -108t107 -330t-107 -330t-282 -108z
M457 651q149 0 233 90t84 283q0 192 -84 281.5t-233 89.5q-150 0 -234 -89t-84 -282t84 -283t234 -90zM401 1055h39q53 0 68.5 13.5t15.5 57.5q0 42 -15.5 56t-68.5 14h-39v-141z" />
    <glyph glyph-name="macron" unicode="&#xaf;" 
d="M299 1044v115h426v-115h-426z" />
    <glyph glyph-name="degree" unicode="&#xb0;" horiz-adv-x="665" 
d="M334 920q-111 0 -187.5 75t-76.5 189q0 113 76.5 188.5t187.5 75.5t186.5 -75.5t75.5 -188.5q0 -114 -75.5 -189t-186.5 -75zM334 1034q62 0 101.5 42.5t39.5 107.5t-39 107t-102 42t-103.5 -42t-40.5 -107q0 -64 41 -107t103 -43z" />
    <glyph glyph-name="plusminus" unicode="&#xb1;" horiz-adv-x="808" 
d="M334 440v240h-230v137h230v242h141v-242h230v-137h-230v-240h-141zM104 0v137h601v-137h-601z" />
    <glyph glyph-name="twosuperior" unicode="&#xb2;" horiz-adv-x="458" 
d="M20 801v78q136 172 206.5 293t70.5 223q0 100 -74 100q-43 0 -62 -34t-22 -122l-114 27q8 117 57.5 173t146.5 56q95 0 142 -53t47 -145q0 -207 -248 -490l250 2v-108h-400z" />
    <glyph glyph-name="threesuperior" unicode="&#xb3;" horiz-adv-x="471" 
d="M229 788q-108 0 -155 68q-31 48 -39 178l117 25q8 -108 20 -138t59 -30q41 0 56.5 29.5t15.5 121.5q0 57 -4 97q-4 51 -31 65.5t-114 14.5l-17 73l152 193h-254v102h387v-82l-148 -200q38 -3 66 -18t43.5 -36t25 -53t12.5 -62.5t3 -70.5q0 -128 -27 -188
q-44 -89 -168 -89z" />
    <glyph glyph-name="acute" unicode="&#xb4;" 
d="M449 1044l94 279h178l-146 -279h-126z" />
    <glyph glyph-name="paragraph" unicode="&#xb6;" horiz-adv-x="915" 
d="M129 160q-28 72 -35.5 195t-7.5 362t7.5 362t35.5 195q35 90 108.5 125t190.5 35h461v-113h-107v-1208h107v-113h-461q-117 0 -190.5 35t-108.5 125zM555 113h100v1208h-100v-1208z" />
    <glyph glyph-name="periodcentered" unicode="&#xb7;" horiz-adv-x="374" 
d="M98 627v182h176v-182h-176z" />
    <glyph glyph-name="cedilla" unicode="&#xb8;" 
d="M354 -238q68 -14 115 -14q49 0 65.5 12.5t16.5 42.5t-22.5 40t-96.5 10h-20l59 192h68l-37 -129q95 -3 135.5 -27t40.5 -86q0 -68 -44.5 -96.5t-154.5 -28.5q-41 0 -125 15v69z" />
    <glyph glyph-name="onesuperior" unicode="&#xb9;" horiz-adv-x="313" 
d="M115 801v669l-80 -16l-21 86l127 51h97v-790h-123z" />
    <glyph glyph-name="ordmasculine" unicode="&#xba;" horiz-adv-x="501" 
d="M250 805q-76 0 -125 37q-44 33 -60 96.5t-16 185.5q0 125 16.5 188t59.5 95q46 35 125 35q78 0 127 -35q43 -32 59.5 -95t16.5 -188q0 -124 -16.5 -187t-59.5 -95q-48 -37 -127 -37zM250 903q63 0 72 70q4 31 4 151q0 119 -4 152q-9 67 -72 67q-61 0 -70 -67
q-6 -50 -6 -150q0 -110 6 -153q9 -70 70 -70zM94 621v86h314v-86h-314z" />
    <glyph glyph-name="guillemotright" unicode="&#xbb;" horiz-adv-x="681" 
d="M55 90l142 375l-142 375h140l153 -375l-153 -375h-140zM334 90l143 375l-143 375h141l154 -375l-154 -375h-141z" />
    <glyph glyph-name="onequarter" unicode="&#xbc;" horiz-adv-x="1196" 
d="M694 227l-22 97l248 462h137v-464h67v-95h-67v-227h-119v227h-244zM778 319l160 3l4 311h-4l-160 -311v-3zM184 645v668l-80 -17l-20 86l127 52h94v-789h-121zM150 0l739 1434h112l-739 -1434h-112z" />
    <glyph glyph-name="onehalf" unicode="&#xbd;" horiz-adv-x="1255" 
d="M774 0v78q136 172 206.5 293t70.5 223q0 51 -18 74.5t-56 23.5q-44 0 -62.5 -32.5t-21.5 -120.5l-115 24q7 118 57.5 174t147.5 56q95 0 141.5 -53t46.5 -146q0 -207 -247 -488l250 3v-109h-400zM184 645v668l-80 -17l-20 86l127 52h94v-789h-121zM150 0l739 1434h112
l-739 -1434h-112z" />
    <glyph glyph-name="threequarters" unicode="&#xbe;" horiz-adv-x="1267" 
d="M262 637q-106 0 -153 68q-31 48 -39 178l116 24q8 -107 20.5 -137.5t57.5 -30.5q41 0 56.5 30t15.5 122q0 56 -4 96q-4 49 -31.5 63.5t-112.5 14.5l-16 74l150 192h-252v103h385v-82l-148 -201q38 -3 66 -18t43.5 -36t25 -53t12.5 -62t3 -69q0 -128 -27 -188
q-43 -88 -168 -88zM768 227l-23 97l248 462h137v-464h68v-95h-68v-227h-118v227h-244zM852 319l160 3l4 311h-4l-160 -311v-3zM223 0l740 1434h112l-739 -1434h-113z" />
    <glyph glyph-name="questiondown" unicode="&#xbf;" horiz-adv-x="714" 
d="M444 1047q0 -71 -9.5 -129.5t-33.5 -116.5t-45 -96t-63 -109q-54 -90 -73 -145.5t-19 -141.5q0 -94 32 -142t113 -48q84 0 125.5 51t48.5 184l152 -32q-35 -347 -332 -347q-141 0 -218 86.5t-77 247.5q0 94 27 172t65 135t76.5 114t65.5 138t28 179h137zM465 1434v-183
h-176v183h176z" />
    <glyph glyph-name="Agrave" unicode="&#xc0;" horiz-adv-x="710" 
d="M10 0l254 1434h180l256 -1434h-157l-43 272h-291l-43 -272h-156zM348 1126l-119 -727h250l-117 727l-6 39h-4zM287 1546l-154 275h180l107 -275h-133z" />
    <glyph glyph-name="Aacute" unicode="&#xc1;" horiz-adv-x="710" 
d="M10 0l254 1434h180l256 -1434h-157l-43 272h-291l-43 -272h-156zM348 1126l-119 -727h250l-117 727l-6 39h-4zM285 1546l106 275h180l-153 -275h-133z" />
    <glyph glyph-name="Acircumflex" unicode="&#xc2;" horiz-adv-x="710" 
d="M10 0l254 1434h180l256 -1434h-157l-43 272h-291l-43 -272h-156zM348 1126l-119 -727h250l-117 727l-6 39h-4zM131 1546l145 275h156l146 -275h-113l-111 156l-110 -156h-113z" />
    <glyph glyph-name="Atilde" unicode="&#xc3;" horiz-adv-x="710" 
d="M10 0l254 1434h180l256 -1434h-157l-43 272h-291l-43 -272h-156zM348 1126l-119 -727h250l-117 727l-6 39h-4zM117 1546q0 113 33.5 164t105.5 51q34 0 61.5 -10.5t44.5 -25.5t31.5 -30t31 -25.5t34.5 -10.5q24 0 33.5 20t9.5 68h90q0 -110 -33.5 -160.5t-105.5 -50.5
q-34 0 -61.5 10.5t-44.5 25t-32 29t-31 25t-34 10.5q-24 0 -33.5 -21t-9.5 -69h-90z" />
    <glyph glyph-name="Adieresis" unicode="&#xc4;" horiz-adv-x="710" 
d="M10 0l254 1434h180l256 -1434h-157l-43 272h-291l-43 -272h-156zM348 1126l-119 -727h250l-117 727l-6 39h-4zM133 1546v180h172v-180h-172zM403 1546v180h172v-180h-172z" />
    <glyph glyph-name="Aring" unicode="&#xc5;" horiz-adv-x="710" 
d="M10 0l252 1430q-82 45 -82 143q0 73 49.5 118.5t124.5 45.5t124.5 -45.5t49.5 -118.5q0 -99 -84 -143l256 -1430h-157l-43 272h-291l-43 -272h-156zM354 1491q35 0 56.5 21.5t21.5 60.5t-21.5 60.5t-56.5 21.5t-56.5 -21.5t-21.5 -60.5t21.5 -60.5t56.5 -21.5zM348 1126
l-119 -727h250l-117 727l-6 39h-4z" />
    <glyph glyph-name="AE" unicode="&#xc6;" horiz-adv-x="1030" 
d="M0 0l375 1434h614v-144h-373v-428h271v-145h-271v-570h373v-147h-524v268h-242l-65 -268h-158zM463 1243l-209 -844h211v844h-2z" />
    <glyph glyph-name="Ccedilla" unicode="&#xc7;" horiz-adv-x="763" 
d="M133 133q-49 124 -49 584q0 459 49 583q32 82 102.5 120t161.5 38q165 0 240 -108q30 -44 42.5 -108.5t20.5 -190.5l-157 -35q-4 73 -6.5 107t-9.5 72.5t-19 61.5q-28 60 -111 60q-59 0 -90 -29.5t-43 -105.5q-16 -112 -16 -465t16 -465q12 -76 43 -105.5t90 -29.5
q82 0 113 63q14 29 20.5 76.5t12.5 171.5l159 -33q-14 -234 -65 -311q-70 -102 -223 -109l-17 -61q90 -2 138.5 -30t48.5 -95q0 -69 -49 -101t-164 -32q-69 0 -129 14v78q68 -14 120 -14q53 0 71 13t18 44q0 32 -21.5 41.5t-101.5 9.5h-21l41 138q-161 17 -215 153z" />
    <glyph glyph-name="Egrave" unicode="&#xc8;" horiz-adv-x="692" 
d="M309 1546l-153 275h180l106 -275h-133zM102 0v1434h549v-144h-393v-428h291v-145h-291v-570h393v-147h-549z" />
    <glyph glyph-name="Eacute" unicode="&#xc9;" horiz-adv-x="692" 
d="M102 0v1434h549v-144h-393v-428h291v-145h-291v-570h393v-147h-549zM307 1546l107 275h180l-154 -275h-133z" />
    <glyph glyph-name="Ecircumflex" unicode="&#xca;" horiz-adv-x="692" 
d="M154 1546l145 275h156l145 -275h-113l-110 156l-111 -156h-112zM102 0v1434h549v-144h-393v-428h291v-145h-291v-570h393v-147h-549z" />
    <glyph glyph-name="Edieresis" unicode="&#xcb;" horiz-adv-x="692" 
d="M102 0v1434h549v-144h-393v-428h291v-145h-291v-570h393v-147h-549zM156 1546v180h172v-180h-172zM426 1546v180h172v-180h-172z" />
    <glyph glyph-name="Igrave" unicode="&#xcc;" horiz-adv-x="364" 
d="M102 0v1434h160v-1434h-160zM115 1546l-154 275h180l107 -275h-133z" />
    <glyph glyph-name="Iacute" unicode="&#xcd;" horiz-adv-x="364" 
d="M102 0v1434h160v-1434h-160zM113 1546l106 275h180l-153 -275h-133z" />
    <glyph glyph-name="Icircumflex" unicode="&#xce;" horiz-adv-x="364" 
d="M102 0v1434h160v-1434h-160zM-41 1546l145 275h156l146 -275h-113l-111 156l-110 -156h-113z" />
    <glyph glyph-name="Idieresis" unicode="&#xcf;" horiz-adv-x="364" 
d="M102 0v1434h160v-1434h-160zM-39 1546v180h172v-180h-172zM231 1546v180h172v-180h-172z" />
    <glyph glyph-name="Eth" unicode="&#xd0;" horiz-adv-x="804" 
d="M6 717v145h96v572h275q119 0 192 -36t107 -126q27 -70 36 -198.5t9 -356.5q0 -247 -8.5 -365.5t-34.5 -191.5q-34 -90 -104 -125t-197 -35h-275v717h-96zM262 143h98q78 0 115 19.5t55 81.5q27 103 27 473q0 373 -27 473q-16 62 -53.5 81t-116.5 19h-98v-428h152v-145
h-152v-574z" />
    <glyph glyph-name="Ntilde" unicode="&#xd1;" horiz-adv-x="829" 
d="M176 1546q0 113 33.5 164t105.5 51q34 0 61.5 -10.5t44.5 -25.5t31.5 -30t31 -25.5t34.5 -10.5q24 0 33.5 20t9.5 68h90q0 -110 -33.5 -160.5t-105.5 -50.5q-34 0 -61.5 10.5t-44.5 25t-32 29t-31 25t-34 10.5q-24 0 -33.5 -21t-9.5 -69h-90zM102 0v1434h160l311 -1008
v1008h154v-1434h-160l-309 1008v-1008h-156z" />
    <glyph glyph-name="Ograve" unicode="&#xd2;" horiz-adv-x="794" 
d="M330 1546l-154 275h180l107 -275h-133zM133 133q-49 124 -49 584q0 459 49 583q32 82 102.5 120t161.5 38q203 0 265 -158q27 -69 38 -204.5t11 -378.5q0 -460 -49 -584q-32 -82 -102.5 -120t-162.5 -38q-91 0 -161.5 38t-102.5 120zM264 252q12 -76 43 -105.5t90 -29.5
t90 29.5t43 105.5q19 133 19 465t-19 465q-12 76 -43 105.5t-90 29.5t-90 -29.5t-43 -105.5q-16 -112 -16 -465t16 -465z" />
    <glyph glyph-name="Oacute" unicode="&#xd3;" horiz-adv-x="794" 
d="M328 1546l106 275h180l-153 -275h-133zM133 133q-49 124 -49 584q0 459 49 583q32 82 102.5 120t161.5 38q203 0 265 -158q27 -69 38 -204.5t11 -378.5q0 -460 -49 -584q-32 -82 -102.5 -120t-162.5 -38q-91 0 -161.5 38t-102.5 120zM264 252q12 -76 43 -105.5t90 -29.5
t90 29.5t43 105.5q19 133 19 465t-19 465q-12 76 -43 105.5t-90 29.5t-90 -29.5t-43 -105.5q-16 -112 -16 -465t16 -465z" />
    <glyph glyph-name="Ocircumflex" unicode="&#xd4;" horiz-adv-x="794" 
d="M174 1546l145 275h156l146 -275h-113l-111 156l-110 -156h-113zM133 133q-49 124 -49 584q0 459 49 583q32 82 102.5 120t161.5 38q203 0 265 -158q27 -69 38 -204.5t11 -378.5q0 -460 -49 -584q-32 -82 -102.5 -120t-162.5 -38q-91 0 -161.5 38t-102.5 120zM264 252
q12 -76 43 -105.5t90 -29.5t90 29.5t43 105.5q19 133 19 465t-19 465q-12 76 -43 105.5t-90 29.5t-90 -29.5t-43 -105.5q-16 -112 -16 -465t16 -465z" />
    <glyph glyph-name="Otilde" unicode="&#xd5;" horiz-adv-x="794" 
d="M133 133q-49 124 -49 584q0 459 49 583q32 82 102.5 120t161.5 38q203 0 265 -158q27 -69 38 -204.5t11 -378.5q0 -460 -49 -584q-32 -82 -102.5 -120t-162.5 -38q-91 0 -161.5 38t-102.5 120zM264 252q12 -76 43 -105.5t90 -29.5t90 29.5t43 105.5q19 133 19 465
t-19 465q-12 76 -43 105.5t-90 29.5t-90 -29.5t-43 -105.5q-16 -112 -16 -465t16 -465zM160 1546q0 113 33.5 164t105.5 51q34 0 61.5 -10.5t44.5 -25.5t31.5 -30t31 -25.5t34.5 -10.5q24 0 33.5 20t9.5 68h90q0 -110 -33.5 -160.5t-105.5 -50.5q-34 0 -61.5 10.5t-44.5 25
t-32 29t-31 25t-34 10.5q-24 0 -33.5 -21t-9.5 -69h-90z" />
    <glyph glyph-name="Odieresis" unicode="&#xd6;" horiz-adv-x="794" 
d="M133 133q-49 124 -49 584q0 459 49 583q32 82 102.5 120t161.5 38q203 0 265 -158q27 -69 38 -204.5t11 -378.5q0 -460 -49 -584q-32 -82 -102.5 -120t-162.5 -38q-91 0 -161.5 38t-102.5 120zM264 252q12 -76 43 -105.5t90 -29.5t90 29.5t43 105.5q19 133 19 465
t-19 465q-12 76 -43 105.5t-90 29.5t-90 -29.5t-43 -105.5q-16 -112 -16 -465t16 -465zM176 1546v180h172v-180h-172zM446 1546v180h172v-180h-172z" />
    <glyph glyph-name="multiply" unicode="&#xd7;" horiz-adv-x="849" 
d="M211 457l-88 106l194 162l-194 164l88 104l215 -178l215 178l86 -104l-195 -164l195 -162l-86 -106l-215 180z" />
    <glyph glyph-name="Oslash" unicode="&#xd8;" horiz-adv-x="794" 
d="M143 111l-10 22q-27 69 -38 205t-11 379q0 459 49 583q32 82 102.5 120t161.5 38q105 0 176 -47l25 72h111l-56 -164l9 -19q27 -69 38 -204.5t11 -378.5q0 -460 -49 -584q-32 -82 -102.5 -120t-162.5 -38q-103 0 -174 45l-24 -69h-111zM248 717q0 -201 4 -293l260 825
q-31 68 -115 68q-59 0 -90 -29.5t-43 -105.5q-16 -112 -16 -465zM549 717q0 149 -6 284l-260 -821q17 -35 44 -49t70 -14q59 0 90 29.5t43 105.5q19 133 19 465z" />
    <glyph glyph-name="Ugrave" unicode="&#xd9;" horiz-adv-x="804" 
d="M334 1546l-154 275h180l107 -275h-133zM266 262q10 -83 42 -112t93 -29t94.5 29.5t43.5 111.5q8 63 8 242v930h158v-1000q0 -124 -13.5 -206t-47.5 -141t-93.5 -85.5t-149.5 -26.5t-148.5 26.5t-93 85t-48 141t-13.5 206.5v1000h160v-930q0 -179 8 -242z" />
    <glyph glyph-name="Uacute" unicode="&#xda;" horiz-adv-x="804" 
d="M266 262q10 -83 42 -112t93 -29t94.5 29.5t43.5 111.5q8 63 8 242v930h158v-1000q0 -124 -13.5 -206t-47.5 -141t-93.5 -85.5t-149.5 -26.5t-148.5 26.5t-93 85t-48 141t-13.5 206.5v1000h160v-930q0 -179 8 -242zM332 1546l106 275h180l-153 -275h-133z" />
    <glyph glyph-name="Ucircumflex" unicode="&#xdb;" horiz-adv-x="804" 
d="M178 1546l146 275h155l146 -275h-113l-111 156l-110 -156h-113zM266 262q10 -83 42 -112t93 -29t94.5 29.5t43.5 111.5q8 63 8 242v930h158v-1000q0 -124 -13.5 -206t-47.5 -141t-93.5 -85.5t-149.5 -26.5t-148.5 26.5t-93 85t-48 141t-13.5 206.5v1000h160v-930
q0 -179 8 -242z" />
    <glyph glyph-name="Udieresis" unicode="&#xdc;" horiz-adv-x="804" 
d="M266 262q10 -83 42 -112t93 -29t94.5 29.5t43.5 111.5q8 63 8 242v930h158v-1000q0 -124 -13.5 -206t-47.5 -141t-93.5 -85.5t-149.5 -26.5t-148.5 26.5t-93 85t-48 141t-13.5 206.5v1000h160v-930q0 -179 8 -242zM180 1546v180h172v-180h-172zM451 1546v180h172v-180
h-172z" />
    <glyph glyph-name="Yacute" unicode="&#xdd;" horiz-adv-x="716" 
d="M281 0v664l-265 770h168l156 -519l18 -69l21 69l153 519h168l-262 -770v-664h-157zM289 1546l106 275h180l-153 -275h-133z" />
    <glyph glyph-name="Thorn" unicode="&#xde;" horiz-adv-x="780" 
d="M102 0v1434h158v-324h98q200 0 282.5 -84.5t82.5 -290.5q0 -103 -17 -173.5t-58.5 -121.5t-114 -74.5t-181.5 -23.5h-92v-342h-158zM260 481h90q129 0 171 48.5t42 195.5q0 146 -42 194t-171 48h-90v-486z" />
    <glyph glyph-name="germandbls" unicode="&#xdf;" horiz-adv-x="686" 
d="M86 0v1180q0 266 225 266q226 0 226 -275q0 -195 -111 -268q112 -21 153.5 -127.5t41.5 -322.5q0 -113 -8 -186.5t-27.5 -129t-55.5 -85t-87.5 -43t-129.5 -13.5v125q37 0 60 4t42 18t28.5 34.5t16 61.5t8 89t1.5 127q0 83 -2.5 137.5t-10.5 94.5t-17.5 61t-29.5 33
t-40.5 15t-55.5 3v116q111 55 111 242q0 87 -24 122.5t-76 35.5q-53 0 -72 -37t-19 -141v-1137h-147z" />
    <glyph glyph-name="agrave" unicode="&#xe0;" horiz-adv-x="671" 
d="M37 233q0 67 20.5 121t65.5 99t126.5 70.5t194.5 27.5v80q0 99 -22 141.5t-86 42.5q-62 0 -95 -38t-36 -128l-137 29q7 73 31 126t61.5 83t81.5 43.5t98 13.5q250 0 250 -311v-463q0 -36 13 -47.5t46 -11.5v-109q-30 -6 -53 -6q-51 0 -87.5 21.5t-47.5 66.5
q-22 -45 -71 -70.5t-118 -25.5q-104 0 -169.5 61.5t-65.5 183.5zM188 250q0 -139 121 -139q63 0 99 36.5t36 106.5v190q-77 -1 -130 -17.5t-79 -45t-36.5 -59.5t-10.5 -72zM276 1044l-145 279h178l94 -279h-127z" />
    <glyph glyph-name="aacute" unicode="&#xe1;" horiz-adv-x="671" 
d="M37 233q0 67 20.5 121t65.5 99t126.5 70.5t194.5 27.5v80q0 99 -22 141.5t-86 42.5q-62 0 -95 -38t-36 -128l-137 29q7 73 31 126t61.5 83t81.5 43.5t98 13.5q250 0 250 -311v-463q0 -36 13 -47.5t46 -11.5v-109q-30 -6 -53 -6q-51 0 -87.5 21.5t-47.5 66.5
q-22 -45 -71 -70.5t-118 -25.5q-104 0 -169.5 61.5t-65.5 183.5zM188 250q0 -139 121 -139q63 0 99 36.5t36 106.5v190q-77 -1 -130 -17.5t-79 -45t-36.5 -59.5t-10.5 -72zM274 1044l95 279h178l-146 -279h-127z" />
    <glyph glyph-name="acircumflex" unicode="&#xe2;" horiz-adv-x="671" 
d="M37 233q0 67 20.5 121t65.5 99t126.5 70.5t194.5 27.5v80q0 99 -22 141.5t-86 42.5q-62 0 -95 -38t-36 -128l-137 29q7 73 31 126t61.5 83t81.5 43.5t98 13.5q250 0 250 -311v-463q0 -36 13 -47.5t46 -11.5v-109q-30 -6 -53 -6q-51 0 -87.5 21.5t-47.5 66.5
q-22 -45 -71 -70.5t-118 -25.5q-104 0 -169.5 61.5t-65.5 183.5zM188 250q0 -139 121 -139q63 0 99 36.5t36 106.5v190q-77 -1 -130 -17.5t-79 -45t-36.5 -59.5t-10.5 -72zM119 1044l149 279h140l149 -279h-117l-102 160l-102 -160h-117z" />
    <glyph glyph-name="atilde" unicode="&#xe3;" horiz-adv-x="671" 
d="M37 233q0 67 20.5 121t65.5 99t126.5 70.5t194.5 27.5v80q0 99 -22 141.5t-86 42.5q-62 0 -95 -38t-36 -128l-137 29q7 73 31 126t61.5 83t81.5 43.5t98 13.5q250 0 250 -311v-463q0 -36 13 -47.5t46 -11.5v-109q-30 -6 -53 -6q-51 0 -87.5 21.5t-47.5 66.5
q-22 -45 -71 -70.5t-118 -25.5q-104 0 -169.5 61.5t-65.5 183.5zM188 250q0 -139 121 -139q63 0 99 36.5t36 106.5v190q-77 -1 -130 -17.5t-79 -45t-36.5 -59.5t-10.5 -72zM109 1051q0 112 29.5 157t103.5 45q41 0 72 -15.5t46.5 -33.5t36 -33.5t41.5 -15.5q25 0 34 19.5
t9 66.5h86q0 -113 -30 -159t-105 -46q-41 0 -72 15.5t-46 34t-35 34t-41 15.5q-25 0 -34 -19.5t-9 -64.5h-86z" />
    <glyph glyph-name="adieresis" unicode="&#xe4;" horiz-adv-x="671" 
d="M37 233q0 67 20.5 121t65.5 99t126.5 70.5t194.5 27.5v80q0 99 -22 141.5t-86 42.5q-62 0 -95 -38t-36 -128l-137 29q7 73 31 126t61.5 83t81.5 43.5t98 13.5q250 0 250 -311v-463q0 -36 13 -47.5t46 -11.5v-109q-30 -6 -53 -6q-51 0 -87.5 21.5t-47.5 66.5
q-22 -45 -71 -70.5t-118 -25.5q-104 0 -169.5 61.5t-65.5 183.5zM188 250q0 -139 121 -139q63 0 99 36.5t36 106.5v190q-77 -1 -130 -17.5t-79 -45t-36.5 -59.5t-10.5 -72zM131 1044v179h160v-179h-160zM385 1044v179h160v-179h-160z" />
    <glyph glyph-name="aring" unicode="&#xe5;" horiz-adv-x="671" 
d="M37 233q0 67 20.5 121t65.5 99t126.5 70.5t194.5 27.5v80q0 99 -22 141.5t-86 42.5q-62 0 -95 -38t-36 -128l-137 29q7 73 31 126t61.5 83t81.5 43.5t98 13.5q250 0 250 -311v-463q0 -36 13 -47.5t46 -11.5v-109q-30 -6 -53 -6q-51 0 -87.5 21.5t-47.5 66.5
q-22 -45 -71 -70.5t-118 -25.5q-104 0 -169.5 61.5t-65.5 183.5zM188 250q0 -139 121 -139q63 0 99 36.5t36 106.5v190q-77 -1 -130 -17.5t-79 -45t-36.5 -59.5t-10.5 -72zM338 1030q-74 0 -123 44.5t-49 115.5t49 115.5t123 44.5t123 -44.5t49 -115.5t-49 -115.5
t-123 -44.5zM338 1112q35 0 55.5 20.5t20.5 57.5t-20.5 57.5t-55.5 20.5t-55.5 -20.5t-20.5 -57.5t20.5 -57.5t55.5 -20.5z" />
    <glyph glyph-name="ae" unicode="&#xe6;" horiz-adv-x="1044" 
d="M37 236q0 67 21 121.5t66 99.5t126.5 70t193.5 26v80q0 98 -23 140t-89 42q-60 0 -90 -38t-33 -128l-137 29q24 268 266 268q135 0 184 -94q64 94 191 94q108 0 174 -55q58 -49 79 -145t21 -302h-401q0 -158 8 -215q8 -60 35 -88t84 -28q67 0 94 47t29 153l145 -30
q-8 -142 -70 -220.5t-198 -78.5q-166 0 -221 129q-22 -57 -76.5 -92t-141.5 -35q-108 0 -172.5 63t-64.5 187zM594 702q-8 -66 -8 -149h250q-3 100 -9 149q-3 24 -7.5 40.5t-16 35.5t-35 29t-57.5 10q-55 0 -82 -28.5t-35 -86.5zM188 250q0 -141 121 -141q63 0 99 37t36 108
v190q-143 0 -199.5 -52.5t-56.5 -141.5z" />
    <glyph glyph-name="ccedilla" unicode="&#xe7;" horiz-adv-x="663" 
d="M182 -238q68 -14 115 -14q49 0 65.5 12.5t16.5 42.5t-22.5 40t-96.5 10h-20l41 135q-68 13 -115 51q-58 47 -80.5 139.5t-22.5 286.5q0 192 22 284.5t81 141.5q65 55 176 55q254 0 274 -293l-149 -30q-1 39 -3.5 63t-10 51.5t-20.5 42.5t-36 25t-55 10q-103 0 -117 -115
q-8 -60 -8 -235q0 -174 8 -234t35.5 -88t81.5 -28q71 0 97 45.5t28 152.5l149 -30q-17 -294 -268 -299l-18 -68q95 -3 135.5 -27t40.5 -86q0 -68 -44.5 -96.5t-154.5 -28.5q-41 0 -125 15v69z" />
    <glyph glyph-name="egrave" unicode="&#xe8;" horiz-adv-x="681" 
d="M166 39q-58 47 -80.5 136.5t-22.5 291.5q0 190 22 282.5t81 141.5q65 55 176 55q112 0 178 -55q58 -47 81.5 -143.5t23.5 -307.5h-410q0 -139 10 -211q8 -60 35.5 -88t81.5 -28q70 0 98.5 46t28.5 154l147 -30q-8 -142 -71.5 -220.5t-202.5 -78.5q-109 0 -176 55z
M225 702q-7 -60 -10 -143h256q-3 88 -10 143q-6 50 -31 83.5t-88 33.5q-52 0 -81 -28.5t-36 -88.5zM279 1044l-146 279h178l95 -279h-127z" />
    <glyph glyph-name="eacute" unicode="&#xe9;" horiz-adv-x="681" 
d="M276 1044l95 279h178l-146 -279h-127zM166 39q-58 47 -80.5 136.5t-22.5 291.5q0 190 22 282.5t81 141.5q65 55 176 55q112 0 178 -55q58 -47 81.5 -143.5t23.5 -307.5h-410q0 -139 10 -211q8 -60 35.5 -88t81.5 -28q70 0 98.5 46t28.5 154l147 -30q-8 -142 -71.5 -220.5
t-202.5 -78.5q-109 0 -176 55zM225 702q-7 -60 -10 -143h256q-3 88 -10 143q-6 50 -31 83.5t-88 33.5q-52 0 -81 -28.5t-36 -88.5z" />
    <glyph glyph-name="ecircumflex" unicode="&#xea;" horiz-adv-x="681" 
d="M121 1044l149 279h140l149 -279h-117l-102 160l-102 -160h-117zM166 39q-58 47 -80.5 136.5t-22.5 291.5q0 190 22 282.5t81 141.5q65 55 176 55q112 0 178 -55q58 -47 81.5 -143.5t23.5 -307.5h-410q0 -139 10 -211q8 -60 35.5 -88t81.5 -28q70 0 98.5 46t28.5 154
l147 -30q-8 -142 -71.5 -220.5t-202.5 -78.5q-109 0 -176 55zM225 702q-7 -60 -10 -143h256q-3 88 -10 143q-6 50 -31 83.5t-88 33.5q-52 0 -81 -28.5t-36 -88.5z" />
    <glyph glyph-name="edieresis" unicode="&#xeb;" horiz-adv-x="681" 
d="M133 1044v179h160v-179h-160zM387 1044v179h160v-179h-160zM166 39q-58 47 -80.5 136.5t-22.5 291.5q0 190 22 282.5t81 141.5q65 55 176 55q112 0 178 -55q58 -47 81.5 -143.5t23.5 -307.5h-410q0 -139 10 -211q8 -60 35.5 -88t81.5 -28q70 0 98.5 46t28.5 154l147 -30
q-8 -142 -71.5 -220.5t-202.5 -78.5q-109 0 -176 55zM225 702q-7 -60 -10 -143h256q-3 88 -10 143q-6 50 -31 83.5t-88 33.5q-52 0 -81 -28.5t-36 -88.5z" />
    <glyph glyph-name="igrave" unicode="&#xec;" horiz-adv-x="321" 
d="M86 0v930h150v-930h-150zM100 1044l-145 279h178l94 -279h-127z" />
    <glyph glyph-name="iacute" unicode="&#xed;" horiz-adv-x="321" 
d="M98 1044l95 279h178l-146 -279h-127zM86 0v930h150v-930h-150z" />
    <glyph glyph-name="icircumflex" unicode="&#xee;" horiz-adv-x="321" 
d="M-57 1044l149 279h139l150 -279h-117l-102 160l-103 -160h-116zM86 0v930h150v-930h-150z" />
    <glyph glyph-name="idieresis" unicode="&#xef;" horiz-adv-x="321" 
d="M-45 1044v179h160v-179h-160zM209 1044v179h160v-179h-160zM86 0v930h150v-930h-150z" />
    <glyph glyph-name="eth" unicode="&#xf0;" horiz-adv-x="702" 
d="M209 1018l-29 76l213 75q-71 104 -213 150l51 127q106 -41 177.5 -95.5t117.5 -133.5l105 38l26 -75l-96 -35q72 -183 72 -580q0 -135 -7.5 -226.5t-25.5 -163t-50.5 -111.5t-81 -60t-118.5 -20q-102 0 -161.5 41.5t-90 144t-30.5 281.5q0 172 28 274.5t81.5 145
t141.5 42.5q127 0 170 -84q-14 170 -55 271zM354 113q34 0 55 10t39 43t25.5 99t7.5 173q0 142 -15.5 218.5t-44.5 103t-81 26.5q-46 0 -70 -24.5t-36.5 -99.5t-12.5 -222q0 -136 11.5 -204.5t39 -95.5t82.5 -27z" />
    <glyph glyph-name="ntilde" unicode="&#xf1;" horiz-adv-x="696" 
d="M86 0v930h125l16 -92q48 108 179 108q107 0 158.5 -76.5t51.5 -261.5v-608h-149v604q0 124 -22.5 169.5t-79.5 45.5q-64 0 -98 -47t-34 -160v-612h-147zM119 1051q0 112 29.5 157t103.5 45q41 0 72.5 -15.5t47 -33.5t36 -33.5t41.5 -15.5q25 0 34 19.5t9 66.5h86
q0 -113 -30.5 -159t-105.5 -46q-41 0 -72 15.5t-46 34t-35 34t-41 15.5q-25 0 -34 -19.5t-9 -64.5h-86z" />
    <glyph glyph-name="ograve" unicode="&#xf2;" horiz-adv-x="686" 
d="M166 39q-58 47 -80.5 139.5t-22.5 286.5q0 192 22 284.5t81 141.5q65 55 176 55q113 0 178 -55q59 -49 81 -141.5t22 -284.5q0 -194 -22.5 -286.5t-80.5 -139.5q-66 -55 -178 -55q-110 0 -176 55zM225 229q8 -59 35.5 -86.5t81.5 -27.5q55 0 83 27.5t36 86.5q8 63 8 236
q0 175 -8 235q-8 59 -36 87t-83 28q-54 0 -81.5 -28t-35.5 -87q-8 -60 -8 -235q0 -173 8 -236zM281 1044l-146 279h178l95 -279h-127z" />
    <glyph glyph-name="oacute" unicode="&#xf3;" horiz-adv-x="686" 
d="M279 1044l94 279h178l-145 -279h-127zM166 39q-58 47 -80.5 139.5t-22.5 286.5q0 192 22 284.5t81 141.5q65 55 176 55q113 0 178 -55q59 -49 81 -141.5t22 -284.5q0 -194 -22.5 -286.5t-80.5 -139.5q-66 -55 -178 -55q-110 0 -176 55zM225 229q8 -59 35.5 -86.5
t81.5 -27.5q55 0 83 27.5t36 86.5q8 63 8 236q0 175 -8 235q-8 59 -36 87t-83 28q-54 0 -81.5 -28t-35.5 -87q-8 -60 -8 -235q0 -173 8 -236z" />
    <glyph glyph-name="ocircumflex" unicode="&#xf4;" horiz-adv-x="686" 
d="M123 1044l149 279h140l149 -279h-117l-102 160l-102 -160h-117zM166 39q-58 47 -80.5 139.5t-22.5 286.5q0 192 22 284.5t81 141.5q65 55 176 55q113 0 178 -55q59 -49 81 -141.5t22 -284.5q0 -194 -22.5 -286.5t-80.5 -139.5q-66 -55 -178 -55q-110 0 -176 55zM225 229
q8 -59 35.5 -86.5t81.5 -27.5q55 0 83 27.5t36 86.5q8 63 8 236q0 175 -8 235q-8 59 -36 87t-83 28q-54 0 -81.5 -28t-35.5 -87q-8 -60 -8 -235q0 -173 8 -236z" />
    <glyph glyph-name="otilde" unicode="&#xf5;" horiz-adv-x="686" 
d="M166 39q-58 47 -80.5 139.5t-22.5 286.5q0 192 22 284.5t81 141.5q65 55 176 55q113 0 178 -55q59 -49 81 -141.5t22 -284.5q0 -194 -22.5 -286.5t-80.5 -139.5q-66 -55 -178 -55q-110 0 -176 55zM225 229q8 -59 35.5 -86.5t81.5 -27.5q55 0 83 27.5t36 86.5q8 63 8 236
q0 175 -8 235q-8 59 -36 87t-83 28q-54 0 -81.5 -28t-35.5 -87q-8 -60 -8 -235q0 -173 8 -236zM113 1051q0 112 29.5 157t103.5 45q41 0 72 -15.5t46.5 -33.5t36 -33.5t41.5 -15.5q25 0 34 19.5t9 66.5h86q0 -113 -30 -159t-105 -46q-41 0 -72 15.5t-46 34t-35 34t-41 15.5
q-25 0 -34 -19.5t-9 -64.5h-86z" />
    <glyph glyph-name="odieresis" unicode="&#xf6;" horiz-adv-x="686" 
d="M135 1044v179h160v-179h-160zM389 1044v179h160v-179h-160zM166 39q-58 47 -80.5 139.5t-22.5 286.5q0 192 22 284.5t81 141.5q65 55 176 55q113 0 178 -55q59 -49 81 -141.5t22 -284.5q0 -194 -22.5 -286.5t-80.5 -139.5q-66 -55 -178 -55q-110 0 -176 55zM225 229
q8 -59 35.5 -86.5t81.5 -27.5q55 0 83 27.5t36 86.5q8 63 8 236q0 175 -8 235q-8 59 -36 87t-83 28q-54 0 -81.5 -28t-35.5 -87q-8 -60 -8 -235q0 -173 8 -236z" />
    <glyph glyph-name="divide" unicode="&#xf7;" horiz-adv-x="808" 
d="M319 360v175h168v-175h-168zM319 918v172h168v-172h-168zM104 657v136h601v-136h-601z" />
    <glyph glyph-name="oslash" unicode="&#xf8;" horiz-adv-x="686" 
d="M82 -29l47 105q-36 51 -51 139.5t-15 249.5q0 192 22 284.5t81 141.5q65 55 176 55q86 0 143 -33l19 41h98l-45 -102q36 -52 51 -141t15 -246q0 -194 -22.5 -286.5t-80.5 -139.5q-66 -55 -178 -55q-84 0 -141 32l-21 -45h-98zM217 465q0 -142 4 -191l205 512
q-32 29 -84 29q-54 0 -81.5 -28t-35.5 -87q-8 -60 -8 -235zM469 465q0 90 -4 188l-205 -510q25 -28 82 -28q55 0 83 27.5t36 86.5q8 63 8 236z" />
    <glyph glyph-name="ugrave" unicode="&#xf9;" horiz-adv-x="690" 
d="M285 -14q-103 0 -154 74.5t-51 256.5v613h149v-611q0 -121 21.5 -163.5t77.5 -42.5q65 0 97 45.5t32 158.5v613h147v-930h-121l-18 102q-46 -116 -180 -116zM283 1044l-146 279h178l95 -279h-127z" />
    <glyph glyph-name="uacute" unicode="&#xfa;" horiz-adv-x="690" 
d="M281 1044l94 279h178l-145 -279h-127zM285 -14q-103 0 -154 74.5t-51 256.5v613h149v-611q0 -121 21.5 -163.5t77.5 -42.5q65 0 97 45.5t32 158.5v613h147v-930h-121l-18 102q-46 -116 -180 -116z" />
    <glyph glyph-name="ucircumflex" unicode="&#xfb;" horiz-adv-x="690" 
d="M125 1044l149 279h140l149 -279h-117l-102 160l-102 -160h-117zM285 -14q-103 0 -154 74.5t-51 256.5v613h149v-611q0 -121 21.5 -163.5t77.5 -42.5q65 0 97 45.5t32 158.5v613h147v-930h-121l-18 102q-46 -116 -180 -116z" />
    <glyph glyph-name="udieresis" unicode="&#xfc;" horiz-adv-x="690" 
d="M137 1044v179h160v-179h-160zM391 1044v179h160v-179h-160zM285 -14q-103 0 -154 74.5t-51 256.5v613h149v-611q0 -121 21.5 -163.5t77.5 -42.5q65 0 97 45.5t32 158.5v613h147v-930h-121l-18 102q-46 -116 -180 -116z" />
    <glyph glyph-name="yacute" unicode="&#xfd;" horiz-adv-x="616" 
d="M51 -195q40 -4 55 -4q62 0 88.5 35t26.5 129q0 97 -35 252l-161 713h155l113 -600l18 -94h4l17 94l112 600h156l-207 -928q-16 -74 -28 -117.5t-30 -86t-38 -63.5t-52 -39t-71.5 -23.5t-97.5 -6.5zM248 1044l94 279h178l-145 -279h-127z" />
    <glyph glyph-name="thorn" unicode="&#xfe;" horiz-adv-x="702" 
d="M252 195q29 -80 110 -80q52 0 77.5 27.5t33.5 86.5q8 63 8 236q0 175 -8 235q-8 58 -33.5 86.5t-77.5 28.5q-47 0 -72 -21t-38 -61q-21 -64 -21 -268q0 -124 4 -177.5t17 -92.5zM399 -14q-111 0 -166 73v-391h-147v1766h147v-582q47 92 162 92q86 0 142 -45
q55 -46 76.5 -139.5t21.5 -290.5q0 -213 -22.5 -305.5t-75.5 -134.5q-56 -43 -138 -43z" />
    <glyph glyph-name="ydieresis" unicode="&#xff;" horiz-adv-x="616" 
d="M51 -195q40 -4 55 -4q62 0 88.5 35t26.5 129q0 97 -35 252l-161 713h155l113 -600l18 -94h4l17 94l112 600h156l-207 -928q-16 -74 -28 -117.5t-30 -86t-38 -63.5t-52 -39t-71.5 -23.5t-97.5 -6.5zM104 1044v179h160v-179h-160zM358 1044v179h160v-179h-160z" />
    <glyph glyph-name="Amacron" unicode="&#x100;" horiz-adv-x="710" 
d="M10 0l254 1434h180l256 -1434h-157l-43 272h-291l-43 -272h-156zM348 1126l-119 -727h250l-117 727l-6 39h-4zM129 1546v131h451v-131h-451z" />
    <glyph glyph-name="amacron" unicode="&#x101;" horiz-adv-x="671" 
d="M37 233q0 67 20.5 121t65.5 99t126.5 70.5t194.5 27.5v80q0 99 -22 141.5t-86 42.5q-62 0 -95 -38t-36 -128l-137 29q7 73 31 126t61.5 83t81.5 43.5t98 13.5q250 0 250 -311v-463q0 -36 13 -47.5t46 -11.5v-109q-30 -6 -53 -6q-51 0 -87.5 21.5t-47.5 66.5
q-22 -45 -71 -70.5t-118 -25.5q-104 0 -169.5 61.5t-65.5 183.5zM188 250q0 -139 121 -139q63 0 99 36.5t36 106.5v190q-77 -1 -130 -17.5t-79 -45t-36.5 -59.5t-10.5 -72zM125 1044v115h426v-115h-426z" />
    <glyph glyph-name="Abreve" unicode="&#x102;" horiz-adv-x="710" 
d="M10 0l254 1434h180l256 -1434h-157l-43 272h-291l-43 -272h-156zM348 1126l-119 -727h250l-117 727l-6 39h-4zM354 1534q-104 0 -160 53t-71 162l100 18q10 -66 40.5 -91t90.5 -25t90.5 25t40.5 91l101 -18q-15 -109 -71.5 -162t-160.5 -53z" />
    <glyph glyph-name="abreve" unicode="&#x103;" horiz-adv-x="671" 
d="M37 233q0 67 20.5 121t65.5 99t126.5 70.5t194.5 27.5v80q0 99 -22 141.5t-86 42.5q-62 0 -95 -38t-36 -128l-137 29q7 73 31 126t61.5 83t81.5 43.5t98 13.5q250 0 250 -311v-463q0 -36 13 -47.5t46 -11.5v-109q-30 -6 -53 -6q-51 0 -87.5 21.5t-47.5 66.5
q-22 -45 -71 -70.5t-118 -25.5q-104 0 -169.5 61.5t-65.5 183.5zM188 250q0 -139 121 -139q63 0 99 36.5t36 106.5v190q-77 -1 -130 -17.5t-79 -45t-36.5 -59.5t-10.5 -72zM338 1030q-102 0 -156.5 52.5t-72.5 156.5l100 18q10 -63 39.5 -88.5t89.5 -25.5t89.5 25.5
t39.5 88.5l100 -18q-18 -104 -72.5 -156.5t-156.5 -52.5z" />
    <glyph glyph-name="Aogonek" unicode="&#x104;" horiz-adv-x="710" 
d="M477 -182q0 47 21 84.5t75 97.5h-30l-43 272h-291l-43 -272h-156l254 1434h180l256 -1434h-24q-55 -62 -71.5 -95.5t-16.5 -64.5q0 -38 19 -53.5t61 -15.5q16 0 32 2v-105q-16 -2 -45 -2q-82 0 -130 42t-48 110zM348 1126l-119 -727h250l-117 727l-6 39h-4z" />
    <glyph glyph-name="aogonek" unicode="&#x105;" horiz-adv-x="671" 
d="M37 233q0 67 20.5 121t65.5 99t126.5 70.5t194.5 27.5v80q0 99 -22 141.5t-86 42.5q-62 0 -95 -38t-36 -128l-137 29q7 73 31 126t61.5 83t81.5 43.5t98 13.5q250 0 250 -311v-463q0 -36 13 -47.5t46 -11.5v-109q-61 -61 -81.5 -100t-20.5 -74q0 -38 15 -53t52 -15
q21 0 35 2v-92q-16 -2 -43 -2q-77 0 -119.5 34t-42.5 103q0 52 21 93t78 104q-66 20 -82 82q-22 -45 -71 -70.5t-118 -25.5q-104 0 -169.5 61.5t-65.5 183.5zM188 250q0 -139 121 -139q63 0 99 36.5t36 106.5v190q-77 -1 -130 -17.5t-79 -45t-36.5 -59.5t-10.5 -72z" />
    <glyph glyph-name="Cacute" unicode="&#x106;" horiz-adv-x="763" 
d="M133 133q-49 124 -49 584q0 459 49 583q32 82 102.5 120t161.5 38q165 0 240 -108q30 -44 42.5 -108.5t20.5 -190.5l-157 -35q-4 73 -6.5 107t-9.5 72.5t-19 61.5q-28 60 -111 60q-59 0 -90 -29.5t-43 -105.5q-16 -112 -16 -465t16 -465q12 -76 43 -105.5t90 -29.5
q82 0 113 63q14 29 20.5 76.5t12.5 171.5l159 -33q-14 -234 -65 -311q-73 -109 -240 -109q-91 0 -161.5 38t-102.5 120zM328 1546l106 275h180l-153 -275h-133z" />
    <glyph glyph-name="cacute" unicode="&#x107;" horiz-adv-x="663" 
d="M279 1044l94 279h178l-145 -279h-127zM166 39q-58 47 -80.5 139.5t-22.5 286.5q0 192 22 284.5t81 141.5q65 55 176 55q254 0 274 -293l-149 -30q-1 39 -3.5 63t-10 51.5t-20.5 42.5t-36 25t-55 10q-103 0 -117 -115q-8 -60 -8 -235q0 -174 8 -234t35.5 -88t81.5 -28
q71 0 97 45.5t28 152.5l149 -30q-17 -299 -274 -299q-110 0 -176 55z" />
    <glyph glyph-name="Cdotaccent" unicode="&#x10a;" horiz-adv-x="763" 
d="M309 1546v178h176v-178h-176zM133 133q-49 124 -49 584q0 459 49 583q32 82 102.5 120t161.5 38q165 0 240 -108q30 -44 42.5 -108.5t20.5 -190.5l-157 -35q-4 73 -6.5 107t-9.5 72.5t-19 61.5q-28 60 -111 60q-59 0 -90 -29.5t-43 -105.5q-16 -112 -16 -465t16 -465
q12 -76 43 -105.5t90 -29.5q82 0 113 63q14 29 20.5 76.5t12.5 171.5l159 -33q-14 -234 -65 -311q-73 -109 -240 -109q-91 0 -161.5 38t-102.5 120z" />
    <glyph glyph-name="cdotaccent" unicode="&#x10b;" horiz-adv-x="663" 
d="M166 39q-58 47 -80.5 139.5t-22.5 286.5q0 192 22 284.5t81 141.5q65 55 176 55q254 0 274 -293l-149 -30q-1 39 -3.5 63t-10 51.5t-20.5 42.5t-36 25t-55 10q-103 0 -117 -115q-8 -60 -8 -235q0 -174 8 -234t35.5 -88t81.5 -28q71 0 97 45.5t28 152.5l149 -30
q-17 -299 -274 -299q-110 0 -176 55zM258 1044v179h168v-179h-168z" />
    <glyph glyph-name="Ccaron" unicode="&#x10c;" horiz-adv-x="763" 
d="M133 133q-49 124 -49 584q0 459 49 583q32 82 102.5 120t161.5 38q165 0 240 -108q30 -44 42.5 -108.5t20.5 -190.5l-157 -35q-4 73 -6.5 107t-9.5 72.5t-19 61.5q-28 60 -111 60q-59 0 -90 -29.5t-43 -105.5q-16 -112 -16 -465t16 -465q12 -76 43 -105.5t90 -29.5
q82 0 113 63q14 29 20.5 76.5t12.5 171.5l159 -33q-14 -234 -65 -311q-73 -109 -240 -109q-91 0 -161.5 38t-102.5 120zM319 1546l-145 275h113l110 -156l111 156h113l-146 -275h-156z" />
    <glyph glyph-name="ccaron" unicode="&#x10d;" horiz-adv-x="663" 
d="M272 1044l-149 279h117l102 -160l102 160h117l-149 -279h-140zM166 39q-58 47 -80.5 139.5t-22.5 286.5q0 192 22 284.5t81 141.5q65 55 176 55q254 0 274 -293l-149 -30q-1 39 -3.5 63t-10 51.5t-20.5 42.5t-36 25t-55 10q-103 0 -117 -115q-8 -60 -8 -235
q0 -174 8 -234t35.5 -88t81.5 -28q71 0 97 45.5t28 152.5l149 -30q-17 -299 -274 -299q-110 0 -176 55z" />
    <glyph glyph-name="Dcaron" unicode="&#x10e;" horiz-adv-x="804" 
d="M102 0v1434h275q119 0 192 -36t107 -126q27 -70 36 -198.5t9 -356.5q0 -247 -8.5 -365.5t-34.5 -191.5q-34 -90 -104 -125t-197 -35h-275zM262 143h98q78 0 115 19.5t55 81.5q27 103 27 473q0 373 -27 473q-16 62 -53.5 81t-116.5 19h-98v-1147zM322 1546l-146 275h113
l110 -156l111 156h113l-146 -275h-155z" />
    <glyph glyph-name="dcaron" unicode="&#x10f;" horiz-adv-x="720" 
d="M715 1094q22 113 22 209q0 69 -10 131h131q10 -62 10 -127q0 -114 -30 -213h-123zM233 229q8 -60 32 -87t75 -27q89 0 115 80q20 59 20 270q0 207 -20 268q-27 82 -111 82q-52 0 -77.5 -28.5t-33.5 -86.5q-8 -60 -8 -235q0 -173 8 -236zM170 29q-52 42 -75 135t-23 305
q0 197 21.5 290.5t76.5 139.5q53 45 141 45q113 0 160 -88v578h147v-1434h-116l-17 84q-54 -98 -178 -98q-81 0 -137 43z" />
    <glyph glyph-name="Dcroat" unicode="&#x110;" horiz-adv-x="804" 
d="M6 717v145h96v572h275q119 0 192 -36t107 -126q27 -70 36 -198.5t9 -356.5q0 -247 -8.5 -365.5t-34.5 -191.5q-34 -90 -104 -125t-197 -35h-275v717h-96zM262 143h98q78 0 115 19.5t55 81.5q27 103 27 473q0 373 -27 473q-16 62 -53.5 81t-116.5 19h-98v-428h152v-145
h-152v-574z" />
    <glyph glyph-name="dcroat" unicode="&#x111;" horiz-adv-x="700" 
d="M205 1128v107h262v199h147v-199h97v-107h-97v-1128h-116l-17 84q-54 -98 -178 -98q-81 0 -137 43q-52 42 -75 135t-23 305q0 197 21.5 290.5t76.5 139.5q53 45 141 45q113 0 160 -88v272h-262zM229 229q8 -60 32 -87t75 -27q89 0 115 80q20 59 20 270q0 207 -20 268
q-27 82 -111 82q-52 0 -77.5 -28.5t-33.5 -86.5q-8 -60 -8 -235q0 -173 8 -236z" />
    <glyph glyph-name="Emacron" unicode="&#x112;" horiz-adv-x="692" 
d="M102 0v1434h549v-144h-393v-428h291v-145h-291v-570h393v-147h-549zM152 1546v131h450v-131h-450z" />
    <glyph glyph-name="emacron" unicode="&#x113;" horiz-adv-x="681" 
d="M166 39q-58 47 -80.5 136.5t-22.5 291.5q0 190 22 282.5t81 141.5q65 55 176 55q112 0 178 -55q58 -47 81.5 -143.5t23.5 -307.5h-410q0 -139 10 -211q8 -60 35.5 -88t81.5 -28q70 0 98.5 46t28.5 154l147 -30q-8 -142 -71.5 -220.5t-202.5 -78.5q-109 0 -176 55z
M225 702q-7 -60 -10 -143h256q-3 88 -10 143q-6 50 -31 83.5t-88 33.5q-52 0 -81 -28.5t-36 -88.5zM127 1044v115h426v-115h-426z" />
    <glyph glyph-name="Ebreve" unicode="&#x114;" horiz-adv-x="692" 
d="M102 0v1434h549v-144h-393v-428h291v-145h-291v-570h393v-147h-549zM377 1534q-104 0 -160.5 53t-71.5 162l101 18q10 -66 40.5 -91t90.5 -25t90.5 25t40.5 91l100 -18q-15 -109 -71 -162t-160 -53z" />
    <glyph glyph-name="ebreve" unicode="&#x115;" horiz-adv-x="681" 
d="M166 39q-58 47 -80.5 136.5t-22.5 291.5q0 190 22 282.5t81 141.5q65 55 176 55q112 0 178 -55q58 -47 81.5 -143.5t23.5 -307.5h-410q0 -139 10 -211q8 -60 35.5 -88t81.5 -28q70 0 98.5 46t28.5 154l147 -30q-8 -142 -71.5 -220.5t-202.5 -78.5q-109 0 -176 55z
M225 702q-7 -60 -10 -143h256q-3 88 -10 143q-6 50 -31 83.5t-88 33.5q-52 0 -81 -28.5t-36 -88.5zM340 1030q-102 0 -156.5 52.5t-72.5 156.5l100 18q10 -63 39.5 -88.5t89.5 -25.5t89.5 25.5t39.5 88.5l100 -18q-18 -104 -72.5 -156.5t-156.5 -52.5z" />
    <glyph glyph-name="Edotaccent" unicode="&#x116;" horiz-adv-x="692" 
d="M289 1546v178h176v-178h-176zM102 0v1434h549v-144h-393v-428h291v-145h-291v-570h393v-147h-549z" />
    <glyph glyph-name="edotaccent" unicode="&#x117;" horiz-adv-x="681" 
d="M166 39q-58 47 -80.5 136.5t-22.5 291.5q0 190 22 282.5t81 141.5q65 55 176 55q112 0 178 -55q58 -47 81.5 -143.5t23.5 -307.5h-410q0 -139 10 -211q8 -60 35.5 -88t81.5 -28q70 0 98.5 46t28.5 154l147 -30q-8 -142 -71.5 -220.5t-202.5 -78.5q-109 0 -176 55z
M225 702q-7 -60 -10 -143h256q-3 88 -10 143q-6 50 -31 83.5t-88 33.5q-52 0 -81 -28.5t-36 -88.5zM256 1044v179h168v-179h-168z" />
    <glyph glyph-name="Eogonek" unicode="&#x118;" horiz-adv-x="692" 
d="M102 0v1434h549v-144h-393v-428h291v-145h-291v-570h393v-147h-24q-55 -62 -71.5 -95.5t-16.5 -64.5q0 -38 18.5 -53.5t60.5 -15.5q17 0 33 2v-105q-16 -2 -45 -2q-82 0 -130 42t-48 110q0 47 21 84.5t75 97.5h-422z" />
    <glyph glyph-name="eogonek" unicode="&#x119;" horiz-adv-x="681" 
d="M166 39q-58 47 -80.5 136.5t-22.5 291.5q0 190 22 282.5t81 141.5q65 55 176 55q112 0 178 -55q58 -47 81.5 -143.5t23.5 -307.5h-410q0 -139 10 -211q8 -60 35.5 -88t81.5 -28q70 0 98.5 46t28.5 154l145 -30q-6 -127 -59 -207q-30 -44 -38.5 -65.5t-8.5 -45.5
q0 -43 18 -59.5t56 -16.5h6v-92h-13q-80 0 -126 36.5t-46 109.5q0 20 11 49l-2 2q-30 -10 -70 -10q-109 0 -176 55zM225 702q-7 -60 -10 -143h254q-4 109 -8 143q-6 50 -31 83.5t-88 33.5q-52 0 -81 -28.5t-36 -88.5z" />
    <glyph glyph-name="Ecaron" unicode="&#x11a;" horiz-adv-x="692" 
d="M102 0v1434h549v-144h-393v-428h291v-145h-291v-570h393v-147h-549zM299 1546l-145 275h112l111 -156l110 156h113l-145 -275h-156z" />
    <glyph glyph-name="ecaron" unicode="&#x11b;" horiz-adv-x="681" 
d="M270 1044l-149 279h117l102 -160l102 160h117l-149 -279h-140zM166 39q-58 47 -80.5 136.5t-22.5 291.5q0 190 22 282.5t81 141.5q65 55 176 55q112 0 178 -55q58 -47 81.5 -143.5t23.5 -307.5h-410q0 -139 10 -211q8 -60 35.5 -88t81.5 -28q70 0 98.5 46t28.5 154
l147 -30q-8 -142 -71.5 -220.5t-202.5 -78.5q-109 0 -176 55zM225 702q-7 -60 -10 -143h256q-3 88 -10 143q-6 50 -31 83.5t-88 33.5q-52 0 -81 -28.5t-36 -88.5z" />
    <glyph glyph-name="Gbreve" unicode="&#x11e;" horiz-adv-x="788" 
d="M133 133q-49 121 -49 584q0 465 49 583q33 83 103.5 120.5t160.5 37.5q165 0 240 -108q31 -45 45 -114.5t20 -184.5l-159 -35q-3 102 -9.5 154.5t-23.5 86.5q-32 60 -113 60q-60 0 -90.5 -29.5t-42.5 -105.5q-18 -126 -18 -465t18 -465q12 -76 43.5 -105.5t89.5 -29.5
q56 0 86.5 25t42.5 79q19 78 19 418h-142v139h299v-778h-88l-24 94q-49 -119 -207 -119q-87 0 -153 39t-97 119zM397 1534q-104 0 -160 53t-71 162l100 18q10 -66 40.5 -91t90.5 -25t90.5 25t40.5 91l101 -18q-15 -109 -71.5 -162t-160.5 -53z" />
    <glyph glyph-name="gbreve" unicode="&#x11f;" horiz-adv-x="688" 
d="M18 -121q0 70 37.5 116.5t102.5 67.5q-95 42 -95 138q0 85 84 123q-77 81 -77 268q0 103 17.5 174t66.5 117q66 63 170 63q119 0 184 -84q50 81 168 84v-153q-20 4 -43 4q-48 0 -80 -19q25 -79 25 -186q0 -96 -18 -163.5t-66 -113.5q-64 -61 -170 -61q-61 0 -113 25
q-25 -17 -25 -46q0 -20 9 -32.5t34 -22t51.5 -16t79.5 -16.5q30 -6 46 -9q146 -29 197.5 -81.5t51.5 -149.5q0 -135 -76 -190.5t-227 -55.5q-160 0 -247 55.5t-87 163.5zM162 -102q0 -61 42.5 -90t151.5 -29q95 0 126.5 25t31.5 85q0 63 -45.5 88t-210.5 56
q-96 -31 -96 -135zM434 592q0 133 -22.5 180t-87.5 47q-66 0 -88.5 -47t-22.5 -180q0 -123 23.5 -168t87.5 -45t87 44.5t23 168.5zM324 1030q-103 0 -157.5 53t-72.5 156l101 18q10 -63 39.5 -88.5t89.5 -25.5t89.5 25.5t39.5 88.5l100 -18q-18 -104 -72.5 -156.5
t-156.5 -52.5z" />
    <glyph glyph-name="Gdotaccent" unicode="&#x120;" horiz-adv-x="788" 
d="M309 1546v178h176v-178h-176zM133 133q-49 121 -49 584q0 465 49 583q33 83 103.5 120.5t160.5 37.5q165 0 240 -108q31 -45 45 -114.5t20 -184.5l-159 -35q-3 102 -9.5 154.5t-23.5 86.5q-32 60 -113 60q-60 0 -90.5 -29.5t-42.5 -105.5q-18 -126 -18 -465t18 -465
q12 -76 43.5 -105.5t89.5 -29.5q56 0 86.5 25t42.5 79q19 78 19 418h-142v139h299v-778h-88l-24 94q-49 -119 -207 -119q-87 0 -153 39t-97 119z" />
    <glyph glyph-name="gdotaccent" unicode="&#x121;" horiz-adv-x="688" 
d="M18 -121q0 70 37.5 116.5t102.5 67.5q-95 42 -95 138q0 85 84 123q-77 81 -77 268q0 103 17.5 174t66.5 117q66 63 170 63q119 0 184 -84q50 81 168 84v-153q-20 4 -43 4q-48 0 -80 -19q25 -79 25 -186q0 -96 -18 -163.5t-66 -113.5q-64 -61 -170 -61q-61 0 -113 25
q-25 -17 -25 -46q0 -20 9 -32.5t34 -22t51.5 -16t79.5 -16.5q30 -6 46 -9q146 -29 197.5 -81.5t51.5 -149.5q0 -135 -76 -190.5t-227 -55.5q-160 0 -247 55.5t-87 163.5zM162 -102q0 -61 42.5 -90t151.5 -29q95 0 126.5 25t31.5 85q0 63 -45.5 88t-210.5 56
q-96 -31 -96 -135zM434 592q0 133 -22.5 180t-87.5 47q-66 0 -88.5 -47t-22.5 -180q0 -123 23.5 -168t87.5 -45t87 44.5t23 168.5zM240 1044v179h168v-179h-168z" />
    <glyph glyph-name="Gcommaaccent" unicode="&#x122;" horiz-adv-x="788" 
d="M313 -76h144q4 -37 4 -80q0 -109 -39 -186h-123q23 74 23 164q0 50 -9 102zM133 133q-49 121 -49 584q0 465 49 583q33 83 103.5 120.5t160.5 37.5q165 0 240 -108q31 -45 45 -114.5t20 -184.5l-159 -35q-3 102 -9.5 154.5t-23.5 86.5q-32 60 -113 60q-60 0 -90.5 -29.5
t-42.5 -105.5q-18 -126 -18 -465t18 -465q12 -76 43.5 -105.5t89.5 -29.5q56 0 86.5 25t42.5 79q19 78 19 418h-142v139h299v-778h-88l-24 94q-49 -119 -207 -119q-87 0 -153 39t-97 119z" />
    <glyph glyph-name="gcommaaccent" unicode="&#x123;" horiz-adv-x="688" 
d="M262 1042q-4 41 -4 88q0 116 39 193h113q-23 -90 -23 -168q0 -48 10 -113h-135zM18 -121q0 70 37.5 116.5t102.5 67.5q-95 42 -95 138q0 85 84 123q-77 81 -77 268q0 103 17.5 174t66.5 117q66 63 170 63q119 0 184 -84q50 81 168 84v-153q-20 4 -43 4q-48 0 -80 -19
q25 -79 25 -186q0 -96 -18 -163.5t-66 -113.5q-64 -61 -170 -61q-61 0 -113 25q-25 -17 -25 -46q0 -20 9 -32.5t34 -22t51.5 -16t79.5 -16.5q30 -6 46 -9q146 -29 197.5 -81.5t51.5 -149.5q0 -135 -76 -190.5t-227 -55.5q-160 0 -247 55.5t-87 163.5zM162 -102
q0 -61 42.5 -90t151.5 -29q95 0 126.5 25t31.5 85q0 63 -45.5 88t-210.5 56q-96 -31 -96 -135zM434 592q0 133 -22.5 180t-87.5 47q-66 0 -88.5 -47t-22.5 -180q0 -123 23.5 -168t87.5 -45t87 44.5t23 168.5z" />
    <glyph glyph-name="Hbar" unicode="&#x126;" horiz-adv-x="811" 
d="M8 1118v119h94v197h160v-197h289v197h158v-197h94v-119h-94v-1118h-158v715h-289v-715h-160v1118h-94zM262 1118v-254h289v254h-289z" />
    <glyph glyph-name="hbar" unicode="&#x127;" horiz-adv-x="696" 
d="M-10 1128v107h96v199h147v-199h263v-107h-263v-276q50 94 173 94q107 0 158.5 -76.5t51.5 -261.5v-608h-149v604q0 124 -22.5 169.5t-79.5 45.5q-64 0 -98 -47t-34 -160v-612h-147v1128h-96z" />
    <glyph glyph-name="Itilde" unicode="&#x128;" horiz-adv-x="364" 
d="M102 0v1434h160v-1434h-160zM-55 1546q0 113 33.5 164t105.5 51q34 0 61.5 -10.5t44.5 -25.5t31.5 -30t31 -25.5t34.5 -10.5q24 0 33.5 20t9.5 68h90q0 -110 -33.5 -160.5t-105.5 -50.5q-34 0 -61.5 10.5t-44.5 25t-32 29t-31 25t-34 10.5q-24 0 -33.5 -21t-9.5 -69h-90z
" />
    <glyph glyph-name="itilde" unicode="&#x129;" horiz-adv-x="321" 
d="M-39 1051q0 112 26 157t91 45q34 0 61 -15.5t40 -33.5t30 -33.5t35 -15.5q22 0 29.5 19.5t7.5 66.5h79q0 -114 -25.5 -159.5t-90.5 -45.5q-34 0 -61 15.5t-40 34t-30 34t-35 15.5q-22 0 -29.5 -19t-7.5 -65h-80zM86 0v930h150v-930h-150z" />
    <glyph glyph-name="Imacron" unicode="&#x12a;" horiz-adv-x="364" 
d="M102 0v1434h160v-1434h-160zM-43 1546v131h451v-131h-451z" />
    <glyph glyph-name="imacron" unicode="&#x12b;" horiz-adv-x="321" 
d="M86 0v930h150v-930h-150zM-27 1044v115h377v-115h-377z" />
    <glyph glyph-name="Ibreve" unicode="&#x12c;" horiz-adv-x="364" 
d="M102 0v1434h160v-1434h-160zM182 1534q-104 0 -160 53t-71 162l100 18q10 -66 40.5 -91t90.5 -25t90.5 25t40.5 91l101 -18q-15 -109 -71.5 -162t-160.5 -53z" />
    <glyph glyph-name="ibreve" unicode="&#x12d;" horiz-adv-x="321" 
d="M86 0v930h150v-930h-150zM162 1030q-103 0 -157.5 53t-72.5 156l101 18q10 -63 39.5 -88.5t89.5 -25.5t89.5 25.5t39.5 88.5l100 -18q-18 -104 -72.5 -156.5t-156.5 -52.5z" />
    <glyph glyph-name="Iogonek" unicode="&#x12e;" horiz-adv-x="364" 
d="M102 0v1434h160v-1434h-24q-55 -62 -71.5 -95.5t-16.5 -64.5q0 -38 18.5 -53.5t60.5 -15.5q17 0 33 2v-105q-16 -2 -45 -2q-82 0 -130 42t-48 110q0 47 21 84.5t75 97.5h-33z" />
    <glyph glyph-name="iogonek" unicode="&#x12f;" horiz-adv-x="321" 
d="M86 0v930h150v-930h-7q-59 -67 -76.5 -103t-17.5 -67q0 -42 15.5 -56t56.5 -14q17 0 29 2v-92q-12 -2 -33 -2q-85 0 -128.5 33.5t-43.5 108.5q0 46 21.5 89t74.5 101h-41zM74 1106v180h174v-180h-174z" />
    <glyph glyph-name="Idotaccent" unicode="&#x130;" horiz-adv-x="364" 
d="M102 0v1434h160v-1434h-160zM94 1546v178h176v-178h-176z" />
    <glyph glyph-name="dotlessi" unicode="&#x131;" horiz-adv-x="321" 
d="M86 0v930h150v-930h-150z" />
    <glyph glyph-name="Kcommaaccent" unicode="&#x136;" horiz-adv-x="724" 
d="M102 0v1434h158v-674l272 674h170l-208 -500l217 -934h-162l-162 727l-127 -317v-410h-158zM311 -76h144q4 -37 4 -80q0 -109 -39 -186h-123q22 71 22 164q0 55 -8 102z" />
    <glyph glyph-name="kcommaaccent" unicode="&#x137;" horiz-adv-x="641" 
d="M270 -66h136q4 -39 4 -81q0 -108 -39 -177h-113q23 82 23 156q0 51 -11 102zM467 0l-129 426l-107 -215v-211h-145v1434h145v-955l228 451h159l-182 -357l187 -573h-156z" />
    <glyph glyph-name="Lacute" unicode="&#x139;" horiz-adv-x="632" 
d="M113 1546l106 275h180l-153 -275h-133zM102 0v1434h160v-1284h356v-150h-516z" />
    <glyph glyph-name="lacute" unicode="&#x13a;" horiz-adv-x="319" 
d="M96 1548l94 279h179l-146 -279h-127zM86 0v1434h147v-1434h-147z" />
    <glyph glyph-name="Lcommaaccent" unicode="&#x13b;" horiz-adv-x="632" 
d="M283 -76h143q4 -37 4 -80q0 -109 -39 -186h-123q23 74 23 164q0 55 -8 102zM102 0v1434h160v-1284h356v-150h-516z" />
    <glyph glyph-name="lcommaaccent" unicode="&#x13c;" horiz-adv-x="319" 
d="M88 -57h135q4 -39 4 -82q0 -107 -39 -176h-112q22 79 22 155q0 57 -10 103zM86 0v1434h147v-1434h-147z" />
    <glyph glyph-name="Lcaron" unicode="&#x13d;" horiz-adv-x="632" 
d="M430 1094q23 118 23 209q0 63 -11 131h131q11 -68 11 -127q0 -111 -31 -213h-123zM102 0v1434h160v-1284h356v-150h-516z" />
    <glyph glyph-name="lcaron" unicode="&#x13e;" horiz-adv-x="329" 
d="M326 1094q22 113 22 209q0 69 -10 131h131q10 -62 10 -127q0 -114 -30 -213h-123zM86 0v1434h147v-1434h-147z" />
    <glyph glyph-name="Ldot" unicode="&#x13f;" horiz-adv-x="632" 
d="M420 635v178h176v-178h-176zM102 0v1434h160v-1284h356v-150h-516z" />
    <glyph glyph-name="ldot" unicode="&#x140;" horiz-adv-x="598" 
d="M86 0v1434h147v-1434h-147zM373 633v178h168v-178h-168z" />
    <glyph glyph-name="Lslash" unicode="&#x141;" horiz-adv-x="632" 
d="M20 551v154l82 47v682h160v-607l258 148v-154l-258 -147v-524h356v-150h-516v598z" />
    <glyph glyph-name="lslash" unicode="&#x142;" horiz-adv-x="319" 
d="M0 569v140l86 49v676h147v-603l84 48v-142l-84 -47v-690h-147v618z" />
    <glyph glyph-name="Nacute" unicode="&#x143;" horiz-adv-x="829" 
d="M344 1546l107 275h180l-154 -275h-133zM102 0v1434h160l311 -1008v1008h154v-1434h-160l-309 1008v-1008h-156z" />
    <glyph glyph-name="nacute" unicode="&#x144;" horiz-adv-x="696" 
d="M285 1044l94 279h178l-145 -279h-127zM86 0v930h125l16 -92q48 108 179 108q107 0 158.5 -76.5t51.5 -261.5v-608h-149v604q0 124 -22.5 169.5t-79.5 45.5q-64 0 -98 -47t-34 -160v-612h-147z" />
    <glyph glyph-name="Ncommaaccent" unicode="&#x145;" horiz-adv-x="829" 
d="M336 -76h143q4 -37 4 -80q0 -109 -39 -186h-122q22 71 22 164q0 55 -8 102zM102 0v1434h160l311 -1008v1008h154v-1434h-160l-309 1008v-1008h-156z" />
    <glyph glyph-name="ncommaaccent" unicode="&#x146;" horiz-adv-x="696" 
d="M276 -66h136q4 -39 4 -81q0 -108 -39 -177h-113q23 82 23 156q0 51 -11 102zM86 0v930h125l16 -92q48 108 179 108q107 0 158.5 -76.5t51.5 -261.5v-608h-149v604q0 124 -22.5 169.5t-79.5 45.5q-64 0 -98 -47t-34 -160v-612h-147z" />
    <glyph glyph-name="Ncaron" unicode="&#x147;" horiz-adv-x="829" 
d="M102 0v1434h160l311 -1008v1008h154v-1434h-160l-309 1008v-1008h-156zM336 1546l-146 275h113l111 -156l110 156h113l-145 -275h-156z" />
    <glyph glyph-name="ncaron" unicode="&#x148;" horiz-adv-x="696" 
d="M279 1044l-150 279h117l102 -160l103 160h116l-149 -279h-139zM86 0v930h125l16 -92q48 108 179 108q107 0 158.5 -76.5t51.5 -261.5v-608h-149v604q0 124 -22.5 169.5t-79.5 45.5q-64 0 -98 -47t-34 -160v-612h-147z" />
    <glyph glyph-name="Eng" unicode="&#x14a;" horiz-adv-x="829" 
d="M102 0v1434h160l311 -1018v1018h154v-1467q0 -173 -63 -238t-226 -65v133q85 0 111 24t26 103q0 73 -34 180l-283 914v-1018h-156z" />
    <glyph glyph-name="eng" unicode="&#x14b;" horiz-adv-x="696" 
d="M86 0v930h125l16 -92q48 108 179 108q107 0 158.5 -76.5t51.5 -261.5v-620q0 -148 -58 -209t-206 -64v131q73 0 94 27t21 109v622q0 124 -22.5 169.5t-79.5 45.5q-64 0 -98 -47t-34 -160v-612h-147z" />
    <glyph glyph-name="Omacron" unicode="&#x14c;" horiz-adv-x="794" 
d="M133 133q-49 124 -49 584q0 459 49 583q32 82 102.5 120t161.5 38q203 0 265 -158q27 -69 38 -204.5t11 -378.5q0 -460 -49 -584q-32 -82 -102.5 -120t-162.5 -38q-91 0 -161.5 38t-102.5 120zM264 252q12 -76 43 -105.5t90 -29.5t90 29.5t43 105.5q19 133 19 465
t-19 465q-12 76 -43 105.5t-90 29.5t-90 -29.5t-43 -105.5q-16 -112 -16 -465t16 -465zM172 1546v131h451v-131h-451z" />
    <glyph glyph-name="omacron" unicode="&#x14d;" horiz-adv-x="686" 
d="M129 1044v115h426v-115h-426zM166 39q-58 47 -80.5 139.5t-22.5 286.5q0 192 22 284.5t81 141.5q65 55 176 55q113 0 178 -55q59 -49 81 -141.5t22 -284.5q0 -194 -22.5 -286.5t-80.5 -139.5q-66 -55 -178 -55q-110 0 -176 55zM225 229q8 -59 35.5 -86.5t81.5 -27.5
q55 0 83 27.5t36 86.5q8 63 8 236q0 175 -8 235q-8 59 -36 87t-83 28q-54 0 -81.5 -28t-35.5 -87q-8 -60 -8 -235q0 -173 8 -236z" />
    <glyph glyph-name="Obreve" unicode="&#x14e;" horiz-adv-x="794" 
d="M133 133q-49 124 -49 584q0 459 49 583q32 82 102.5 120t161.5 38q203 0 265 -158q27 -69 38 -204.5t11 -378.5q0 -460 -49 -584q-32 -82 -102.5 -120t-162.5 -38q-91 0 -161.5 38t-102.5 120zM264 252q12 -76 43 -105.5t90 -29.5t90 29.5t43 105.5q19 133 19 465
t-19 465q-12 76 -43 105.5t-90 29.5t-90 -29.5t-43 -105.5q-16 -112 -16 -465t16 -465zM397 1534q-104 0 -160 53t-71 162l100 18q10 -66 40.5 -91t90.5 -25t90.5 25t40.5 91l101 -18q-15 -109 -71.5 -162t-160.5 -53z" />
    <glyph glyph-name="obreve" unicode="&#x14f;" horiz-adv-x="686" 
d="M166 39q-58 47 -80.5 139.5t-22.5 286.5q0 192 22 284.5t81 141.5q65 55 176 55q113 0 178 -55q59 -49 81 -141.5t22 -284.5q0 -194 -22.5 -286.5t-80.5 -139.5q-66 -55 -178 -55q-110 0 -176 55zM225 229q8 -59 35.5 -86.5t81.5 -27.5q55 0 83 27.5t36 86.5q8 63 8 236
q0 175 -8 235q-8 59 -36 87t-83 28q-54 0 -81.5 -28t-35.5 -87q-8 -60 -8 -235q0 -173 8 -236zM342 1030q-102 0 -156.5 52.5t-72.5 156.5l100 18q10 -63 39.5 -88.5t89.5 -25.5t89.5 25.5t39.5 88.5l100 -18q-18 -104 -72.5 -156.5t-156.5 -52.5z" />
    <glyph glyph-name="Ohungarumlaut" unicode="&#x150;" horiz-adv-x="794" 
d="M225 1546l92 275h158l-131 -275h-119zM451 1546l92 275h157l-131 -275h-118zM133 133q-49 124 -49 584q0 459 49 583q32 82 102.5 120t161.5 38q203 0 265 -158q27 -69 38 -204.5t11 -378.5q0 -460 -49 -584q-32 -82 -102.5 -120t-162.5 -38q-91 0 -161.5 38t-102.5 120z
M264 252q12 -76 43 -105.5t90 -29.5t90 29.5t43 105.5q19 133 19 465t-19 465q-12 76 -43 105.5t-90 29.5t-90 -29.5t-43 -105.5q-16 -112 -16 -465t16 -465z" />
    <glyph glyph-name="ohungarumlaut" unicode="&#x151;" horiz-adv-x="686" 
d="M168 1044l92 279h158l-133 -279h-117zM399 1044l95 279h157l-133 -279h-119zM166 39q-58 47 -80.5 139.5t-22.5 286.5q0 192 22 284.5t81 141.5q65 55 176 55q113 0 178 -55q59 -49 81 -141.5t22 -284.5q0 -194 -22.5 -286.5t-80.5 -139.5q-66 -55 -178 -55
q-110 0 -176 55zM225 229q8 -59 35.5 -86.5t81.5 -27.5q55 0 83 27.5t36 86.5q8 63 8 236q0 175 -8 235q-8 59 -36 87t-83 28q-54 0 -81.5 -28t-35.5 -87q-8 -60 -8 -235q0 -173 8 -236z" />
    <glyph glyph-name="OE" unicode="&#x152;" horiz-adv-x="1030" 
d="M125 180q-41 114 -41 533q0 217 9 343.5t34 196.5q62 181 305 181h555v-144h-362v-428h262v-145h-262v-570h362v-147h-555q-120 0 -196.5 41t-110.5 139zM262 283q11 -85 50.5 -111.5t119.5 -26.5h37v1145h-37q-82 0 -120.5 -29t-49.5 -114q-16 -125 -16 -440
q0 -319 16 -424z" />
    <glyph glyph-name="oe" unicode="&#x153;" horiz-adv-x="1062" 
d="M164 39q-58 47 -80.5 139.5t-22.5 286.5q0 192 22 284.5t81 141.5q65 55 174 55q131 0 194 -102q62 102 197 102q106 0 172 -55q58 -49 79 -146t21 -305h-401q0 -154 8 -211q8 -60 35 -88t84 -28q67 0 94 47t29 153l145 -30q-8 -142 -70 -220.5t-198 -78.5
q-135 0 -195 102q-63 -102 -194 -102q-108 0 -174 55zM223 229q8 -60 34.5 -87t80.5 -27q53 0 79 27t34 87q8 63 8 236q0 175 -8 235t-34 87.5t-79 27.5q-54 0 -80.5 -27.5t-34.5 -87.5t-8 -235q0 -173 8 -236zM608 702q-8 -66 -8 -143h250q-4 107 -8 143q-3 24 -8 40.5
t-16.5 36t-35 30t-57.5 10.5q-55 0 -82 -29.5t-35 -87.5z" />
    <glyph glyph-name="Racute" unicode="&#x154;" horiz-adv-x="804" 
d="M102 0v1434h252q201 0 285 -81.5t84 -283.5q0 -126 -29 -198.5t-100 -108.5v-2q37 -14 61 -37.5t37 -60t18 -77.5t5 -98q0 -311 10 -477v-10h-160q-6 180 -6 459q0 120 -35.5 164.5t-136.5 44.5h-127v-668h-158zM260 805h90q129 0 171 49t42 197q0 145 -41.5 192
t-171.5 47h-90v-485zM342 1546l107 275h180l-154 -275h-133z" />
    <glyph glyph-name="racute" unicode="&#x155;" horiz-adv-x="466" 
d="M203 1044l94 279h178l-145 -279h-127zM86 0v930h125l20 -113q45 124 218 127v-162q-20 4 -54 4q-89 0 -125.5 -51.5t-36.5 -173.5v-561h-147z" />
    <glyph glyph-name="Rcommaaccent" unicode="&#x156;" horiz-adv-x="804" 
d="M102 0v1434h252q201 0 285 -81.5t84 -283.5q0 -126 -29 -198.5t-100 -108.5v-2q37 -14 61 -37.5t37 -60t18 -77.5t5 -98q0 -311 10 -477v-10h-160q-6 180 -6 459q0 120 -35.5 164.5t-136.5 44.5h-127v-668h-158zM260 805h90q129 0 171 49t42 197q0 145 -41.5 192
t-171.5 47h-90v-485zM334 -76h143q4 -37 4 -80q0 -109 -39 -186h-123q23 74 23 164q0 55 -8 102z" />
    <glyph glyph-name="rcommaaccent" unicode="&#x157;" horiz-adv-x="466" 
d="M88 -66h135q4 -39 4 -81q0 -108 -39 -177h-112q22 79 22 156q0 56 -10 102zM86 0v930h125l20 -113q45 124 218 127v-162q-20 4 -54 4q-89 0 -125.5 -51.5t-36.5 -173.5v-561h-147z" />
    <glyph glyph-name="Rcaron" unicode="&#x158;" horiz-adv-x="804" 
d="M102 0v1434h252q201 0 285 -81.5t84 -283.5q0 -126 -29 -198.5t-100 -108.5v-2q37 -14 61 -37.5t37 -60t18 -77.5t5 -98q0 -311 10 -477v-10h-160q-6 180 -6 459q0 120 -35.5 164.5t-136.5 44.5h-127v-668h-158zM260 805h90q129 0 171 49t42 197q0 145 -41.5 192
t-171.5 47h-90v-485zM334 1546l-146 275h113l111 -156l110 156h113l-146 -275h-155z" />
    <glyph glyph-name="rcaron" unicode="&#x159;" horiz-adv-x="466" 
d="M197 1044l-150 279h117l102 -160l103 160h116l-149 -279h-139zM86 0v930h125l20 -113q45 124 218 127v-162q-20 4 -54 4q-89 0 -125.5 -51.5t-36.5 -173.5v-561h-147z" />
    <glyph glyph-name="Sacute" unicode="&#x15a;" horiz-adv-x="708" 
d="M358 -25q-73 0 -126 19.5t-94 65.5t-63 129t-26 204l154 31q6 -130 22 -194t46 -87.5t89 -23.5q69 0 101.5 38.5t32.5 129.5q0 65 -12.5 117t-43.5 101t-59.5 82.5t-83.5 90.5q-122 125 -180 226.5t-58 234.5q0 156 79.5 237.5t221.5 81.5q67 0 118 -19.5t84 -53.5
t53.5 -86.5t29.5 -112t10 -135.5l-155 -29q-1 64 -3.5 104.5t-11 80.5t-23.5 61.5t-41.5 35t-64.5 13.5q-141 0 -141 -170q0 -34 6.5 -67t13.5 -57t26 -55.5t29 -47t39.5 -49t39.5 -44t45 -47.5q44 -45 62.5 -65.5t54 -62.5t52 -73.5t36.5 -77t28 -95.5t8 -107
q0 -152 -70.5 -238t-224.5 -86zM285 1546l106 275h180l-153 -275h-133z" />
    <glyph glyph-name="sacute" unicode="&#x15b;" horiz-adv-x="618" 
d="M246 1044l94 279h178l-145 -279h-127zM43 272l141 27q3 -102 34 -144t97 -42q57 0 85 25.5t28 84.5q0 29 -8 53.5t-19.5 40.5t-34.5 33.5t-41 28t-52 30t-56 33.5q-36 23 -60.5 42.5t-52 51t-41.5 74.5t-14 95q0 115 70.5 178t189.5 63q127 0 190 -75t68 -209l-137 -25
q-3 97 -31.5 139.5t-93.5 42.5q-112 0 -112 -110q0 -27 8.5 -49.5t20 -38t34.5 -33t40.5 -27.5t50.5 -28.5t52 -30.5q42 -26 69.5 -48t53.5 -54t38.5 -74.5t12.5 -96.5q0 -243 -254 -243q-126 0 -197.5 66t-78.5 220z" />
    <glyph glyph-name="Scedilla" unicode="&#x15e;" horiz-adv-x="708" 
d="M195 -252q68 -14 120 -14q53 0 70.5 13t17.5 44q0 32 -21.5 41.5t-100.5 9.5h-21l41 138q-121 14 -183.5 107.5t-68.5 305.5l154 31q6 -130 22 -194t46 -87.5t89 -23.5q69 0 101.5 38.5t32.5 129.5q0 65 -12.5 117t-43.5 101t-59.5 82.5t-83.5 90.5q-122 125 -180 226.5
t-58 234.5q0 156 79.5 237.5t221.5 81.5q67 0 118 -19.5t84 -53.5t53.5 -86.5t29.5 -112t10 -135.5l-155 -29q-1 64 -3.5 104.5t-11 80.5t-23.5 61.5t-41.5 35t-64.5 13.5q-141 0 -141 -170q0 -34 6.5 -67t13.5 -57t26 -55.5t29 -47t39.5 -49t39.5 -44t45 -47.5
q44 -45 62.5 -65.5t54 -62.5t52 -73.5t36.5 -77t28 -95.5t8 -107q0 -319 -286 -324l-17 -61q90 -2 138.5 -30t48.5 -95q0 -69 -49 -101t-164 -32q-69 0 -129 14v78z" />
    <glyph glyph-name="scedilla" unicode="&#x15f;" horiz-adv-x="618" 
d="M152 -238q68 -14 114 -14q49 0 65.5 12.5t16.5 42.5t-22.5 40t-96.5 10h-20l43 139q-198 29 -209 280l141 27q3 -102 34 -144t97 -42q57 0 85 25.5t28 84.5q0 29 -8 53.5t-19.5 40.5t-34.5 33.5t-41 28t-52 30t-56 33.5q-36 23 -60.5 42.5t-52 51t-41.5 74.5t-14 95
q0 115 70.5 178t189.5 63q127 0 190 -75t68 -209l-137 -25q-3 97 -31.5 139.5t-93.5 42.5q-112 0 -112 -110q0 -27 8.5 -49.5t20 -38t34.5 -33t40.5 -27.5t50.5 -28.5t52 -30.5q42 -26 69.5 -48t53.5 -54t38.5 -74.5t12.5 -96.5q0 -243 -254 -243h-2l-18 -70
q95 -3 135.5 -27t40.5 -86q0 -68 -44.5 -96.5t-154.5 -28.5q-40 0 -124 15v69z" />
    <glyph glyph-name="Scaron" unicode="&#x160;" horiz-adv-x="708" 
d="M358 -25q-73 0 -126 19.5t-94 65.5t-63 129t-26 204l154 31q6 -130 22 -194t46 -87.5t89 -23.5q69 0 101.5 38.5t32.5 129.5q0 65 -12.5 117t-43.5 101t-59.5 82.5t-83.5 90.5q-122 125 -180 226.5t-58 234.5q0 156 79.5 237.5t221.5 81.5q67 0 118 -19.5t84 -53.5
t53.5 -86.5t29.5 -112t10 -135.5l-155 -29q-1 64 -3.5 104.5t-11 80.5t-23.5 61.5t-41.5 35t-64.5 13.5q-141 0 -141 -170q0 -34 6.5 -67t13.5 -57t26 -55.5t29 -47t39.5 -49t39.5 -44t45 -47.5q44 -45 62.5 -65.5t54 -62.5t52 -73.5t36.5 -77t28 -95.5t8 -107
q0 -152 -70.5 -238t-224.5 -86zM276 1546l-145 275h113l110 -156l111 156h113l-146 -275h-156z" />
    <glyph glyph-name="scaron" unicode="&#x161;" horiz-adv-x="618" 
d="M240 1044l-150 279h117l102 -160l103 160h116l-149 -279h-139zM43 272l141 27q3 -102 34 -144t97 -42q57 0 85 25.5t28 84.5q0 29 -8 53.5t-19.5 40.5t-34.5 33.5t-41 28t-52 30t-56 33.5q-36 23 -60.5 42.5t-52 51t-41.5 74.5t-14 95q0 115 70.5 178t189.5 63
q127 0 190 -75t68 -209l-137 -25q-3 97 -31.5 139.5t-93.5 42.5q-112 0 -112 -110q0 -27 8.5 -49.5t20 -38t34.5 -33t40.5 -27.5t50.5 -28.5t52 -30.5q42 -26 69.5 -48t53.5 -54t38.5 -74.5t12.5 -96.5q0 -243 -254 -243q-126 0 -197.5 66t-78.5 220z" />
    <glyph glyph-name="uni0162" unicode="&#x162;" horiz-adv-x="677" 
d="M260 0v1286h-227v148h612v-148h-227v-1286h-56l-24 -86q90 -2 138 -30t48 -95q0 -69 -49 -101t-164 -32q-69 0 -129 14v78q68 -14 121 -14t70.5 13t17.5 44q0 32 -21.5 41.5t-101.5 9.5h-20l47 158h-35z" />
    <glyph glyph-name="uni0163" unicode="&#x163;" horiz-adv-x="471" 
d="M119 -238q68 -14 114 -14q49 0 65.5 12.5t16.5 42.5t-22.5 40t-95.5 10h-21l49 159q-58 26 -84 88.5t-26 169.5q0 9 0.5 100t1 215.5t0.5 215.5h-107v129h107v215l149 33v-248h176v-129h-176v-506q0 -101 22 -136.5t81 -35.5q21 0 75 6v-129q-52 -10 -102 -10
q-21 0 -53 4l-23 -78q95 -3 135.5 -27t40.5 -86q0 -68 -44.5 -96.5t-153.5 -28.5q-41 0 -125 15v69z" />
    <glyph glyph-name="Tcaron" unicode="&#x164;" horiz-adv-x="677" 
d="M260 0v1286h-227v148h612v-148h-227v-1286h-158zM262 1546l-145 275h112l111 -156l111 156h112l-145 -275h-156z" />
    <glyph glyph-name="tcaron" unicode="&#x165;" horiz-adv-x="483" 
d="M377 1085q24 114 24 213q0 78 -12 136h135q13 -84 13 -134q0 -110 -31 -215h-129zM10 801v129h107v215l149 33v-248h176v-129h-176v-506q0 -101 22 -136.5t81 -35.5q21 0 75 6v-129q-52 -10 -102 -10q-120 0 -173.5 65.5t-53.5 214.5q0 9 0.5 100t1 215.5t0.5 215.5h-107
z" />
    <glyph glyph-name="Tbar" unicode="&#x166;" horiz-adv-x="677" 
d="M84 721v139h176v426h-227v148h612v-148h-227v-426h176v-139h-176v-721h-158v721h-176z" />
    <glyph glyph-name="tbar" unicode="&#x167;" horiz-adv-x="471" 
d="M10 801v129h107v215l149 33v-248h176v-129h-176v-277h174v-125h-174v-104q0 -101 22 -136.5t81 -35.5q21 0 75 6v-129q-52 -10 -102 -10q-120 0 -173.5 65.5t-53.5 214.5v129h-109v125h111v277h-107z" />
    <glyph glyph-name="Utilde" unicode="&#x168;" horiz-adv-x="804" 
d="M266 262q10 -83 42 -112t93 -29t94.5 29.5t43.5 111.5q8 63 8 242v930h158v-1000q0 -124 -13.5 -206t-47.5 -141t-93.5 -85.5t-149.5 -26.5t-148.5 26.5t-93 85t-48 141t-13.5 206.5v1000h160v-930q0 -179 8 -242zM164 1546q0 113 33.5 164t105.5 51q34 0 61.5 -10.5
t44.5 -25.5t31.5 -30t31 -25.5t34.5 -10.5q24 0 33.5 20t9.5 68h90q0 -110 -33.5 -160.5t-105.5 -50.5q-34 0 -61.5 10.5t-44.5 25t-32 29t-31 25t-34 10.5q-24 0 -33.5 -21t-9.5 -69h-90z" />
    <glyph glyph-name="utilde" unicode="&#x169;" horiz-adv-x="690" 
d="M285 -14q-103 0 -154 74.5t-51 256.5v613h149v-611q0 -121 21.5 -163.5t77.5 -42.5q65 0 97 45.5t32 158.5v613h147v-930h-121l-18 102q-46 -116 -180 -116zM115 1051q0 112 29.5 157t103.5 45q41 0 72 -15.5t46.5 -33.5t36 -33.5t41.5 -15.5q25 0 34 19.5t9 66.5h86
q0 -113 -30 -159t-105 -46q-41 0 -72 15.5t-46 34t-35 34t-41 15.5q-25 0 -34 -19.5t-9 -64.5h-86z" />
    <glyph glyph-name="Umacron" unicode="&#x16a;" horiz-adv-x="804" 
d="M266 262q10 -83 42 -112t93 -29t94.5 29.5t43.5 111.5q8 63 8 242v930h158v-1000q0 -124 -13.5 -206t-47.5 -141t-93.5 -85.5t-149.5 -26.5t-148.5 26.5t-93 85t-48 141t-13.5 206.5v1000h160v-930q0 -179 8 -242zM176 1546v131h451v-131h-451z" />
    <glyph glyph-name="umacron" unicode="&#x16b;" horiz-adv-x="690" 
d="M285 -14q-103 0 -154 74.5t-51 256.5v613h149v-611q0 -121 21.5 -163.5t77.5 -42.5q65 0 97 45.5t32 158.5v613h147v-930h-121l-18 102q-46 -116 -180 -116zM131 1044v115h426v-115h-426z" />
    <glyph glyph-name="Ubreve" unicode="&#x16c;" horiz-adv-x="804" 
d="M266 262q10 -83 42 -112t93 -29t94.5 29.5t43.5 111.5q8 63 8 242v930h158v-1000q0 -124 -13.5 -206t-47.5 -141t-93.5 -85.5t-149.5 -26.5t-148.5 26.5t-93 85t-48 141t-13.5 206.5v1000h160v-930q0 -179 8 -242zM401 1534q-104 0 -160 53t-71 162l100 18
q10 -66 40.5 -91t90.5 -25t90.5 25t40.5 91l101 -18q-15 -109 -71.5 -162t-160.5 -53z" />
    <glyph glyph-name="ubreve" unicode="&#x16d;" horiz-adv-x="690" 
d="M285 -14q-103 0 -154 74.5t-51 256.5v613h149v-611q0 -121 21.5 -163.5t77.5 -42.5q65 0 97 45.5t32 158.5v613h147v-930h-121l-18 102q-46 -116 -180 -116zM344 1030q-102 0 -156.5 52.5t-72.5 156.5l100 18q10 -63 39.5 -88.5t89.5 -25.5t89.5 25.5t39.5 88.5l100 -18
q-18 -104 -72.5 -156.5t-156.5 -52.5z" />
    <glyph glyph-name="Uring" unicode="&#x16e;" horiz-adv-x="804" 
d="M401 1499q-75 0 -124.5 45.5t-49.5 118.5t49.5 118.5t124.5 45.5t124.5 -45.5t49.5 -118.5t-49.5 -118.5t-124.5 -45.5zM401 1581q35 0 56.5 21.5t21.5 60.5t-21.5 60.5t-56.5 21.5t-56 -21.5t-21 -60.5t21 -60.5t56 -21.5zM266 262q10 -83 42 -112t93 -29t94.5 29.5
t43.5 111.5q8 63 8 242v930h158v-1000q0 -124 -13.5 -206t-47.5 -141t-93.5 -85.5t-149.5 -26.5t-148.5 26.5t-93 85t-48 141t-13.5 206.5v1000h160v-930q0 -179 8 -242z" />
    <glyph glyph-name="uring" unicode="&#x16f;" horiz-adv-x="690" 
d="M344 1030q-74 0 -123 44.5t-49 115.5t49 115.5t123 44.5t123 -44.5t49 -115.5t-49 -115.5t-123 -44.5zM344 1112q35 0 55.5 20.5t20.5 57.5t-20.5 57.5t-55.5 20.5t-55.5 -20.5t-20.5 -57.5t20.5 -57.5t55.5 -20.5zM285 -14q-103 0 -154 74.5t-51 256.5v613h149v-611
q0 -121 21.5 -163.5t77.5 -42.5q65 0 97 45.5t32 158.5v613h147v-930h-121l-18 102q-46 -116 -180 -116z" />
    <glyph glyph-name="Uhungarumlaut" unicode="&#x170;" horiz-adv-x="804" 
d="M229 1546l93 275h157l-131 -275h-119zM455 1546l92 275h158l-132 -275h-118zM266 262q10 -83 42 -112t93 -29t94.5 29.5t43.5 111.5q8 63 8 242v930h158v-1000q0 -124 -13.5 -206t-47.5 -141t-93.5 -85.5t-149.5 -26.5t-148.5 26.5t-93 85t-48 141t-13.5 206.5v1000h160
v-930q0 -179 8 -242z" />
    <glyph glyph-name="uhungarumlaut" unicode="&#x171;" horiz-adv-x="690" 
d="M285 -14q-103 0 -154 74.5t-51 256.5v613h149v-611q0 -121 21.5 -163.5t77.5 -42.5q65 0 97 45.5t32 158.5v613h147v-930h-121l-18 102q-46 -116 -180 -116zM170 1044l92 279h158l-133 -279h-117zM401 1044l95 279h157l-133 -279h-119z" />
    <glyph glyph-name="Uogonek" unicode="&#x172;" horiz-adv-x="804" 
d="M266 -182q0 42 18 78t60 84q-140 14 -193 120t-53 334v1000h160v-930q0 -179 8 -242q10 -83 42 -112t93 -29t94.5 29.5t43.5 111.5q8 63 8 242v930h158v-1000q0 -233 -56 -339t-205 -118q-42 -49 -54.5 -78.5t-12.5 -58.5q0 -38 19 -53.5t61 -15.5q16 0 32 2v-105
q-16 -2 -45 -2q-82 0 -130 42t-48 110z" />
    <glyph glyph-name="uogonek" unicode="&#x173;" horiz-adv-x="690" 
d="M285 -14q-103 0 -154 74.5t-51 256.5v613h149v-611q0 -121 21.5 -163.5t77.5 -42.5q65 0 97 45.5t32 158.5v613h147v-930q-62 -67 -81 -103t-19 -67q0 -42 16 -56t58 -14q16 0 26 2v-92q-16 -2 -39 -2q-164 0 -164 142q0 46 22.5 88.5t76.5 101.5h-17l-18 102
q-46 -116 -180 -116z" />
    <glyph glyph-name="Wcircumflex" unicode="&#x174;" horiz-adv-x="1159" 
d="M356 1546l146 275h155l146 -275h-113l-110 156l-111 -156h-113zM240 0l-201 1434h160l133 -1026l2 -39h4l2 39l168 1026h143l168 -1026l4 -39h2l2 39l134 1026h157l-200 -1434h-164l-168 1022l-4 37h-4l-5 -37l-167 -1022h-166z" />
    <glyph glyph-name="wcircumflex" unicode="&#x175;" horiz-adv-x="958" 
d="M258 1044l150 279h139l149 -279h-116l-103 160l-102 -160h-117zM203 0l-176 930h149l94 -561l17 -95h4l16 95l107 561h129l108 -561l17 -95h4l16 95l92 561h152l-176 -930h-146l-112 567l-19 92h-4l-16 -92l-111 -567h-145z" />
    <glyph glyph-name="Ycircumflex" unicode="&#x176;" horiz-adv-x="716" 
d="M281 0v664l-265 770h168l156 -519l18 -69l21 69l153 519h168l-262 -770v-664h-157zM135 1546l146 275h155l146 -275h-113l-111 156l-110 -156h-113z" />
    <glyph glyph-name="ycircumflex" unicode="&#x177;" horiz-adv-x="616" 
d="M51 -195q40 -4 55 -4q62 0 88.5 35t26.5 129q0 97 -35 252l-161 713h155l113 -600l18 -94h4l17 94l112 600h156l-207 -928q-16 -74 -28 -117.5t-30 -86t-38 -63.5t-52 -39t-71.5 -23.5t-97.5 -6.5zM92 1044l150 279h139l149 -279h-116l-103 160l-102 -160h-117z" />
    <glyph glyph-name="Ydieresis" unicode="&#x178;" horiz-adv-x="716" 
d="M281 0v664l-265 770h168l156 -519l18 -69l21 69l153 519h168l-262 -770v-664h-157zM137 1546v180h172v-180h-172zM408 1546v180h172v-180h-172z" />
    <glyph glyph-name="Zacute" unicode="&#x179;" horiz-adv-x="667" 
d="M41 0v123l408 1163h-402v148h571v-123l-407 -1164h416v-147h-586zM264 1546l107 275h180l-154 -275h-133z" />
    <glyph glyph-name="zacute" unicode="&#x17a;" horiz-adv-x="591" 
d="M227 1044l95 279h178l-146 -279h-127zM35 0v115l338 684h-332v131h498v-111l-336 -686h342v-133h-510z" />
    <glyph glyph-name="Zdotaccent" unicode="&#x17b;" horiz-adv-x="667" 
d="M246 1546v178h176v-178h-176zM41 0v123l408 1163h-402v148h571v-123l-407 -1164h416v-147h-586z" />
    <glyph glyph-name="zdotaccent" unicode="&#x17c;" horiz-adv-x="591" 
d="M35 0v115l338 684h-332v131h498v-111l-336 -686h342v-133h-510zM207 1044v179h168v-179h-168z" />
    <glyph glyph-name="Zcaron" unicode="&#x17d;" horiz-adv-x="667" 
d="M41 0v123l408 1163h-402v148h571v-123l-407 -1164h416v-147h-586zM256 1546l-145 275h112l111 -156l110 156h113l-145 -275h-156z" />
    <glyph glyph-name="zcaron" unicode="&#x17e;" horiz-adv-x="591" 
d="M221 1044l-149 279h116l103 -160l102 160h117l-150 -279h-139zM35 0v115l338 684h-332v131h498v-111l-336 -686h342v-133h-510z" />
    <glyph glyph-name="florin" unicode="&#x192;" horiz-adv-x="772" 
d="M178 791l31 139h108l56 256q30 135 99 197.5t194 62.5q33 0 51 -2l-29 -133h-22q-66 0 -95 -34.5t-53 -146.5l-45 -200h131l-31 -139h-129l-176 -824q-29 -138 -97 -201t-189 -63q-38 0 -56 4l29 133q8 -2 25 -2q65 0 93 35.5t50 138.5l166 779h-111z" />
    <glyph glyph-name="AEacute" unicode="&#x1fc;" horiz-adv-x="1030" 
d="M0 0l375 1434h614v-144h-373v-428h271v-145h-271v-570h373v-147h-524v268h-242l-65 -268h-158zM463 1243l-209 -844h211v844h-2zM426 1546l106 275h181l-154 -275h-133z" />
    <glyph glyph-name="aeacute" unicode="&#x1fd;" horiz-adv-x="1044" 
d="M451 1044l94 279h178l-145 -279h-127zM37 236q0 67 21 121.5t66 99.5t126.5 70t193.5 26v80q0 98 -23 140t-89 42q-60 0 -90 -38t-33 -128l-137 29q24 268 266 268q135 0 184 -94q64 94 191 94q108 0 174 -55q58 -49 79 -145t21 -302h-401q0 -158 8 -215q8 -60 35 -88
t84 -28q67 0 94 47t29 153l145 -30q-8 -142 -70 -220.5t-198 -78.5q-166 0 -221 129q-22 -57 -76.5 -92t-141.5 -35q-108 0 -172.5 63t-64.5 187zM594 702q-8 -66 -8 -149h250q-3 100 -9 149q-3 24 -7.5 40.5t-16 35.5t-35 29t-57.5 10q-55 0 -82 -28.5t-35 -86.5zM188 250
q0 -141 121 -141q63 0 99 37t36 108v190q-143 0 -199.5 -52.5t-56.5 -141.5z" />
    <glyph glyph-name="Oslashacute" unicode="&#x1fe;" horiz-adv-x="794" 
d="M328 1546l106 275h180l-153 -275h-133zM143 111l-10 22q-27 69 -38 205t-11 379q0 459 49 583q32 82 102.5 120t161.5 38q105 0 176 -47l25 72h111l-56 -164l9 -19q27 -69 38 -204.5t11 -378.5q0 -460 -49 -584q-32 -82 -102.5 -120t-162.5 -38q-103 0 -174 45l-24 -69
h-111zM248 717q0 -201 4 -293l260 825q-31 68 -115 68q-59 0 -90 -29.5t-43 -105.5q-16 -112 -16 -465zM549 717q0 149 -6 284l-260 -821q17 -35 44 -49t70 -14q59 0 90 29.5t43 105.5q19 133 19 465z" />
    <glyph glyph-name="oslashacute" unicode="&#x1ff;" horiz-adv-x="686" 
d="M82 -29l47 105q-36 51 -51 139.5t-15 249.5q0 192 22 284.5t81 141.5q65 55 176 55q86 0 143 -33l19 41h98l-45 -102q36 -52 51 -141t15 -246q0 -194 -22.5 -286.5t-80.5 -139.5q-66 -55 -178 -55q-84 0 -141 32l-21 -45h-98zM469 465q0 90 -4 188l-205 -510
q25 -28 82 -28q55 0 83 27.5t36 86.5q8 63 8 236zM217 465q0 -142 4 -191l205 512q-32 29 -84 29q-54 0 -81.5 -28t-35.5 -87q-8 -60 -8 -235zM279 1044l94 279h178l-145 -279h-127z" />
    <glyph glyph-name="uni0218" unicode="&#x218;" horiz-adv-x="708" 
d="M358 -25q-73 0 -126 19.5t-94 65.5t-63 129t-26 204l154 31q6 -130 22 -194t46 -87.5t89 -23.5q69 0 101.5 38.5t32.5 129.5q0 65 -12.5 117t-43.5 101t-59.5 82.5t-83.5 90.5q-122 125 -180 226.5t-58 234.5q0 156 79.5 237.5t221.5 81.5q67 0 118 -19.5t84 -53.5
t53.5 -86.5t29.5 -112t10 -135.5l-155 -29q-1 64 -3.5 104.5t-11 80.5t-23.5 61.5t-41.5 35t-64.5 13.5q-141 0 -141 -170q0 -34 6.5 -67t13.5 -57t26 -55.5t29 -47t39.5 -49t39.5 -44t45 -47.5q44 -45 62.5 -65.5t54 -62.5t52 -73.5t36.5 -77t28 -95.5t8 -107
q0 -152 -70.5 -238t-224.5 -86zM272 -76h144q4 -37 4 -80q0 -109 -39 -186h-123q23 74 23 164q0 50 -9 102z" />
    <glyph glyph-name="uni0219" unicode="&#x219;" horiz-adv-x="618" 
d="M238 -66h135q4 -39 4 -81q0 -108 -39 -177h-113q23 82 23 156q0 56 -10 102zM43 272l141 27q3 -102 34 -144t97 -42q57 0 85 25.5t28 84.5q0 29 -8 53.5t-19.5 40.5t-34.5 33.5t-41 28t-52 30t-56 33.5q-36 23 -60.5 42.5t-52 51t-41.5 74.5t-14 95q0 115 70.5 178
t189.5 63q127 0 190 -75t68 -209l-137 -25q-3 97 -31.5 139.5t-93.5 42.5q-112 0 -112 -110q0 -27 8.5 -49.5t20 -38t34.5 -33t40.5 -27.5t50.5 -28.5t52 -30.5q42 -26 69.5 -48t53.5 -54t38.5 -74.5t12.5 -96.5q0 -243 -254 -243q-126 0 -197.5 66t-78.5 220z" />
    <glyph glyph-name="uni021A" unicode="&#x21a;" horiz-adv-x="677" 
d="M262 -76h144q4 -37 4 -80q0 -109 -39 -186h-123q22 71 22 164q0 55 -8 102zM260 0v1286h-227v148h612v-148h-227v-1286h-158z" />
    <glyph glyph-name="uni021B" unicode="&#x21b;" horiz-adv-x="471" 
d="M205 -66h135q4 -39 4 -81q0 -108 -39 -177h-112q22 79 22 156q0 56 -10 102zM10 801v129h107v215l149 33v-248h176v-129h-176v-506q0 -101 22 -136.5t81 -35.5q21 0 75 6v-129q-52 -10 -102 -10q-120 0 -173.5 65.5t-53.5 214.5q0 9 0.5 100t1 215.5t0.5 215.5h-107z" />
    <glyph glyph-name="circumflex" unicode="&#x2c6;" 
d="M293 1044l149 279h140l149 -279h-117l-102 160l-102 -160h-117z" />
    <glyph glyph-name="caron" unicode="&#x2c7;" 
d="M442 1044l-149 279h117l102 -160l102 160h117l-149 -279h-140z" />
    <glyph glyph-name="breve" unicode="&#x2d8;" 
d="M512 1030q-102 0 -156.5 52.5t-72.5 156.5l100 18q10 -63 39.5 -88.5t89.5 -25.5t89.5 25.5t39.5 88.5l100 -18q-18 -104 -72.5 -156.5t-156.5 -52.5z" />
    <glyph glyph-name="dotaccent" unicode="&#x2d9;" 
d="M428 1044v179h168v-179h-168z" />
    <glyph glyph-name="ring" unicode="&#x2da;" 
d="M512 1030q-74 0 -123 44.5t-49 115.5t49 115.5t123 44.5t123 -44.5t49 -115.5t-49 -115.5t-123 -44.5zM512 1112q35 0 55.5 20.5t20.5 57.5t-20.5 57.5t-55.5 20.5t-55.5 -20.5t-20.5 -57.5t20.5 -57.5t55.5 -20.5z" />
    <glyph glyph-name="ogonek" unicode="&#x2db;" 
d="M426 -190q0 46 21.5 89t74.5 101h103q-59 -67 -77 -103t-18 -67q0 -42 15.5 -56t56.5 -14q17 0 29 2v-92q-12 -2 -33 -2q-85 0 -128.5 33.5t-43.5 108.5z" />
    <glyph glyph-name="tilde" unicode="&#x2dc;" 
d="M283 1051q0 112 29.5 157t103.5 45q41 0 72 -15.5t46.5 -33.5t36 -33.5t41.5 -15.5q25 0 34 19.5t9 66.5h86q0 -113 -30 -159t-105 -46q-41 0 -72 15.5t-46 34t-35 34t-41 15.5q-25 0 -34 -19.5t-9 -64.5h-86z" />
    <glyph glyph-name="hungarumlaut" unicode="&#x2dd;" 
d="M338 1044l92 279h158l-133 -279h-117zM569 1044l95 279h157l-133 -279h-119z" />
    <glyph glyph-name="Wgrave" unicode="&#x1e80;" horiz-adv-x="1159" 
d="M512 1546l-154 275h181l106 -275h-133zM240 0l-201 1434h160l133 -1026l2 -39h4l2 39l168 1026h143l168 -1026l4 -39h2l2 39l134 1026h157l-200 -1434h-164l-168 1022l-4 37h-4l-5 -37l-167 -1022h-166z" />
    <glyph glyph-name="wgrave" unicode="&#x1e81;" horiz-adv-x="958" 
d="M203 0l-176 930h149l94 -561l17 -95h4l16 95l107 561h129l108 -561l17 -95h4l16 95l92 561h152l-176 -930h-146l-112 567l-19 92h-4l-16 -92l-111 -567h-145zM416 1044l-146 279h179l94 -279h-127z" />
    <glyph glyph-name="Wacute" unicode="&#x1e82;" horiz-adv-x="1159" 
d="M510 1546l106 275h181l-154 -275h-133zM240 0l-201 1434h160l133 -1026l2 -39h4l2 39l168 1026h143l168 -1026l4 -39h2l2 39l134 1026h157l-200 -1434h-164l-168 1022l-4 37h-4l-5 -37l-167 -1022h-166z" />
    <glyph glyph-name="wacute" unicode="&#x1e83;" horiz-adv-x="958" 
d="M414 1044l94 279h178l-145 -279h-127zM203 0l-176 930h149l94 -561l17 -95h4l16 95l107 561h129l108 -561l17 -95h4l16 95l92 561h152l-176 -930h-146l-112 567l-19 92h-4l-16 -92l-111 -567h-145z" />
    <glyph glyph-name="Wdieresis" unicode="&#x1e84;" horiz-adv-x="1159" 
d="M240 0l-201 1434h160l133 -1026l2 -39h4l2 39l168 1026h143l168 -1026l4 -39h2l2 39l134 1026h157l-200 -1434h-164l-168 1022l-4 37h-4l-5 -37l-167 -1022h-166zM358 1546v180h172v-180h-172zM629 1546v180h172v-180h-172z" />
    <glyph glyph-name="wdieresis" unicode="&#x1e85;" horiz-adv-x="958" 
d="M270 1044v179h160v-179h-160zM524 1044v179h160v-179h-160zM203 0l-176 930h149l94 -561l17 -95h4l16 95l107 561h129l108 -561l17 -95h4l16 95l92 561h152l-176 -930h-146l-112 567l-19 92h-4l-16 -92l-111 -567h-145z" />
    <glyph glyph-name="Ygrave" unicode="&#x1ef2;" horiz-adv-x="716" 
d="M281 0v664l-265 770h168l156 -519l18 -69l21 69l153 519h168l-262 -770v-664h-157zM291 1546l-154 275h180l107 -275h-133z" />
    <glyph glyph-name="ygrave" unicode="&#x1ef3;" horiz-adv-x="616" 
d="M51 -195q40 -4 55 -4q62 0 88.5 35t26.5 129q0 97 -35 252l-161 713h155l113 -600l18 -94h4l17 94l112 600h156l-207 -928q-16 -74 -28 -117.5t-30 -86t-38 -63.5t-52 -39t-71.5 -23.5t-97.5 -6.5zM250 1044l-146 279h179l94 -279h-127z" />
    <glyph glyph-name="endash" unicode="&#x2013;" horiz-adv-x="700" 
d="M98 582v133h504v-133h-504z" />
    <glyph glyph-name="emdash" unicode="&#x2014;" horiz-adv-x="1077" 
d="M109 580v135h860v-135h-860z" />
    <glyph glyph-name="quoteleft" unicode="&#x2018;" horiz-adv-x="374" 
d="M207 1456l63 -22l-67 -217h73v-183h-176v156z" />
    <glyph glyph-name="quoteright" unicode="&#x2019;" horiz-adv-x="374" 
d="M168 1012l-64 22l68 217h-74v183h176v-156z" />
    <glyph glyph-name="quotesinglbase" unicode="&#x201a;" horiz-adv-x="374" 
d="M168 -240l-64 23l68 217h-74v182h176v-155z" />
    <glyph glyph-name="quotedblleft" unicode="&#x201c;" horiz-adv-x="618" 
d="M451 1456l63 -22l-68 -217h74v-183h-176v156zM205 1456l63 -22l-65 -217h71v-183h-176v156z" />
    <glyph glyph-name="quotedblright" unicode="&#x201d;" horiz-adv-x="618" 
d="M168 1012l-64 22l68 217h-74v183h176v-156zM414 1012l-64 22l66 217h-72v183h176v-156z" />
    <glyph glyph-name="quotedblbase" unicode="&#x201e;" horiz-adv-x="618" 
d="M168 -240l-64 23l68 217h-74v182h176v-155zM414 -240l-64 23l66 217h-72v182h176v-155z" />
    <glyph glyph-name="dagger" unicode="&#x2020;" horiz-adv-x="616" 
d="M39 866v152h194v440h150v-440h195v-152h-195v-891h-150v891h-194z" />
    <glyph glyph-name="daggerdbl" unicode="&#x2021;" horiz-adv-x="647" 
d="M53 1016v147h195v434h149v-434h195v-147h-195v-598h195v-148h-195v-438h-149v438h-195v148h195v598h-195z" />
    <glyph glyph-name="bullet" unicode="&#x2022;" horiz-adv-x="747" 
d="M373 514q-89 0 -149 60t-60 153t60 152t149 59t150 -59.5t61 -151.5q0 -93 -61 -153t-150 -60z" />
    <glyph glyph-name="ellipsis" unicode="&#x2026;" horiz-adv-x="1212" 
d="M123 0v182h176v-182h-176zM518 0v182h176v-182h-176zM911 0v182h176v-182h-176z" />
    <glyph glyph-name="guilsinglleft" unicode="&#x2039;" horiz-adv-x="409" 
d="M211 465l143 -375h-147l-154 375l154 375h147z" />
    <glyph glyph-name="guilsinglright" unicode="&#x203a;" horiz-adv-x="409" 
d="M55 90l144 375l-144 375h148l153 -375l-153 -375h-148z" />
    <glyph glyph-name="fraction" unicode="&#x2044;" horiz-adv-x="788" 
d="M-31 0l740 1434h112l-739 -1434h-113z" />
    <glyph glyph-name="Euro" unicode="&#x20ac;" horiz-adv-x="788" 
d="M12 805v123h113q6 275 45 372q62 158 262 158q155 0 222.5 -83.5t72.5 -244.5l-156 -34q-6 128 -33 174.5t-110 46.5q-58 0 -89.5 -28t-41.5 -103q-11 -92 -14 -258h335l-26 -123h-311v-168h278l-27 -123h-249q3 -174 14 -266q10 -75 41.5 -103t89.5 -28q81 0 109 45
t34 176l156 -35q-4 -170 -78 -249t-217 -79q-200 0 -262 158q-41 95 -47 381h-111v123h113v168h-113z" />
    <glyph glyph-name="uni20b9" unicode="&#x20b9;" horiz-adv-x="868" 
d="M70 987v125h442q-6 116 -52.5 156.5t-172.5 40.5h-217v125h741v-125h-184l-2 -2q43 -59 49 -195h137v-125h-139q-8 -94 -38 -151t-89 -86v-5q37 -14 61 -37t36.5 -58t17 -74.5t4.5 -96.5q0 -313 12 -479h-158q-10 145 -10 455q0 122 -34.5 165.5t-135.5 43.5h-268v124
h217q125 0 172 41t53 158h-442z" />
    <glyph glyph-name="numero" unicode="&#x2116;" horiz-adv-x="1261" 
d="M1065 805q-76 0 -125 37q-44 33 -60 96.5t-16 185.5q0 125 16.5 188t59.5 95q46 35 125 35q78 0 127 -35q43 -32 59.5 -95t16.5 -188q0 -124 -16.5 -187t-59.5 -95q-48 -37 -127 -37zM1065 903q63 0 72 70q4 31 4 151q0 119 -4 152q-9 67 -72 67q-61 0 -70 -67
q-6 -50 -6 -150q0 -110 6 -153q9 -70 70 -70zM909 621v86h314v-86h-314zM102 0v1434h160l311 -1008v1008h154v-1434h-160l-309 1008v-1008h-156z" />
    <glyph glyph-name="trademark" unicode="&#x2122;" horiz-adv-x="993" 
d="M432 819v615h154l88 -437h4l88 437h154v-615h-91v492h-4l-110 -492h-78l-109 492h-4v-492h-92zM137 819v520h-123v95h348v-95h-122v-520h-103z" />
    <glyph glyph-name="minus" unicode="&#x2212;" horiz-adv-x="808" 
d="M104 657v136h601v-136h-601z" />
    <glyph glyph-name="CR" horiz-adv-x="307" 
 />
    <glyph glyph-name="hyphen.case" horiz-adv-x="577" 
d="M98 653v138h379v-138h-379z" />
    <glyph glyph-name="endash.case" horiz-adv-x="700" 
d="M98 653v133h504v-133h-504z" />
    <glyph glyph-name="emdash.case" horiz-adv-x="1077" 
d="M109 651v135h860v-135h-860z" />
    <glyph glyph-name="guillemotleft.case" horiz-adv-x="681" 
d="M485 723l142 -375h-140l-153 375l153 375h140zM205 723l143 -375h-141l-154 375l154 375h141z" />
    <glyph glyph-name="guillemotright.case" horiz-adv-x="681" 
d="M55 348l142 375l-142 375h140l153 -375l-153 -375h-140zM334 348l143 375l-143 375h141l154 -375l-154 -375h-141z" />
    <glyph glyph-name="guilsinglleft.case" horiz-adv-x="409" 
d="M211 723l143 -375h-147l-154 375l154 375h147z" />
    <glyph glyph-name="guilsinglright.case" horiz-adv-x="409" 
d="M55 348l144 375l-144 375h148l153 -375l-153 -375h-148z" />
    <glyph glyph-name="at.case" horiz-adv-x="1247" 
d="M326 451q0 91 32 245q23 110 49 187.5t50.5 122t56 69.5t58 32t63.5 7q124 0 143 -82l29 70h127l-105 -481q-12 -62 -12 -132q0 -143 111 -143q76 0 113.5 96t37.5 326q0 127 -13 228.5t-43.5 189t-79.5 146t-123 91.5t-171 33q-255 0 -369 -183.5t-114 -582.5
q0 -162 21.5 -283.5t59 -200t95.5 -127t124.5 -68t151.5 -19.5q191 0 304 65l39 -80q-128 -73 -340 -73q-99 0 -178 22t-149.5 77t-117.5 143t-74.5 226t-27.5 320q0 452 139 651t438 199q143 0 245.5 -54t161.5 -157.5t86 -238t27 -310.5q0 -274 -61 -395t-186 -121
q-78 0 -132 41.5t-67 134.5q-33 -89 -85.5 -127.5t-135.5 -38.5q-84 0 -131 42.5t-47 132.5zM465 475q0 -41 18 -59.5t56 -18.5q53 0 81.5 35t55.5 127q23 81 33 137q30 153 30 205q0 50 -19.5 71t-62.5 21q-51 0 -73 -29.5t-47 -117.5q-21 -73 -35 -148q-37 -178 -37 -223z
" />
    <glyph glyph-name="parenleft.case" horiz-adv-x="483" 
d="M453 -25l-115 -28q-244 356 -244 760q0 239 70.5 429t179.5 322h117q-105 -167 -163 -347.5t-58 -405.5q0 -173 47 -348t166 -382z" />
    <glyph glyph-name="parenright.case" horiz-adv-x="483" 
d="M31 -25q119 207 166 382t47 348q0 225 -58 405.5t-163 347.5h116q109 -132 179.5 -322t70.5 -429q0 -404 -244 -760z" />
    <glyph glyph-name="bracketleft.case" horiz-adv-x="514" 
d="M492 98v-123h-338v1483h338v-123h-195v-1237h195z" />
    <glyph glyph-name="bracketright.case" horiz-adv-x="514" 
d="M23 -25v123h194v1237h-194v123h337v-1483h-337z" />
    <glyph glyph-name="braceleft.case" horiz-adv-x="548" 
d="M528 98v-123h-139q-109 0 -154 43.5t-45 151.5v342q0 82 -22.5 110.5t-99.5 28.5v137q76 0 99 29t23 109v338q0 108 45 151t154 43h139v-123h-116q-44 0 -61 -16.5t-17 -61.5v-372q0 -77 -23 -114t-82 -52q59 -13 82 -50.5t23 -113.5v-379q0 -45 17 -61.5t61 -16.5h116z
" />
    <glyph glyph-name="braceright.case" horiz-adv-x="548" 
d="M20 -25v123h117q44 0 61 16.5t17 61.5v379q0 77 22.5 114t81.5 50q-59 15 -81.5 51.5t-22.5 114.5v372q0 45 -17 61.5t-61 16.5h-117v123h140q109 0 153.5 -43t44.5 -151v-338q0 -80 23 -109t100 -29v-137q-77 0 -100 -29t-23 -110v-342q0 -108 -44.5 -151.5
t-153.5 -43.5h-140z" />
    <glyph glyph-name="grave.case" 
d="M444 1546l-153 275h180l107 -275h-134z" />
    <glyph glyph-name="acute.case" 
d="M442 1546l107 275h180l-154 -275h-133z" />
    <glyph glyph-name="circumflex.case" 
d="M289 1546l145 275h156l145 -275h-112l-111 156l-111 -156h-112z" />
    <glyph glyph-name="dieresis.case" 
d="M291 1546v180h172v-180h-172zM561 1546v180h172v-180h-172z" />
    <glyph glyph-name="tilde.case" 
d="M274 1546q0 113 33.5 164t106.5 51q42 0 74 -16t48 -35t37 -35t43 -16q24 0 33.5 20t9.5 68h91q0 -110 -34 -160.5t-106 -50.5q-42 0 -74 15.5t-48.5 34.5t-37.5 34.5t-42 15.5q-24 0 -33.5 -21t-9.5 -69h-91z" />
    <glyph glyph-name="caron.case" 
d="M434 1546l-145 275h112l111 -156l111 156h112l-145 -275h-156z" />
    <glyph glyph-name="ring.case" 
d="M512 1499q-75 0 -124.5 45.5t-49.5 118.5t49.5 118.5t124.5 45.5t124.5 -45.5t49.5 -118.5t-49.5 -118.5t-124.5 -45.5zM512 1581q35 0 56.5 21.5t21.5 60.5t-21.5 60.5t-56.5 21.5t-56.5 -21.5t-21.5 -60.5t21.5 -60.5t56.5 -21.5z" />
    <glyph glyph-name="breve.case" 
d="M512 1534q-104 0 -160 53t-71 162l100 18q10 -66 40.5 -91t90.5 -25t90.5 25t40.5 91l100 -18q-15 -109 -71 -162t-160 -53z" />
    <glyph glyph-name="macron.case" 
d="M287 1546v131h450v-131h-450z" />
    <glyph glyph-name="dotaccent.case" 
d="M424 1546v178h176v-178h-176z" />
    <glyph glyph-name="hungarumlaut.case" 
d="M340 1546l92 275h158l-131 -275h-119zM565 1546l92 275h158l-131 -275h-119z" />
    <glyph glyph-name="cedilla.case" 
d="M358 -252q68 -14 121 -14t70.5 13t17.5 44q0 32 -21.5 41.5t-101.5 9.5h-20l47 158h68l-25 -86q90 -2 138 -30t48 -95q0 -69 -49 -101t-164 -32q-69 0 -129 14v78z" />
    <glyph glyph-name="ogonek.case" 
d="M377 -182q0 47 21 84.5t75 97.5h102q-55 -62 -71.5 -95.5t-16.5 -64.5q0 -38 19 -53.5t61 -15.5q17 0 33 2v-105q-16 -2 -45 -2q-82 0 -130 42t-48 110z" />
    <glyph glyph-name="commaaccent.case" 
d="M434 -76h144q4 -37 4 -80q0 -109 -39 -186h-123q22 71 22 164q0 55 -8 102z" />
    <glyph glyph-name="uni030C.alt" 
d="M432 1094q23 118 23 209q0 63 -11 131h131q11 -68 11 -127q0 -111 -31 -213h-123z" />
    <glyph glyph-name="commaaccent" 
d="M440 -66h135q5 -49 5 -81q0 -108 -39 -177h-113q23 82 23 156q0 51 -11 102z" />
    <glyph glyph-name="i.trk" horiz-adv-x="321" 
d="M86 0v930h150v-930h-150zM74 1106v180h174v-180h-174z" />
    </font>
</defs>
</svg>
