<?xml version="1.0" standalone="no"?>
<!DOCTYPE svg PUBLIC "-//W3C//DTD SVG 1.1//EN" "http://www.w3.org/Graphics/SVG/1.1/DTD/svg11.dtd" >
<svg xmlns="http://www.w3.org/2000/svg" xmlns:xlink="http://www.w3.org/1999/xlink" version="1.1">
<metadata>
Created by FontForge 20201107 at Mon Mar 31 16:45:47 2025
 By 
Copyright (c) 2011 by James Puckett. All rights reserved.
</metadata>
<defs>
<font id="LorimerNo2TrialCondensedBold" horiz-adv-x="1024" >
  <font-face 
    font-family="Lorimer No 2 Trial Condensed"
    font-weight="700"
    font-stretch="condensed"
    units-per-em="2048"
    panose-1="1 0 0 0 0 0 0 0 0 0"
    ascent="1638"
    descent="-410"
    x-height="983"
    cap-height="1434"
    bbox="-68 -365 1481 1864"
    underline-thickness="102"
    underline-position="-204"
    unicode-range="U+0020-2212"
  />
<missing-glyph 
d="M147 0v1434h730v-1434h-730zM205 145l274 572l-274 571v-1143zM225 57h572l-287 592zM510 784l287 592h-572zM819 145v1143l-276 -571z" />
    <glyph glyph-name=".notdef" 
d="M147 0v1434h730v-1434h-730zM205 145l274 572l-274 571v-1143zM225 57h572l-287 592zM510 784l287 592h-572zM819 145v1143l-276 -571z" />
    <glyph glyph-name=".null" horiz-adv-x="0" 
 />
    <glyph glyph-name="nonmarkingreturn" horiz-adv-x="682" 
 />
    <glyph glyph-name="space" unicode=" " horiz-adv-x="411" 
 />
    <glyph glyph-name="exclam" unicode="!" horiz-adv-x="503" 
d="M109 0v299h286v-299h-286zM160 504l-72 930h328l-72 -930h-184z" />
    <glyph glyph-name="quotedbl" unicode="&#x22;" horiz-adv-x="823" 
d="M135 735l-45 699h281l-45 -699h-191zM500 735l-45 699h280l-45 -699h-190z" />
    <glyph glyph-name="numbersign" unicode="#" horiz-adv-x="1275" 
d="M127 877l35 167h235l82 390h199l-84 -390h219l84 390h197l-82 -390h237l-37 -167h-237l-62 -299h236l-35 -168h-237l-86 -410h-199l86 410h-219l-86 -410h-197l86 410h-233l34 168h236l61 299h-233zM559 877l-63 -299h219l63 299h-219z" />
    <glyph glyph-name="dollar" unicode="$" horiz-adv-x="845" 
d="M537 1624v-215q122 -34 179.5 -138.5t67.5 -275.5l-254 -53q-6 147 -29 205.5t-85 58.5q-99 0 -99 -114q0 -33 10 -63t22.5 -52t46 -56t55.5 -54t77 -68q72 -62 111 -101.5t78 -94t55 -113.5t16 -134q0 -143 -67.5 -227.5t-183.5 -110.5v-208h-228v213q-235 62 -252 428
l252 53q2 -109 16.5 -169.5t39 -82t65.5 -21.5q47 0 69.5 27.5t22.5 85.5q0 76 -48.5 142.5t-164.5 168.5q-37 33 -55.5 50t-50.5 49.5t-48 54.5t-38 56t-32.5 65t-18 71.5t-7.5 83.5q0 127 63 215t187 115v209h228z" />
    <glyph glyph-name="percent" unicode="%" horiz-adv-x="1361" 
d="M311 682q-142 0 -203 90t-61 295t61 295t203 90t203 -90t61 -295t-61 -295t-203 -90zM311 829q33 0 49.5 18.5t23.5 68.5t7 151t-7 151.5t-23.5 69.5t-49.5 19t-49.5 -19t-23.5 -69.5t-7 -151.5t7 -151t23.5 -68.5t49.5 -18.5zM786 367q0 205 61.5 295t203.5 90t203 -90
t61 -295t-61 -295t-203 -90t-203.5 90t-61.5 295zM971 367q0 -101 7 -151.5t23.5 -69.5t49.5 -19q48 0 63.5 46t15.5 194q0 102 -7 151t-23 67.5t-49 18.5t-49 -18t-23.5 -68t-7.5 -151zM233 0l740 1434h153l-739 -1434h-154z" />
    <glyph glyph-name="ampersand" unicode="&#x26;" horiz-adv-x="983" 
d="M342 -25q-161 0 -237 95t-76 288q0 127 33.5 222.5t87.5 154t135 105.5q-78 187 -78 317q0 146 78.5 222.5t212.5 76.5q140 0 209 -79.5t69 -217.5q0 -227 -207 -352l115 -238q32 68 77.5 124.5t94.5 84.5l133 -192q-111 -71 -209 -215l181 -371h-287l-62 129
q-48 -79 -108 -116.5t-162 -37.5zM451 1163q0 -98 57 -227q55 28 76.5 76t21.5 127q0 72 -18 105.5t-60 33.5q-41 0 -59 -28t-18 -87zM410 188q42 0 70 28t52 89l-170 369q-71 -90 -71 -262q0 -224 119 -224z" />
    <glyph glyph-name="quotesingle" unicode="'" horiz-adv-x="475" 
d="M135 735l-45 699h295l-45 -699h-205z" />
    <glyph glyph-name="parenleft" unicode="(" horiz-adv-x="567" 
d="M530 -270l-192 -47q-248 422 -248 907q0 278 68 498.5t172 369.5h219q-108 -201 -164.5 -408.5t-56.5 -471.5q0 -201 42.5 -401t159.5 -447z" />
    <glyph glyph-name="parenright" unicode=")" horiz-adv-x="567" 
d="M37 -270q118 248 160.5 448t42.5 400q0 263 -56.5 471t-165.5 409h220q103 -148 171 -369t68 -499q0 -485 -248 -907z" />
    <glyph glyph-name="asterisk" unicode="*" horiz-adv-x="845" 
d="M326 1458h194l-26 -284l262 114l61 -186l-282 -64l190 -215l-158 -112l-145 245l-148 -245l-155 114l188 213l-278 66l61 184l260 -114z" />
    <glyph glyph-name="plus" unicode="+" horiz-adv-x="888" 
d="M338 371v252h-236v206h236v250h213v-250h235v-206h-235v-252h-213z" />
    <glyph glyph-name="comma" unicode="," horiz-adv-x="475" 
d="M92 0v299h291v-254l-170 -391l-109 24l109 322h-121z" />
    <glyph glyph-name="hyphen" unicode="-" horiz-adv-x="636" 
d="M94 580v231h449v-231h-449z" />
    <glyph glyph-name="period" unicode="." horiz-adv-x="473" 
d="M92 0v299h289v-299h-289z" />
    <glyph glyph-name="slash" unicode="/" horiz-adv-x="813" 
d="M0 -154l596 1639h207l-596 -1639h-207z" />
    <glyph glyph-name="zero" unicode="0" horiz-adv-x="899" 
d="M129 139q-34 68 -47.5 206t-13.5 372t13.5 371.5t47.5 205.5q81 166 322 166q238 0 319 -166q33 -70 47 -202.5t14 -374.5t-14 -375t-47 -203q-81 -166 -319 -166q-241 0 -322 166zM360 295q7 -52 29 -72t62 -20q39 0 60 20t28 72q14 98 14 422t-14 422q-7 52 -28 72
t-60 20q-40 0 -62 -20t-29 -72q-14 -122 -14 -422q0 -324 14 -422z" />
    <glyph glyph-name="one" unicode="1" horiz-adv-x="555" 
d="M162 0v1169l-109 -18l-51 205l227 82h211v-1438h-278z" />
    <glyph glyph-name="two" unicode="2" horiz-adv-x="821" 
d="M23 0v184q72 96 100.5 135.5t91.5 129t92 138t73 127t64 133t36 119.5t16 121q0 76 -21.5 111t-71.5 35q-63 0 -87 -53.5t-25 -206.5l-262 55q20 432 387 432q171 0 259.5 -100.5t88.5 -265.5q0 -363 -432 -844h440v-250h-749z" />
    <glyph glyph-name="three" unicode="3" horiz-adv-x="843" 
d="M98 125q-45 84 -55 305l266 57q6 -162 21 -223q14 -61 82 -61q32 0 55 18.5t31 73.5q10 77 10 174q0 19 -1 68t-1 67q-2 44 -12 69t-39.5 39t-68 18t-110.5 5l-28 150l237 313h-438v236h727v-185l-227 -331q49 -6 87.5 -25.5t64 -51.5t43 -70.5t27 -88.5t13.5 -98t4 -105
q0 -232 -53 -340q-42 -84 -128.5 -125t-192.5 -41q-107 0 -191 37t-123 115z" />
    <glyph glyph-name="four" unicode="4" horiz-adv-x="913" 
d="M63 373l-45 215l439 846h309v-856h113v-205h-113v-373h-272v373h-431zM479 1049l-229 -471h248l4 509l-6 3z" />
    <glyph glyph-name="five" unicode="5" horiz-adv-x="851" 
d="M102 125q-41 78 -55 305l266 57q0 -30 6 -110t15 -113q16 -61 80 -61q42 0 63 23.5t27 68.5q12 74 12 180t-8 174q-7 52 -26 78.5t-66 26.5q-65 0 -90 -64l-260 55l38 689h674l-49 -236h-395l-12 -291q60 54 165 54q157 0 232.5 -116.5t75.5 -377.5q0 -220 -58 -330
q-44 -83 -129 -123.5t-192 -40.5t-191.5 38.5t-122.5 113.5z" />
    <glyph glyph-name="six" unicode="6" horiz-adv-x="876" 
d="M125 139q-34 72 -48 207t-14 375q0 232 13.5 366.5t48.5 206.5q81 166 321 166q242 0 320 -166q27 -57 47 -209l-268 -59q-3 65 -10 115q-7 54 -28 73t-61 19q-39 0 -61.5 -19.5t-30.5 -72.5q-10 -67 -14 -277q106 64 215 64q141 0 205.5 -99.5t64.5 -326.5
q0 -242 -59 -363q-81 -166 -320 -166q-241 0 -321 166zM446 725q-55 0 -106 -33q0 -309 14 -401q8 -55 28 -72.5t58 -17.5q45 0 67.5 20t31.5 70q12 73 12 215q0 124 -20.5 171.5t-84.5 47.5z" />
    <glyph glyph-name="seven" unicode="7" horiz-adv-x="772" 
d="M166 0q14 343 98.5 658t224.5 538h-466v238h733v-185q-146 -271 -218 -562.5t-87 -686.5h-285z" />
    <glyph glyph-name="eight" unicode="8" horiz-adv-x="864" 
d="M47 362q0 132 54 227.5t147 149.5q-84 79 -131 163.5t-47 199.5q0 156 94 257t272 101q177 0 268 -99t91 -253q0 -204 -181 -344q92 -80 145.5 -174t53.5 -228q0 -113 -39 -198.5t-125.5 -138t-212.5 -52.5q-178 0 -283.5 101.5t-105.5 287.5zM543 340q0 58 -23 111.5
t-55 90t-82 81.5q-84 -94 -84 -236q0 -188 129 -188q115 0 115 141zM326 1120q0 -72 36.5 -126t108.5 -113q84 91 84 213q0 159 -117 159q-54 0 -83 -36t-29 -97z" />
    <glyph glyph-name="nine" unicode="9" horiz-adv-x="882" 
d="M115 139q-26 55 -47 213l268 58q3 -86 8 -115q10 -56 30.5 -74t57.5 -18q40 0 62.5 19.5t29.5 72.5q12 90 15 274q-89 -59 -215 -59q-141 0 -205 98t-64 324q0 239 60 362q80 166 319 166q242 0 322 -166q34 -71 47.5 -205.5t13.5 -367.5q0 -236 -13.5 -373.5
t-47.5 -208.5q-80 -166 -322 -166t-319 166zM432 709q62 0 109 30q0 290 -17 406q-7 52 -27.5 71t-60.5 19q-42 0 -63.5 -20.5t-30.5 -69.5q-12 -73 -12 -219q0 -122 20 -169.5t82 -47.5z" />
    <glyph glyph-name="colon" unicode=":" horiz-adv-x="485" 
d="M98 0v299h289v-299h-289zM98 594v299h289v-299h-289z" />
    <glyph glyph-name="semicolon" unicode=";" horiz-adv-x="485" 
d="M98 0v299h291v-254l-170 -391l-108 24l108 322h-121zM98 594v299h289v-299h-289z" />
    <glyph glyph-name="less" unicode="&#x3c;" horiz-adv-x="913" 
d="M84 612v226l731 368v-245l-487 -236l487 -236v-245z" />
    <glyph glyph-name="equal" unicode="=" horiz-adv-x="888" 
d="M102 811v207h684v-207h-684zM102 434v207h684v-207h-684z" />
    <glyph glyph-name="greater" unicode="&#x3e;" horiz-adv-x="913" 
d="M829 838v-226l-731 -368v245l488 236l-488 236v245z" />
    <glyph glyph-name="question" unicode="?" horiz-adv-x="798" 
d="M276 459q0 115 32 194.5t108 188.5q51 74 69.5 118.5t18.5 116.5q0 79 -24.5 114.5t-84.5 35.5q-62 0 -92 -43t-37 -154l-241 53q44 375 383 375q162 0 259 -86.5t97 -261.5q0 -78 -20.5 -146t-51 -113.5t-66.5 -93.5t-67 -88t-52 -95t-22 -115h-209zM233 0v299h291v-299
h-291z" />
    <glyph glyph-name="at" unicode="@" horiz-adv-x="1482" 
d="M623 348q0 -28 12 -40.5t39 -12.5q34 0 53.5 21.5t36.5 80.5q21 92 31 140q28 137 28 186q0 34 -12 47.5t-41 13.5q-33 0 -50 -21t-32 -79q-28 -116 -33 -139q-32 -146 -32 -197zM410 307q0 91 32 236q33 161 75 251.5t91 124t121 33.5q108 0 137 -65l23 55h198
l-106 -491q-10 -51 -10 -99q0 -123 106 -123q91 0 137 97t46 309q0 655 -484 655q-279 0 -416 -201t-137 -579q0 -151 23.5 -265.5t66.5 -191t108.5 -124.5t144.5 -68.5t179 -20.5q210 0 349 92l73 -131q-170 -106 -424 -106q-121 0 -219 24t-184 82.5t-144 150t-91 232.5
t-33 324q0 162 23 298.5t75.5 254t133 199t201 128t273.5 46.5q168 0 291.5 -56t197 -160.5t109 -243t35.5 -315.5q0 -557 -348 -557q-204 0 -246 160q-55 -141 -221 -141q-186 0 -186 186z" />
    <glyph glyph-name="A" unicode="A" horiz-adv-x="845" 
d="M4 0l250 1434h338l248 -1434h-271l-28 203h-238l-29 -203h-270zM410 969l-82 -584h188l-82 584l-10 84h-4z" />
    <glyph glyph-name="B" unicode="B" horiz-adv-x="915" 
d="M88 0v1434h295q176 0 277.5 -39t142.5 -115.5t41 -204.5q0 -240 -150 -309v-4q93 -25 131.5 -109t38.5 -233q0 -231 -94 -325.5t-328 -94.5h-354zM352 238h82q90 0 123 41t33 163q0 110 -35 149.5t-141 39.5h-62v-393zM352 829h45q99 0 136.5 42.5t37.5 150.5
q0 103 -33.5 139.5t-127.5 36.5h-58v-369z" />
    <glyph glyph-name="C" unicode="C" horiz-adv-x="882" 
d="M129 139q-63 131 -63 578q0 446 63 577q39 81 125.5 123.5t200.5 42.5q103 0 189 -35.5t128 -109.5q48 -83 62 -283l-275 -57q-3 142 -18 190q-19 66 -84 66q-43 0 -64.5 -21t-30.5 -75q-16 -91 -16 -418t16 -418q9 -54 30.5 -75t64.5 -21q68 0 86 67q16 60 18 211
l275 -57q-12 -217 -64 -305q-40 -70 -125 -108t-192 -38q-114 0 -200.5 42.5t-125.5 123.5z" />
    <glyph glyph-name="D" unicode="D" horiz-adv-x="927" 
d="M88 0v1434h367q174 0 261 -59.5t118 -203.5q17 -74 22.5 -172t5.5 -282q0 -191 -6 -285.5t-22 -169.5q-32 -150 -121 -206t-258 -56h-367zM367 236h57q42 0 63 3t40 16.5t28 40t14 73.5q13 107 13 348q0 247 -13 348q-5 48 -14 75t-28 40.5t-40 16.5t-63 3h-57v-964z" />
    <glyph glyph-name="E" unicode="E" horiz-adv-x="808" 
d="M88 0v1434h676v-242h-412v-311h301v-238h-301v-397h412v-246h-676z" />
    <glyph glyph-name="F" unicode="F" horiz-adv-x="794" 
d="M88 0v1434h670v-242h-398v-315h295v-238h-295v-639h-272z" />
    <glyph glyph-name="G" unicode="G" horiz-adv-x="903" 
d="M127 139q-66 135 -66 576q0 446 64 579q39 84 126.5 125t199.5 41q106 0 190.5 -35.5t126.5 -109.5q48 -81 63 -283l-276 -57q-3 142 -18 190q-10 36 -30 51t-54 15q-43 0 -64.5 -21t-30.5 -75q-16 -91 -16 -418q0 -323 16 -414q9 -57 31.5 -77.5t65.5 -20.5t65 22.5
t31 73.5q12 68 12 272h-98v218h369v-791h-146l-22 115q-62 -135 -248 -135q-215 0 -291 159z" />
    <glyph glyph-name="H" unicode="H" horiz-adv-x="944" 
d="M88 0v1434h279v-547h211v547h278v-1434h-278v633h-211v-633h-279z" />
    <glyph glyph-name="I" unicode="I" horiz-adv-x="454" 
d="M88 0v1434h279v-1434h-279z" />
    <glyph glyph-name="J" unicode="J" horiz-adv-x="602" 
d="M25 2v254q50 -4 88 -4q78 0 102.5 29.5t24.5 124.5v1028h278v-1100q0 -101 -21.5 -167.5t-68 -103.5t-107 -51t-149.5 -14q-104 0 -147 4z" />
    <glyph glyph-name="K" unicode="K" horiz-adv-x="878" 
d="M88 0v1434h268v-543l211 543h289l-211 -498l221 -936h-272l-141 616l-97 -249v-367h-268z" />
    <glyph glyph-name="L" unicode="L" horiz-adv-x="763" 
d="M88 0v1434h279v-1182h372v-252h-651z" />
    <glyph glyph-name="M" unicode="M" horiz-adv-x="1314" 
d="M92 0v1434h438l125 -881h4l125 881h437v-1434h-271v1182h-6l-186 -1184h-203l-186 1184h-4v-1182h-273z" />
    <glyph glyph-name="N" unicode="N" horiz-adv-x="954" 
d="M88 0v1434h268l215 -705l23 -98h4v803h268v-1434h-266l-217 705l-23 98h-4v-803h-268z" />
    <glyph glyph-name="O" unicode="O" horiz-adv-x="911" 
d="M129 139q-63 131 -63 578q0 446 63 577q39 81 126 123.5t200 42.5t200.5 -42.5t124.5 -123.5q66 -138 66 -577q0 -440 -66 -578q-37 -81 -124.5 -123.5t-200.5 -42.5t-200 42.5t-126 123.5zM362 299q9 -54 30.5 -75t62.5 -21t63 21t31 75q14 95 14 418t-14 418
q-9 54 -31 75t-63 21t-62.5 -21t-30.5 -75q-16 -91 -16 -418t16 -418z" />
    <glyph glyph-name="P" unicode="P" horiz-adv-x="903" 
d="M88 0v1434h318q131 0 219 -24.5t140.5 -79.5t74.5 -134t22 -195q0 -244 -104.5 -347t-358.5 -103h-39v-551h-272zM360 782h62q92 0 126 44.5t34 164.5t-34 163.5t-126 43.5h-62v-416z" />
    <glyph glyph-name="Q" unicode="Q" horiz-adv-x="911" 
d="M129 139q-63 131 -63 578q0 446 63 577q39 81 126 123.5t200 42.5t200.5 -42.5t124.5 -123.5q66 -138 66 -577q0 -440 -66 -578q-4 -4 -4 -8q41 -20 119 -20l-45 -240q-196 6 -293 113q-60 -11 -102 -11q-113 0 -200 42.5t-126 123.5zM362 299q9 -54 30.5 -75t62.5 -21
t63 21t31 75q14 95 14 418t-14 418q-9 54 -31 75t-63 21t-62.5 -21t-30.5 -75q-16 -91 -16 -418t16 -418z" />
    <glyph glyph-name="R" unicode="R" horiz-adv-x="925" 
d="M88 0v1434h303q258 0 362.5 -85.5t104.5 -293.5q0 -125 -33 -206.5t-114 -123.5v-2q80 -25 107.5 -82.5t27.5 -167.5q0 -275 14 -461v-12h-280q-9 205 -9 426q0 79 -25 107t-104 28h-82v-561h-272zM360 782h62q93 0 126.5 45.5t33.5 167.5q0 115 -33.5 159t-126.5 44h-62
v-416z" />
    <glyph glyph-name="S" unicode="S" horiz-adv-x="827" 
d="M418 -27q-174 0 -270 104t-109 343l262 45q4 -159 29 -213.5t88 -54.5q50 0 72 27.5t22 88.5q0 90 -41 154.5t-141 159.5q-47 45 -71.5 70t-64 68t-60.5 77t-44 78.5t-33 92t-10 99.5q0 159 93 253.5t270 94.5q186 0 272.5 -111.5t99.5 -320.5l-262 -45q-3 139 -26 197.5
t-88 58.5q-99 0 -99 -119q0 -77 42.5 -140t150.5 -165q44 -42 62 -59t56 -57t55 -64t43 -64.5t37.5 -75t21 -80t9.5 -93.5q0 -158 -91.5 -253.5t-274.5 -95.5z" />
    <glyph glyph-name="T" unicode="T" horiz-adv-x="837" 
d="M281 0v1182h-244v252h764v-252h-242v-1182h-278z" />
    <glyph glyph-name="U" unicode="U" horiz-adv-x="935" 
d="M367 354q6 -83 29 -115t71 -32q49 0 72.5 31.5t29.5 115.5q4 94 4 215v865h279v-940q0 -274 -90 -397.5t-295 -123.5q-204 0 -293.5 123.5t-89.5 397.5v940h278v-865q0 -97 5 -215z" />
    <glyph glyph-name="V" unicode="V" horiz-adv-x="870" 
d="M268 -4l-256 1438h289l123 -934l8 -99h6l8 99l123 934h289l-258 -1438h-332z" />
    <glyph glyph-name="W" unicode="W" horiz-adv-x="1314" 
d="M211 0l-182 1434h284l88 -877l5 -74h6l6 74l135 877h209l135 -877l6 -74h4l4 74l90 877h285l-184 -1434h-320l-116 809l-7 57h-6l-6 -57l-117 -809h-319z" />
    <glyph glyph-name="X" unicode="X" horiz-adv-x="872" 
d="M8 0l260 748l-248 686h287l129 -422l129 422h287l-250 -682l260 -752h-293l-133 455l-133 -455h-295z" />
    <glyph glyph-name="Y" unicode="Y" horiz-adv-x="858" 
d="M291 0v633l-283 801h295l111 -449l14 -72h4l14 72l109 449h295l-281 -801v-633h-278z" />
    <glyph glyph-name="Z" unicode="Z" horiz-adv-x="811" 
d="M45 0v188l401 1000h-391v246h703v-189l-402 -995h410v-250h-721z" />
    <glyph glyph-name="bracketleft" unicode="[" horiz-adv-x="606" 
d="M381 -160h199v-190h-430v1808h430v-190h-199v-1428z" />
    <glyph glyph-name="backslash" unicode="\" horiz-adv-x="813" 
d="M606 -154l-596 1639h207l596 -1639h-207z" />
    <glyph glyph-name="bracketright" unicode="]" horiz-adv-x="606" 
d="M27 -160h198v1428h-198v190h430v-1808h-430v190z" />
    <glyph glyph-name="asciicircum" unicode="^" horiz-adv-x="849" 
d="M31 866l278 582h232l278 -582h-221l-172 287l-174 -287h-221z" />
    <glyph glyph-name="underscore" unicode="_" 
d="M0 -25h1024v-213h-1024v213z" />
    <glyph glyph-name="grave" unicode="`" 
d="M406 1092l-146 294h270l86 -294h-210z" />
    <glyph glyph-name="a" unicode="a" horiz-adv-x="802" 
d="M25 250q0 71 23 127.5t73 103t139 73t213 28.5v90q0 69 -18.5 97t-65.5 28q-52 0 -74 -34t-22 -116l-236 49q43 303 353 303q163 0 241 -89.5t78 -266.5v-428q0 -36 13.5 -48.5t45.5 -14.5v-144q-39 -16 -104 -16q-148 0 -182 96q-56 -100 -213 -100q-120 0 -192 64.5
t-72 197.5zM287 279q0 -123 96 -123q90 0 90 102v197q-186 -3 -186 -176z" />
    <glyph glyph-name="b" unicode="b" horiz-adv-x="835" 
d="M500 270q8 66 8 219q0 163 -6 216q-6 48 -23 68t-55 20q-34 0 -53.5 -20t-26.5 -66q-10 -72 -10 -218q0 -160 10 -221q7 -41 23.5 -61.5t54.5 -20.5q39 0 55.5 17.5t22.5 66.5zM688 51q-59 -65 -170 -65q-142 0 -194 102l-17 -88h-229v1434h260v-510q54 73 168 73
q66 0 107.5 -18t74.5 -57q47 -57 67.5 -149t20.5 -281q0 -184 -19 -285.5t-69 -155.5z" />
    <glyph glyph-name="c" unicode="c" horiz-adv-x="790" 
d="M197 35q-77 54 -109.5 158t-32.5 296q0 193 32.5 298t109.5 159q82 55 211 55q305 0 340 -313l-256 -53q-2 40 -4 59.5t-7 44t-13.5 35t-23 18t-36.5 7.5q-35 0 -52.5 -20t-23.5 -64q-8 -47 -8 -226q0 -176 8 -223q6 -46 24 -66t52 -20q50 0 65.5 36.5t18.5 137.5
l258 -55q-36 -319 -342 -319q-129 0 -211 55z" />
    <glyph glyph-name="d" unicode="d" horiz-adv-x="835" 
d="M336 270q6 -49 22.5 -66.5t55.5 -17.5q38 0 54.5 20.5t23.5 61.5q10 61 10 221q0 146 -10 218q-7 46 -26.5 66t-53.5 20q-38 0 -55 -20t-23 -68q-6 -53 -6 -216q0 -153 8 -219zM147 51q-50 54 -69 155.5t-19 285.5q0 189 20.5 281t67.5 149q33 39 75 57t108 18
q114 0 168 -73v510h260v-1434h-230l-16 88q-52 -102 -195 -102q-111 0 -170 65z" />
    <glyph glyph-name="e" unicode="e" horiz-adv-x="815" 
d="M197 35q-77 53 -109.5 157t-32.5 297t32.5 298t109.5 159q82 55 211 55q131 0 213 -55q78 -54 109.5 -167.5t31.5 -332.5h-445q0 -125 11 -182q6 -46 24 -66t56 -20q53 0 71 37t21 135l252 -53q-19 -157 -102 -237t-240 -80q-131 0 -213 55zM328 725q-9 -57 -11 -131h183
q-4 101 -8 131q-5 43 -22.5 64.5t-59.5 21.5q-36 0 -56 -20t-26 -66z" />
    <glyph glyph-name="f" unicode="f" horiz-adv-x="540" 
d="M18 770v213h97v152q0 159 78 237t241 78q52 0 86 -6v-207h-28q-63 0 -89 -30.5t-26 -114.5v-109h139v-213h-139v-770h-262v770h-97z" />
    <glyph glyph-name="g" unicode="g" horiz-adv-x="808" 
d="M12 -139q0 64 38.5 107.5t105.5 62.5q-105 50 -105 159q0 59 31 99t76 57q-103 97 -103 283q0 114 27 184.5t86 118.5q42 34 87.5 50.5t117.5 16.5q73 0 125.5 -19.5t101.5 -68.5q59 95 201 95v-203q-32 4 -56 4q-43 0 -79 -10q24 -62 24 -168q0 -205 -112 -295
q-81 -66 -205 -66q-66 0 -127 23q-6 -12 -6 -29q0 -41 43 -55t176 -27t206 -43.5t100.5 -78t27.5 -128.5q0 -156 -96 -221t-285 -65q-115 0 -202.5 21.5t-142.5 71.5t-55 124zM457 629q0 104 -17.5 141t-66.5 37t-66.5 -37t-17.5 -141q0 -103 17.5 -139.5t66.5 -36.5
t66.5 36.5t17.5 139.5zM391 -23l-92 13q-55 -27 -55 -94q0 -50 37 -73.5t129 -23.5q89 0 120 20.5t31 67.5q0 44 -33 61t-137 29z" />
    <glyph glyph-name="h" unicode="h" horiz-adv-x="831" 
d="M76 0v1434h262v-531q52 96 192 96q120 0 175 -80.5t55 -283.5v-635h-262v659q0 96 -17.5 130t-56.5 34q-48 0 -67 -37.5t-19 -146.5v-639h-262z" />
    <glyph glyph-name="i" unicode="i" horiz-adv-x="415" 
d="M78 0v983h262v-983h-262zM72 1120v248h274v-248h-274z" />
    <glyph glyph-name="j" unicode="j" horiz-adv-x="421" 
d="M82 35v948h262v-952q0 -103 -22.5 -170.5t-71.5 -106t-116 -54t-167 -17.5v225q14 -2 35 -2q48 0 64 25.5t16 103.5zM76 1120v248h274v-248h-274z" />
    <glyph glyph-name="k" unicode="k" horiz-adv-x="784" 
d="M510 0l-117 373l-61 -137v-236h-256v1434h256v-883l174 432h262l-188 -428l192 -555h-262z" />
    <glyph glyph-name="l" unicode="l" horiz-adv-x="413" 
d="M76 0v1434h262v-1434h-262z" />
    <glyph glyph-name="m" unicode="m" horiz-adv-x="1222" 
d="M76 0v983h235l17 -94q49 108 194 108t189 -125q52 125 215 125q120 0 172.5 -79.5t52.5 -284.5v-633h-256v659q0 97 -15.5 130.5t-54.5 33.5q-46 0 -65 -37.5t-19 -146.5v-639h-254v659q0 98 -15.5 131t-53.5 33q-46 0 -65 -37.5t-19 -146.5v-639h-258z" />
    <glyph glyph-name="n" unicode="n" horiz-adv-x="831" 
d="M76 0v983h237l17 -92q51 108 200 108q120 0 175 -80.5t55 -283.5v-635h-262v659q0 96 -17.5 130t-56.5 34q-48 0 -67 -37.5t-19 -146.5v-639h-262z" />
    <glyph glyph-name="o" unicode="o" horiz-adv-x="817" 
d="M197 35q-77 54 -109.5 158t-32.5 296q0 193 32.5 298t109.5 159q82 55 211 55q131 0 213 -55q75 -53 108 -158t33 -299q0 -192 -33 -296.5t-108 -157.5q-82 -55 -213 -55q-129 0 -211 55zM332 264q6 -44 24 -64t52 -20q33 0 52.5 18.5t26.5 65.5q9 70 9 225q0 161 -9 226
q-7 46 -25.5 65t-53.5 19q-34 0 -52 -19.5t-24 -64.5q-8 -47 -8 -226q0 -176 8 -225z" />
    <glyph glyph-name="p" unicode="p" horiz-adv-x="833" 
d="M344 268q6 -44 25.5 -63t54.5 -19q37 0 54.5 19t23.5 65q8 74 8 219q0 169 -8 216q-6 48 -23 68t-53 20q-38 0 -55 -19t-25 -67q-12 -71 -12 -218q0 -160 10 -221zM518 -14q-124 0 -178 71v-383h-262v1309h258v-63q54 77 172 77q64 0 105.5 -18t74.5 -57
q47 -57 67.5 -149t20.5 -281q0 -188 -19.5 -287t-68.5 -154q-56 -65 -170 -65z" />
    <glyph glyph-name="q" unicode="q" horiz-adv-x="833" 
d="M334 270q6 -49 22.5 -66.5t55.5 -17.5t54.5 20t22.5 62q11 67 11 221q0 139 -11 218q-7 47 -25.5 66.5t-53.5 19.5q-38 0 -55 -20t-23 -68q-6 -53 -6 -216q0 -149 8 -219zM145 51q-49 55 -68.5 154t-19.5 287q0 189 20.5 281t67.5 149q63 75 183 75q125 0 176 -88l14 74
h238v-1309h-260v385q-56 -73 -181 -73q-114 0 -170 65z" />
    <glyph glyph-name="r" unicode="r" horiz-adv-x="612" 
d="M76 0v983h235l23 -133q29 81 93 113t167 34v-245q-54 6 -78 6q-101 0 -139.5 -48.5t-38.5 -158.5v-551h-262z" />
    <glyph glyph-name="s" unicode="s" horiz-adv-x="739" 
d="M33 291l225 41q9 -86 34.5 -122t78.5 -36q82 0 82 76q0 27 -8.5 47.5t-30 38.5t-41.5 30.5t-62 36t-71 41.5q-49 30 -80 54.5t-61 59t-44 78t-14 97.5q0 125 84 196.5t237 71.5q302 0 332 -307l-225 -41q-7 84 -31.5 121t-72.5 37q-82 0 -82 -78q0 -24 9 -44t33 -39
t41.5 -31t59 -35t61.5 -35q41 -24 68 -43t57 -46.5t47.5 -56t29 -67.5t11.5 -84q0 -270 -317 -270q-161 0 -246.5 73t-103.5 236z" />
    <glyph glyph-name="t" unicode="t" horiz-adv-x="565" 
d="M8 770v213h103v209l260 57v-266h161v-213h-161v-430q0 -82 23.5 -111.5t82.5 -29.5q40 0 58 2v-203q-39 -10 -105 -10q-86 0 -143.5 14.5t-98.5 50t-60 97.5t-19 155q0 9 0.5 87.5t1 187t0.5 190.5h-103z" />
    <glyph glyph-name="u" unicode="u" horiz-adv-x="829" 
d="M295 -16q-114 0 -168.5 80.5t-54.5 279.5v639h262v-661q0 -96 16 -129t56 -33q47 0 65 37t18 147v639h263v-983h-232l-18 102q-49 -118 -207 -118z" />
    <glyph glyph-name="v" unicode="v" horiz-adv-x="786" 
d="M244 -2l-232 985h271l94 -571l12 -95h6l15 95l94 571h270l-231 -985h-299z" />
    <glyph glyph-name="w" unicode="w" horiz-adv-x="1187" 
d="M211 0l-188 983h258l88 -549l12 -94h6l10 94l92 549h211l91 -549l12 -94h4l12 94l88 549h258l-186 -983h-279l-88 492l-14 92h-6l-14 -92l-91 -492h-276z" />
    <glyph glyph-name="x" unicode="x" horiz-adv-x="778" 
d="M10 0l232 504l-222 479h269l100 -264l100 264h269l-223 -479l233 -504h-281l-98 279l-98 -279h-281z" />
    <glyph glyph-name="y" unicode="y" horiz-adv-x="788" 
d="M39 -115q40 -8 84 -8q66 0 94.5 23.5t28.5 85.5q0 46 -23 147l-207 850h271l94 -571l14 -95h4l15 95l94 571h270l-188 -807q-25 -106 -47.5 -178t-52.5 -132.5t-65 -96.5t-84.5 -61t-110.5 -34.5t-144 -9.5z" />
    <glyph glyph-name="z" unicode="z" horiz-adv-x="716" 
d="M39 0v174l332 596h-326v213h621v-174l-330 -592h336v-217h-633z" />
    <glyph glyph-name="braceleft" unicode="{" horiz-adv-x="630" 
d="M514 -160h96v-190h-174q-137 0 -196.5 59t-59.5 193v405q0 87 -27 121.5t-106 34.5v178q79 0 106 35t27 121v409q0 134 59.5 193t196.5 59h174v-190h-96q-55 0 -76.5 -24t-21.5 -89v-405q0 -96 -24.5 -139t-84.5 -58q60 -18 84.5 -61t24.5 -136v-403q0 -66 21.5 -89.5
t76.5 -23.5z" />
    <glyph glyph-name="bar" unicode="|" 
d="M395 -334v1870h234v-1870h-234z" />
    <glyph glyph-name="braceright" unicode="}" horiz-adv-x="630" 
d="M20 -160h97q55 0 76.5 23.5t21.5 89.5v403q0 93 24.5 136t84.5 61q-60 15 -84.5 58t-24.5 139v405q0 65 -21.5 89t-76.5 24h-97v190h175q137 0 196.5 -59t59.5 -193v-409q0 -86 27 -121t106 -35v-178q-79 0 -106 -34.5t-27 -121.5v-405q0 -134 -59.5 -193t-196.5 -59
h-175v190z" />
    <glyph glyph-name="asciitilde" unicode="~" horiz-adv-x="884" 
d="M162 573l-123 62q30 108 99.5 170.5t164.5 62.5q59 0 149 -36.5t138 -36.5q49 0 77.5 21t53.5 63l125 -62q-31 -108 -100.5 -170.5t-163.5 -62.5q-60 0 -150 36.5t-137 36.5q-48 0 -77 -21t-56 -63z" />
    <glyph glyph-name="nbspace" unicode="&#xa0;" horiz-adv-x="206" 
 />
    <glyph glyph-name="exclamdown" unicode="&#xa1;" horiz-adv-x="503" 
d="M391 1434v-299h-287v299h287zM340 930l72 -930h-328l72 930h184z" />
    <glyph glyph-name="cent" unicode="&#xa2;" horiz-adv-x="784" 
d="M197 274q-74 52 -104 156t-30 295q0 189 30 294.5t104 156.5q41 26 98 41v184h213v-182q201 -49 231 -297l-250 -54q-5 95 -20.5 130.5t-62.5 35.5q-70 0 -78 -86q-9 -79 -9 -223t9 -223q9 -86 78 -86q44 0 62 35.5t21 138.5l252 -53q-25 -260 -233 -308v-180h-213v182
q-59 16 -98 43z" />
    <glyph glyph-name="sterling" unicode="&#xa3;" horiz-adv-x="933" 
d="M80 582v180h125q-35 75 -50 110.5t-32 102.5t-17 129q0 174 99.5 265t271.5 91q191 0 285 -107t100 -327l-264 -57q-3 149 -28 206.5t-87 57.5q-55 0 -78.5 -36t-23.5 -112q0 -40 6.5 -85t14 -74.5t22.5 -83t22 -80.5h285v-180h-252q6 -50 6 -107q0 -147 -32 -258
q60 -24 114 -24q49 0 72 23t23 83q0 15 -5 61h228q10 -62 10 -110q0 -273 -264 -273q-146 0 -258 93q-71 -84 -193 -84q-79 0 -130.5 40t-51.5 121q0 78 47.5 120t132.5 42q61 0 133 -28q2 20 2 59q-5 121 -37 242h-196zM186 84q75 0 95 61q-51 41 -101 41q-61 0 -61 -49
q0 -53 67 -53z" />
    <glyph glyph-name="yen" unicode="&#xa5;" horiz-adv-x="888" 
d="M61 610v166h207l-241 658h292l125 -516h2l125 516h293l-241 -658h204v-166h-245v-143h245v-166h-245v-301h-273v301h-248v166h248v143h-248z" />
    <glyph glyph-name="brokenbar" unicode="&#xa6;" 
d="M395 -334v834h234v-834h-234zM395 702v834h234v-834h-234z" />
    <glyph glyph-name="section" unicode="&#xa7;" horiz-adv-x="825" 
d="M57 229l246 43q11 -76 37 -113.5t78 -37.5q45 0 67.5 25t22.5 67t-24 75.5t-63 57.5t-85.5 47.5t-93 51.5t-85.5 63t-63 90.5t-24 124.5q0 149 108 235q-119 100 -119 254q0 149 93.5 231.5t250.5 82.5q160 0 252 -85t113 -233l-246 -45q-9 77 -35.5 114.5t-78.5 37.5
q-44 0 -67.5 -25.5t-23.5 -66.5q0 -37 19 -67.5t49.5 -51t70 -43t81 -42t81 -48t70 -61.5t49.5 -83.5t19 -111.5q0 -146 -111 -238q121 -99 121 -254q0 -148 -93.5 -229.5t-250.5 -81.5q-161 0 -251.5 83.5t-113.5 233.5zM520 557q25 42 25 88q0 23 -6 43.5t-14 36t-25 32.5
t-29 27.5t-37.5 26t-39.5 23t-44.5 24t-44.5 23.5q-24 -41 -24 -88q0 -23 6 -43.5t13.5 -36t25 -32.5t29 -27t37 -26t39 -23.5t45 -24t44.5 -23.5z" />
    <glyph glyph-name="dieresis" unicode="&#xa8;" 
d="M238 1092v241h231v-241h-231zM555 1092v241h231v-241h-231z" />
    <glyph glyph-name="copyright" unicode="&#xa9;" horiz-adv-x="1486" 
d="M565 330q-63 45 -89.5 131.5t-26.5 255.5q0 172 26 256t90 127q73 51 185 51q135 0 202.5 -68.5t87.5 -195.5l-204 -45q-5 73 -22 104t-66 31q-54 0 -72.5 -52.5t-18.5 -207.5q0 -156 18.5 -209t72.5 -53q22 0 37.5 7t24.5 17.5t14.5 31.5t7.5 38.5t4 50.5l204 -43
q-19 -131 -86.5 -203.5t-205.5 -72.5q-113 0 -183 49zM90 717q0 156 32.5 281t90 210t140 142t179.5 82.5t211 25.5t211.5 -25.5t180.5 -82.5t141 -142t90.5 -210t32.5 -281q0 -194 -49.5 -339.5t-139.5 -232t-206.5 -128.5t-260.5 -42t-260 42t-205.5 128.5t-138.5 232
t-49 339.5zM743 92q121 0 215.5 34.5t166 107.5t109.5 195t38 288t-38 288t-109.5 194.5t-166 107t-215.5 34.5t-215.5 -34.5t-165.5 -107t-109 -194.5t-38 -288t38 -288t109 -195t165.5 -107.5t215.5 -34.5z" />
    <glyph glyph-name="ordfeminine" unicode="&#xaa;" horiz-adv-x="598" 
d="M217 768q-82 0 -134 45t-52 133q0 212 307 217v70q0 39 -10.5 57.5t-40.5 18.5q-31 0 -45 -23t-15 -78l-170 35q35 203 244 203q117 0 170 -59t53 -177v-274q0 -28 11 -41t38 -14v-97q-32 -12 -81 -12q-110 0 -134 62q-38 -66 -141 -66zM283 885q55 0 55 57v139
q-113 0 -113 -118q0 -43 14.5 -60.5t43.5 -17.5zM78 524v131h448v-131h-448z" />
    <glyph glyph-name="guillemotleft" unicode="&#xab;" horiz-adv-x="870" 
d="M668 492l153 -390h-229l-168 390l168 389h229zM295 492l154 -390h-230l-168 390l168 389h230z" />
    <glyph glyph-name="registered" unicode="&#xae;" horiz-adv-x="878" 
d="M287 786v482h141q108 0 145 -29t37 -94q0 -42 -15.5 -67t-51.5 -38v-4q37 -7 50 -27t13 -59q0 -96 4 -164h-125q-2 61 -2 150q0 27 -7.5 35t-31.5 8h-38v-193h-119zM438 586q-175 0 -280 108t-105 330t105 330t280 108t281 -108t106 -330t-106 -330t-281 -108zM438 659
q145 0 227.5 89t82.5 276t-82.5 276t-227.5 89q-144 0 -226.5 -89t-82.5 -276t82.5 -276t226.5 -89zM406 1059h24q35 0 46 12t11 47q0 34 -11 46t-46 12h-24v-117z" />
    <glyph glyph-name="macron" unicode="&#xaf;" 
d="M244 1092v184h536v-184h-536z" />
    <glyph glyph-name="degree" unicode="&#xb0;" horiz-adv-x="751" 
d="M375 821q-136 0 -227 90.5t-91 225.5t91 226t227 91q137 0 227 -90.5t90 -226.5t-90 -226t-227 -90zM375 975q67 0 110 45.5t43 116.5q0 72 -42.5 116.5t-110.5 44.5t-110 -44.5t-42 -116.5q0 -71 42.5 -116.5t109.5 -45.5z" />
    <glyph glyph-name="plusminus" unicode="&#xb1;" horiz-adv-x="888" 
d="M338 467v252h-236v207h236v252h213v-252h235v-207h-235v-252h-213zM102 0v203h684v-203h-684z" />
    <glyph glyph-name="twosuperior" unicode="&#xb2;" horiz-adv-x="575" 
d="M33 799v121q14 16 57.5 67t67.5 80t61 78.5t57 84.5t36 76.5t16 73.5q0 72 -49 72q-34 0 -48.5 -28t-15.5 -105l-174 39q7 123 72.5 184.5t177.5 61.5q110 0 167.5 -58t57.5 -153q0 -102 -61 -213.5t-170 -212.5l233 2v-170h-485z" />
    <glyph glyph-name="threesuperior" unicode="&#xb3;" horiz-adv-x="593" 
d="M283 784q-142 0 -195 86q-35 60 -43 174l191 43q3 -91 13 -118t42 -27q27 0 38 22.5t11 86.5q0 63 -2 79q-4 39 -30 50.5t-107 11.5l-17 84l135 151v3l-272 -3v160h475v-127l-121 -160q131 -21 131 -241q0 -123 -32 -180q-28 -48 -87.5 -71.5t-129.5 -23.5z" />
    <glyph glyph-name="acute" unicode="&#xb4;" 
d="M410 1092l86 294h270l-145 -294h-211z" />
    <glyph glyph-name="paragraph" unicode="&#xb6;" horiz-adv-x="987" 
d="M100 260q-19 80 -24.5 179t-5.5 278t5.5 278t24.5 179q33 144 124.5 202t262.5 58h480v-140h-107v-1155h107v-139h-480q-171 0 -262.5 58t-124.5 202zM614 139h93v1155h-93v-1155z" />
    <glyph glyph-name="periodcentered" unicode="&#xb7;" horiz-adv-x="475" 
d="M92 575v299h289v-299h-289z" />
    <glyph glyph-name="cedilla" unicode="&#xb8;" 
d="M344 -242q62 -12 113 -12q48 0 66 12t18 41q0 28 -21.5 39.5t-77.5 11.5q-24 0 -36 -2l65 209h78l-37 -137q106 0 150.5 -27.5t44.5 -95.5q0 -78 -50 -109.5t-170 -31.5q-61 0 -143 10v92z" />
    <glyph glyph-name="onesuperior" unicode="&#xb9;" horiz-adv-x="417" 
d="M131 803v608l-82 -16l-35 141l154 59h166v-792h-203z" />
    <glyph glyph-name="ordmasculine" unicode="&#xba;" horiz-adv-x="571" 
d="M285 766q-85 0 -146 39q-56 34 -77 104.5t-21 196.5q0 125 20.5 197.5t77.5 105.5q61 37 146 37q88 0 147 -37q56 -32 77 -104.5t21 -198.5t-21 -196.5t-77 -104.5q-62 -39 -147 -39zM285 905q21 0 32 11.5t15 41.5q4 35 4 148q0 114 -4 149q-4 29 -15 40.5t-32 11.5
q-40 0 -45 -52q-7 -61 -7 -147q0 -96 7 -150q5 -53 45 -53zM106 524v131h357v-131h-357z" />
    <glyph glyph-name="guillemotright" unicode="&#xbb;" horiz-adv-x="872" 
d="M49 102l154 390l-154 389h230l167 -389l-167 -390h-230zM422 102l153 390l-153 389h229l168 -389l-168 -390h-229z" />
    <glyph glyph-name="onequarter" unicode="&#xbc;" horiz-adv-x="1349" 
d="M758 172l-33 147l272 469h224v-477h63v-139h-63v-172h-199v172h-264zM885 307l137 2l6 258h-6l-137 -254v-6zM158 645v606l-82 -16l-35 141l154 60h163v-791h-200zM184 0l740 1434h153l-739 -1434h-154z" />
    <glyph glyph-name="onehalf" unicode="&#xbd;" horiz-adv-x="1398" 
d="M827 0v119q11 13 57 67t68 81t60.5 78.5t58 85.5t35.5 75.5t16 73.5q0 71 -49 71q-34 0 -48 -27.5t-15 -103.5l-174 39q7 123 72 183.5t177 60.5q110 0 168 -57.5t58 -153.5q0 -101 -61 -210.5t-169 -213.5l232 2v-170h-486zM158 645v606l-82 -16l-35 141l154 60h163
v-791h-200zM184 0l740 1434h153l-739 -1434h-154z" />
    <glyph glyph-name="threequarters" unicode="&#xbe;" horiz-adv-x="1429" 
d="M281 633q-140 0 -193 86q-35 60 -43 174l188 43q3 -91 13.5 -118t42.5 -27q27 0 38 22t11 86t-2 80q-4 38 -30 48.5t-105 10.5l-17 84l133 152v2l-270 -2v160h473v-127l-121 -160q131 -21 131 -240q0 -123 -32 -180q-27 -48 -86.5 -71t-130.5 -23zM838 172l-33 147
l272 469h223v-477h64v-139h-64v-172h-198v172h-264zM965 307l137 2l6 258h-6l-137 -254v-6zM272 0l740 1434h153l-739 -1434h-154z" />
    <glyph glyph-name="questiondown" unicode="&#xbf;" horiz-adv-x="798" 
d="M522 975q0 -115 -31.5 -195t-107.5 -188q-51 -74 -69.5 -118.5t-18.5 -117.5q0 -79 24 -114t84 -35q62 0 92 42.5t37 153.5l242 -53q-44 -375 -383 -375q-162 0 -259 87t-97 262q0 68 15 127t39.5 103t53.5 84t59 77.5t54.5 75t40 85t16.5 99.5h209zM565 1434v-299h-291
v299h291z" />
    <glyph glyph-name="Agrave" unicode="&#xc0;" horiz-adv-x="845" 
d="M4 0l250 1434h338l248 -1434h-271l-28 203h-238l-29 -203h-270zM410 969l-82 -584h188l-82 584l-10 84h-4zM313 1546l-153 293h274l94 -293h-215z" />
    <glyph glyph-name="Aacute" unicode="&#xc1;" horiz-adv-x="845" 
d="M4 0l250 1434h338l248 -1434h-271l-28 203h-238l-29 -203h-270zM410 969l-82 -584h188l-82 584l-10 84h-4zM313 1546l95 293h274l-152 -293h-217z" />
    <glyph glyph-name="Acircumflex" unicode="&#xc2;" horiz-adv-x="845" 
d="M4 0l250 1434h338l248 -1434h-271l-28 203h-238l-29 -203h-270zM410 969l-82 -584h188l-82 584l-10 84h-4zM154 1546l143 293h250l143 -293h-176l-92 133l-92 -133h-176z" />
    <glyph glyph-name="Atilde" unicode="&#xc3;" horiz-adv-x="845" 
d="M4 0l250 1434h338l248 -1434h-271l-28 203h-238l-29 -203h-270zM410 969l-82 -584h188l-82 584l-10 84h-4zM131 1550q0 146 42.5 208.5t137.5 62.5q50 0 88 -17.5t56.5 -38t43.5 -38t52 -17.5q31 0 43 22t12 70h107q0 -146 -43 -208t-138 -62q-41 0 -73 11.5t-52 28
t-37 33.5t-36 28.5t-41 11.5q-31 0 -43 -24t-12 -71h-107z" />
    <glyph glyph-name="Adieresis" unicode="&#xc4;" horiz-adv-x="845" 
d="M4 0l250 1434h338l248 -1434h-271l-28 203h-238l-29 -203h-270zM410 969l-82 -584h188l-82 584l-10 84h-4zM141 1546v236h232v-236h-232zM471 1546v236h231v-236h-231z" />
    <glyph glyph-name="Aring" unicode="&#xc5;" horiz-adv-x="845" 
d="M840 0h-271l-28 203h-238l-29 -203h-270l248 1427q-51 45 -51 123q0 84 63.5 132.5t157.5 48.5t157.5 -48.5t63.5 -132.5q0 -75 -51 -120zM422 1475q34 0 55 20t21 55q0 34 -21 54t-55 20t-55 -20t-21 -54q0 -35 21 -55t55 -20zM410 969l-82 -584h188l-82 584l-10 84h-4z
" />
    <glyph glyph-name="AE" unicode="&#xc6;" horiz-adv-x="1228" 
d="M0 0l408 1434h776v-242h-391v-311h278v-238h-278v-397h391v-246h-643v197h-219l-48 -197h-274zM535 1077l-168 -692h174v692h-6z" />
    <glyph glyph-name="Ccedilla" unicode="&#xc7;" horiz-adv-x="882" 
d="M129 139q-63 131 -63 578q0 446 63 577q39 81 125.5 123.5t200.5 42.5q103 0 189 -35.5t128 -109.5q48 -83 62 -283l-275 -57q-3 142 -18 190q-19 66 -84 66q-43 0 -64.5 -21t-30.5 -75q-16 -91 -16 -418t16 -418q9 -54 30.5 -75t64.5 -21q68 0 86 67q16 60 18 211
l275 -57q-12 -217 -64 -305q-39 -67 -119.5 -105t-181.5 -41l-16 -51q103 0 152.5 -30t49.5 -101q0 -77 -52.5 -111t-174.5 -34q-83 0 -141 12v98q74 -12 112 -12q48 0 66 12t18 39q0 28 -20 37.5t-80 9.5h-35l43 135q-199 23 -264 162z" />
    <glyph glyph-name="Egrave" unicode="&#xc8;" horiz-adv-x="808" 
d="M315 1546l-153 293h274l94 -293h-215zM88 0v1434h676v-242h-412v-311h301v-238h-301v-397h412v-246h-676z" />
    <glyph glyph-name="Eacute" unicode="&#xc9;" horiz-adv-x="808" 
d="M88 0v1434h676v-242h-412v-311h301v-238h-301v-397h412v-246h-676zM315 1546l95 293h274l-152 -293h-217z" />
    <glyph glyph-name="Ecircumflex" unicode="&#xca;" horiz-adv-x="808" 
d="M156 1546l143 293h250l143 -293h-176l-92 133l-92 -133h-176zM88 0v1434h676v-242h-412v-311h301v-238h-301v-397h412v-246h-676z" />
    <glyph glyph-name="Edieresis" unicode="&#xcb;" horiz-adv-x="808" 
d="M88 0v1434h676v-242h-412v-311h301v-238h-301v-397h412v-246h-676zM143 1546v236h232v-236h-232zM473 1546v236h232v-236h-232z" />
    <glyph glyph-name="Igrave" unicode="&#xcc;" horiz-adv-x="454" 
d="M88 0v1434h279v-1434h-279zM119 1546l-154 293h275l94 -293h-215z" />
    <glyph glyph-name="Iacute" unicode="&#xcd;" horiz-adv-x="454" 
d="M88 0v1434h279v-1434h-279zM119 1546l94 293h274l-151 -293h-217z" />
    <glyph glyph-name="Icircumflex" unicode="&#xce;" horiz-adv-x="454" 
d="M88 0v1434h279v-1434h-279zM-41 1546l143 293h250l144 -293h-177l-92 133l-92 -133h-176z" />
    <glyph glyph-name="Idieresis" unicode="&#xcf;" horiz-adv-x="454" 
d="M88 0v1434h279v-1434h-279zM-53 1546v236h231v-236h-231zM276 1546v236h232v-236h-232z" />
    <glyph glyph-name="Eth" unicode="&#xd0;" horiz-adv-x="927" 
d="M2 643v236h86v555h367q174 0 261 -59.5t118 -203.5q17 -74 22.5 -172t5.5 -282q0 -191 -6 -285.5t-22 -169.5q-32 -150 -121 -206t-258 -56h-367v643h-86zM367 236h57q42 0 63 3t40 16.5t28 40t14 73.5q13 107 13 348q0 247 -13 348q-5 48 -14 75t-28 40.5t-40 16.5
t-63 3h-57v-321h104v-236h-104v-407z" />
    <glyph glyph-name="Ntilde" unicode="&#xd1;" horiz-adv-x="954" 
d="M186 1550q0 146 43 208.5t138 62.5q41 0 73 -11.5t51.5 -27.5t36.5 -32.5t36.5 -28t41.5 -11.5q31 0 43.5 22t12.5 70h106q0 -146 -42.5 -208t-137.5 -62q-41 0 -73 11.5t-52.5 28t-37.5 33.5t-36 28.5t-41 11.5q-31 0 -43 -24t-12 -71h-107zM88 0v1434h268l215 -705
l23 -98h4v803h268v-1434h-266l-217 705l-23 98h-4v-803h-268z" />
    <glyph glyph-name="Ograve" unicode="&#xd2;" horiz-adv-x="911" 
d="M346 1546l-153 293h274l94 -293h-215zM129 139q-63 131 -63 578q0 446 63 577q39 81 126 123.5t200 42.5t200.5 -42.5t124.5 -123.5q66 -138 66 -577q0 -440 -66 -578q-37 -81 -124.5 -123.5t-200.5 -42.5t-200 42.5t-126 123.5zM362 299q9 -54 30.5 -75t62.5 -21t63 21
t31 75q14 95 14 418t-14 418q-9 54 -31 75t-63 21t-62.5 -21t-30.5 -75q-16 -91 -16 -418t16 -418z" />
    <glyph glyph-name="Oacute" unicode="&#xd3;" horiz-adv-x="911" 
d="M346 1546l94 293h275l-152 -293h-217zM129 139q-63 131 -63 578q0 446 63 577q39 81 126 123.5t200 42.5t200.5 -42.5t124.5 -123.5q66 -138 66 -577q0 -440 -66 -578q-37 -81 -124.5 -123.5t-200.5 -42.5t-200 42.5t-126 123.5zM362 299q9 -54 30.5 -75t62.5 -21t63 21
t31 75q14 95 14 418t-14 418q-9 54 -31 75t-63 21t-62.5 -21t-30.5 -75q-16 -91 -16 -418t16 -418z" />
    <glyph glyph-name="Ocircumflex" unicode="&#xd4;" horiz-adv-x="911" 
d="M186 1546l144 293h250l143 -293h-176l-92 133l-93 -133h-176zM129 139q-63 131 -63 578q0 446 63 577q39 81 126 123.5t200 42.5t200.5 -42.5t124.5 -123.5q66 -138 66 -577q0 -440 -66 -578q-37 -81 -124.5 -123.5t-200.5 -42.5t-200 42.5t-126 123.5zM362 299
q9 -54 30.5 -75t62.5 -21t63 21t31 75q14 95 14 418t-14 418q-9 54 -31 75t-63 21t-62.5 -21t-30.5 -75q-16 -91 -16 -418t16 -418z" />
    <glyph glyph-name="Otilde" unicode="&#xd5;" horiz-adv-x="911" 
d="M129 139q-63 131 -63 578q0 446 63 577q39 81 126 123.5t200 42.5t200.5 -42.5t124.5 -123.5q66 -138 66 -577q0 -440 -66 -578q-37 -81 -124.5 -123.5t-200.5 -42.5t-200 42.5t-126 123.5zM362 299q9 -54 30.5 -75t62.5 -21t63 21t31 75q14 95 14 418t-14 418
q-9 54 -31 75t-63 21t-62.5 -21t-30.5 -75q-16 -91 -16 -418t16 -418zM164 1550q0 146 42.5 208.5t137.5 62.5q50 0 88 -17.5t56.5 -38t43.5 -38t52 -17.5q31 0 43 22t12 70h106q0 -146 -42.5 -208t-137.5 -62q-41 0 -73 11.5t-52 28t-37 33.5t-36 28.5t-41 11.5
q-56 0 -56 -95h-106z" />
    <glyph glyph-name="Odieresis" unicode="&#xd6;" horiz-adv-x="911" 
d="M129 139q-63 131 -63 578q0 446 63 577q39 81 126 123.5t200 42.5t200.5 -42.5t124.5 -123.5q66 -138 66 -577q0 -440 -66 -578q-37 -81 -124.5 -123.5t-200.5 -42.5t-200 42.5t-126 123.5zM362 299q9 -54 30.5 -75t62.5 -21t63 21t31 75q14 95 14 418t-14 418
q-9 54 -31 75t-63 21t-62.5 -21t-30.5 -75q-16 -91 -16 -418t16 -418zM174 1546v236h232v-236h-232zM504 1546v236h231v-236h-231z" />
    <glyph glyph-name="multiply" unicode="&#xd7;" horiz-adv-x="907" 
d="M238 414l-129 157l186 154l-186 156l129 155l215 -178l217 178l131 -155l-189 -156l189 -154l-131 -157l-217 180z" />
    <glyph glyph-name="Oslash" unicode="&#xd8;" horiz-adv-x="911" 
d="M362 299q9 -54 30.5 -75t62.5 -21t63 21t31 75q14 95 14 418v100zM346 717v-107l203 525q-9 54 -31 75t-63 21t-62.5 -21t-30.5 -75q-16 -91 -16 -418zM66 -45l71 168q-39 81 -55 225t-16 369q0 446 63 577q39 81 126 123.5t200 42.5q130 0 221 -55l31 74h139l-72 -168
q72 -148 72 -594q0 -440 -66 -578q-37 -81 -124.5 -123.5t-200.5 -42.5q-128 0 -222 54l-28 -72h-139z" />
    <glyph glyph-name="Ugrave" unicode="&#xd9;" horiz-adv-x="935" 
d="M358 1546l-153 293h274l94 -293h-215zM367 354q6 -83 29 -115t71 -32q49 0 72.5 31.5t29.5 115.5q4 94 4 215v865h279v-940q0 -274 -90 -397.5t-295 -123.5q-204 0 -293.5 123.5t-89.5 397.5v940h278v-865q0 -97 5 -215z" />
    <glyph glyph-name="Uacute" unicode="&#xda;" horiz-adv-x="935" 
d="M367 354q6 -83 29 -115t71 -32q49 0 72.5 31.5t29.5 115.5q4 94 4 215v865h279v-940q0 -274 -90 -397.5t-295 -123.5q-204 0 -293.5 123.5t-89.5 397.5v940h278v-865q0 -97 5 -215zM358 1546l95 293h274l-152 -293h-217z" />
    <glyph glyph-name="Ucircumflex" unicode="&#xdb;" horiz-adv-x="935" 
d="M199 1546l143 293h250l143 -293h-176l-92 133l-92 -133h-176zM367 354q6 -83 29 -115t71 -32q49 0 72.5 31.5t29.5 115.5q4 94 4 215v865h279v-940q0 -274 -90 -397.5t-295 -123.5q-204 0 -293.5 123.5t-89.5 397.5v940h278v-865q0 -97 5 -215z" />
    <glyph glyph-name="Udieresis" unicode="&#xdc;" horiz-adv-x="935" 
d="M367 354q6 -83 29 -115t71 -32q49 0 72.5 31.5t29.5 115.5q4 94 4 215v865h279v-940q0 -274 -90 -397.5t-295 -123.5q-204 0 -293.5 123.5t-89.5 397.5v940h278v-865q0 -97 5 -215zM186 1546v236h232v-236h-232zM516 1546v236h232v-236h-232z" />
    <glyph glyph-name="Yacute" unicode="&#xdd;" horiz-adv-x="858" 
d="M291 0v633l-283 801h295l111 -449l14 -72h4l14 72l109 449h295l-281 -801v-633h-278zM322 1546l94 293h274l-151 -293h-217z" />
    <glyph glyph-name="Thorn" unicode="&#xde;" horiz-adv-x="911" 
d="M92 0v1434h273v-269h43q132 0 220 -24.5t141 -79t75 -132.5t22 -194q0 -244 -104.5 -346t-358.5 -102h-38v-287h-273zM365 518h61q92 0 126 44t34 163q0 118 -34 161.5t-126 43.5h-61v-412z" />
    <glyph glyph-name="germandbls" unicode="&#xdf;" horiz-adv-x="827" 
d="M78 0v1114q0 167 71 253.5t224 86.5q278 0 278 -311q0 -175 -100 -246q125 -27 176 -133t51 -313q0 -91 -6.5 -155t-23 -117t-43 -86t-69 -56t-99 -32t-134.5 -9v182q73 0 94 51t21 217q0 127 -10 186t-32.5 80t-72.5 21v180q51 30 72 73.5t21 125.5q0 66 -19 96.5
t-61 30.5q-46 0 -63 -33t-17 -123v-1083h-258z" />
    <glyph glyph-name="agrave" unicode="&#xe0;" horiz-adv-x="802" 
d="M25 250q0 71 23 127.5t73 103t139 73t213 28.5v90q0 69 -18.5 97t-65.5 28q-52 0 -74 -34t-22 -116l-236 49q43 303 353 303q163 0 241 -89.5t78 -266.5v-428q0 -36 13.5 -48.5t45.5 -14.5v-144q-39 -16 -104 -16q-148 0 -182 96q-56 -100 -213 -100q-120 0 -192 64.5
t-72 197.5zM287 279q0 -123 96 -123q90 0 90 102v197q-186 -3 -186 -176zM301 1092l-145 294h270l86 -294h-211z" />
    <glyph glyph-name="aacute" unicode="&#xe1;" horiz-adv-x="802" 
d="M25 250q0 71 23 127.5t73 103t139 73t213 28.5v90q0 69 -18.5 97t-65.5 28q-52 0 -74 -34t-22 -116l-236 49q43 303 353 303q163 0 241 -89.5t78 -266.5v-428q0 -36 13.5 -48.5t45.5 -14.5v-144q-39 -16 -104 -16q-148 0 -182 96q-56 -100 -213 -100q-120 0 -192 64.5
t-72 197.5zM287 279q0 -123 96 -123q90 0 90 102v197q-186 -3 -186 -176zM303 1092l86 294h270l-145 -294h-211z" />
    <glyph glyph-name="acircumflex" unicode="&#xe2;" horiz-adv-x="802" 
d="M25 250q0 71 23 127.5t73 103t139 73t213 28.5v90q0 69 -18.5 97t-65.5 28q-52 0 -74 -34t-22 -116l-236 49q43 303 353 303q163 0 241 -89.5t78 -266.5v-428q0 -36 13.5 -48.5t45.5 -14.5v-144q-39 -16 -104 -16q-148 0 -182 96q-56 -100 -213 -100q-120 0 -192 64.5
t-72 197.5zM287 279q0 -123 96 -123q90 0 90 102v197q-186 -3 -186 -176zM143 1092l146 294h233l146 -294h-174l-88 137l-89 -137h-174z" />
    <glyph glyph-name="atilde" unicode="&#xe3;" horiz-adv-x="802" 
d="M25 250q0 71 23 127.5t73 103t139 73t213 28.5v90q0 69 -18.5 97t-65.5 28q-52 0 -74 -34t-22 -116l-236 49q43 303 353 303q163 0 241 -89.5t78 -266.5v-428q0 -36 13.5 -48.5t45.5 -14.5v-144q-39 -16 -104 -16q-148 0 -182 96q-56 -100 -213 -100q-120 0 -192 64.5
t-72 197.5zM287 279q0 -123 96 -123q90 0 90 102v197q-186 -3 -186 -176zM113 1098q0 144 40.5 204t137.5 60q55 0 94.5 -17.5t57 -38t41.5 -38t51 -17.5q33 0 45 23.5t12 71.5h106q0 -142 -41 -203.5t-139 -61.5q-55 0 -94 17.5t-56.5 38t-41 38t-50.5 17.5q-33 0 -45 -23
t-12 -71h-106z" />
    <glyph glyph-name="adieresis" unicode="&#xe4;" horiz-adv-x="802" 
d="M25 250q0 71 23 127.5t73 103t139 73t213 28.5v90q0 69 -18.5 97t-65.5 28q-52 0 -74 -34t-22 -116l-236 49q43 303 353 303q163 0 241 -89.5t78 -266.5v-428q0 -36 13.5 -48.5t45.5 -14.5v-144q-39 -16 -104 -16q-148 0 -182 96q-56 -100 -213 -100q-120 0 -192 64.5
t-72 197.5zM287 279q0 -123 96 -123q90 0 90 102v197q-186 -3 -186 -176zM131 1092v241h231v-241h-231zM449 1092v241h231v-241h-231z" />
    <glyph glyph-name="aring" unicode="&#xe5;" horiz-adv-x="802" 
d="M25 250q0 71 23 127.5t73 103t139 73t213 28.5v90q0 69 -18.5 97t-65.5 28q-52 0 -74 -34t-22 -116l-236 49q43 303 353 303q163 0 241 -89.5t78 -266.5v-428q0 -36 13.5 -48.5t45.5 -14.5v-144q-39 -16 -104 -16q-148 0 -182 96q-56 -100 -213 -100q-120 0 -192 64.5
t-72 197.5zM287 279q0 -123 96 -123q90 0 90 102v197q-186 -3 -186 -176zM406 1067q-95 0 -154 47.5t-59 126.5q0 81 59 127.5t154 46.5t153.5 -46.5t58.5 -127.5q0 -79 -59 -126.5t-153 -47.5zM406 1169q34 0 52.5 19.5t18.5 52.5t-18.5 52.5t-52.5 19.5q-35 0 -53.5 -19.5
t-18.5 -52.5t18.5 -52.5t53.5 -19.5z" />
    <glyph glyph-name="ae" unicode="&#xe6;" horiz-adv-x="1206" 
d="M25 250q0 71 22.5 128t72.5 104t139 73.5t212 28.5v88q0 72 -18 101.5t-64 29.5q-52 0 -74 -36t-22 -120l-236 49q43 303 351 303q133 0 194 -67q73 67 197 67q134 0 213 -53q78 -54 109.5 -165.5t31.5 -327.5h-442q0 -134 10 -189q6 -46 24 -66t56 -20q52 0 69.5 37.5
t20.5 134.5l252 -53q-19 -157 -101 -237t-241 -80q-200 0 -271 151q-44 -145 -243 -145q-118 0 -190 65.5t-72 198.5zM721 721q-7 -48 -10 -137h180q-3 102 -8 137q-5 43 -22.5 64.5t-59.5 21.5q-36 0 -55 -20t-25 -66zM287 279q0 -123 94 -123q90 0 90 102v195
q-184 -3 -184 -174z" />
    <glyph glyph-name="ccedilla" unicode="&#xe7;" horiz-adv-x="790" 
d="M225 -242q61 -12 113 -12q48 0 66 12t18 41q0 28 -21 39.5t-77 11.5q-25 0 -37 -2l43 138q-79 12 -133 49q-77 54 -109.5 158t-32.5 296q0 193 32.5 298t109.5 159q82 55 211 55q305 0 340 -313l-256 -53q-2 40 -4 59.5t-7 44t-13.5 35t-23 18t-36.5 7.5q-35 0 -52.5 -20
t-23.5 -64q-8 -47 -8 -226q0 -176 8 -223q6 -46 24 -66t52 -20q50 0 65.5 36.5t18.5 137.5l258 -55q-36 -316 -340 -319l-17 -60q106 0 150.5 -27.5t44.5 -95.5q0 -78 -49.5 -109.5t-169.5 -31.5q-62 0 -144 10v92z" />
    <glyph glyph-name="egrave" unicode="&#xe8;" horiz-adv-x="815" 
d="M197 35q-77 53 -109.5 157t-32.5 297t32.5 298t109.5 159q82 55 211 55q131 0 213 -55q78 -54 109.5 -167.5t31.5 -332.5h-445q0 -125 11 -182q6 -46 24 -66t56 -20q53 0 71 37t21 135l252 -53q-19 -157 -102 -237t-240 -80q-131 0 -213 55zM328 725q-9 -57 -11 -131h183
q-4 101 -8 131q-5 43 -22.5 64.5t-59.5 21.5q-36 0 -56 -20t-26 -66zM301 1092l-145 294h270l86 -294h-211z" />
    <glyph glyph-name="eacute" unicode="&#xe9;" horiz-adv-x="815" 
d="M305 1092l86 294h271l-146 -294h-211zM197 35q-77 53 -109.5 157t-32.5 297t32.5 298t109.5 159q82 55 211 55q131 0 213 -55q78 -54 109.5 -167.5t31.5 -332.5h-445q0 -125 11 -182q6 -46 24 -66t56 -20q53 0 71 37t21 135l252 -53q-19 -157 -102 -237t-240 -80
q-131 0 -213 55zM328 725q-9 -57 -11 -131h183q-4 101 -8 131q-5 43 -22.5 64.5t-59.5 21.5q-36 0 -56 -20t-26 -66z" />
    <glyph glyph-name="ecircumflex" unicode="&#xea;" horiz-adv-x="815" 
d="M145 1092l146 294h233l146 -294h-174l-88 137l-89 -137h-174zM197 35q-77 53 -109.5 157t-32.5 297t32.5 298t109.5 159q82 55 211 55q131 0 213 -55q78 -54 109.5 -167.5t31.5 -332.5h-445q0 -125 11 -182q6 -46 24 -66t56 -20q53 0 71 37t21 135l252 -53
q-19 -157 -102 -237t-240 -80q-131 0 -213 55zM328 725q-9 -57 -11 -131h183q-4 101 -8 131q-5 43 -22.5 64.5t-59.5 21.5q-36 0 -56 -20t-26 -66z" />
    <glyph glyph-name="edieresis" unicode="&#xeb;" horiz-adv-x="815" 
d="M133 1092v241h232v-241h-232zM451 1092v241h231v-241h-231zM197 35q-77 53 -109.5 157t-32.5 297t32.5 298t109.5 159q82 55 211 55q131 0 213 -55q78 -54 109.5 -167.5t31.5 -332.5h-445q0 -125 11 -182q6 -46 24 -66t56 -20q53 0 71 37t21 135l252 -53
q-19 -157 -102 -237t-240 -80q-131 0 -213 55zM328 725q-9 -57 -11 -131h183q-4 101 -8 131q-5 43 -22.5 64.5t-59.5 21.5q-36 0 -56 -20t-26 -66z" />
    <glyph glyph-name="igrave" unicode="&#xec;" horiz-adv-x="415" 
d="M78 0v983h262v-983h-262zM102 1092l-145 294h270l86 -294h-211z" />
    <glyph glyph-name="iacute" unicode="&#xed;" horiz-adv-x="415" 
d="M106 1092l87 294h270l-146 -294h-211zM78 0v983h262v-983h-262z" />
    <glyph glyph-name="icircumflex" unicode="&#xee;" horiz-adv-x="415" 
d="M-53 1092l145 294h234l145 -294h-174l-88 137l-88 -137h-174zM78 0v983h262v-983h-262z" />
    <glyph glyph-name="idieresis" unicode="&#xef;" horiz-adv-x="415" 
d="M-66 1092v241h232v-241h-232zM252 1092v241h231v-241h-231zM78 0v983h262v-983h-262z" />
    <glyph glyph-name="eth" unicode="&#xf0;" horiz-adv-x="819" 
d="M219 1006l-26 75l188 64q-58 45 -193 98l97 205q128 -58 208 -109t132 -112l125 43l26 -76l-104 -35q49 -87 66.5 -215t17.5 -344q0 -184 -16 -299t-58 -189t-108 -103t-171 -29q-72 0 -124.5 13.5t-96 46.5t-70 89.5t-41 142.5t-14.5 205q0 111 12.5 193.5t34.5 135
t56.5 84t74.5 44t93 12.5q74 0 125 -26.5t65 -71.5h2q-10 82 -26 135.5t-50 97.5zM412 178q35 0 52.5 20.5t26.5 81.5t9 183t-8.5 182.5t-27.5 83.5t-58 23q-32 0 -48.5 -18t-26 -79.5t-9.5 -183.5q0 -125 9.5 -188.5t27.5 -84t53 -20.5z" />
    <glyph glyph-name="ntilde" unicode="&#xf1;" horiz-adv-x="831" 
d="M76 0v983h237l17 -92q51 108 200 108q120 0 175 -80.5t55 -283.5v-635h-262v659q0 96 -17.5 130t-56.5 34q-48 0 -67 -37.5t-19 -146.5v-639h-262zM123 1098q0 144 40.5 204t137.5 60q55 0 94.5 -17.5t57 -38t41.5 -38t51 -17.5q33 0 45 23.5t12 71.5h107
q0 -142 -41.5 -203.5t-139.5 -61.5q-55 0 -94 17.5t-56 38t-40.5 38t-50.5 17.5q-33 0 -45.5 -23t-12.5 -71h-106z" />
    <glyph glyph-name="ograve" unicode="&#xf2;" horiz-adv-x="817" 
d="M197 35q-77 54 -109.5 158t-32.5 296q0 193 32.5 298t109.5 159q82 55 211 55q131 0 213 -55q75 -53 108 -158t33 -299q0 -192 -33 -296.5t-108 -157.5q-82 -55 -213 -55q-129 0 -211 55zM332 264q6 -44 24 -64t52 -20q33 0 52.5 18.5t26.5 65.5q9 70 9 225q0 161 -9 226
q-7 46 -25.5 65t-53.5 19q-34 0 -52 -19.5t-24 -64.5q-8 -47 -8 -226q0 -176 8 -225zM303 1092l-145 294h270l86 -294h-211z" />
    <glyph glyph-name="oacute" unicode="&#xf3;" horiz-adv-x="817" 
d="M305 1092l86 294h271l-146 -294h-211zM197 35q-77 54 -109.5 158t-32.5 296q0 193 32.5 298t109.5 159q82 55 211 55q131 0 213 -55q75 -53 108 -158t33 -299q0 -192 -33 -296.5t-108 -157.5q-82 -55 -213 -55q-129 0 -211 55zM332 264q6 -44 24 -64t52 -20
q33 0 52.5 18.5t26.5 65.5q9 70 9 225q0 161 -9 226q-7 46 -25.5 65t-53.5 19q-34 0 -52 -19.5t-24 -64.5q-8 -47 -8 -226q0 -176 8 -225z" />
    <glyph glyph-name="ocircumflex" unicode="&#xf4;" horiz-adv-x="817" 
d="M145 1092l146 294h233l146 -294h-174l-88 137l-89 -137h-174zM197 35q-77 54 -109.5 158t-32.5 296q0 193 32.5 298t109.5 159q82 55 211 55q131 0 213 -55q75 -53 108 -158t33 -299q0 -192 -33 -296.5t-108 -157.5q-82 -55 -213 -55q-129 0 -211 55zM332 264
q6 -44 24 -64t52 -20q33 0 52.5 18.5t26.5 65.5q9 70 9 225q0 161 -9 226q-7 46 -25.5 65t-53.5 19q-34 0 -52 -19.5t-24 -64.5q-8 -47 -8 -226q0 -176 8 -225z" />
    <glyph glyph-name="otilde" unicode="&#xf5;" horiz-adv-x="817" 
d="M197 35q-77 54 -109.5 158t-32.5 296q0 193 32.5 298t109.5 159q82 55 211 55q131 0 213 -55q75 -53 108 -158t33 -299q0 -192 -33 -296.5t-108 -157.5q-82 -55 -213 -55q-129 0 -211 55zM332 264q6 -44 24 -64t52 -20q33 0 52.5 18.5t26.5 65.5q9 70 9 225q0 161 -9 226
q-7 46 -25.5 65t-53.5 19q-34 0 -52 -19.5t-24 -64.5q-8 -47 -8 -226q0 -176 8 -225zM115 1098q0 144 40.5 204t137.5 60q55 0 94.5 -17.5t57 -38t41.5 -38t51 -17.5q33 0 45 23.5t12 71.5h106q0 -142 -41 -203.5t-139 -61.5q-55 0 -94 17.5t-56 38t-40.5 38t-50.5 17.5
q-33 0 -45.5 -23t-12.5 -71h-106z" />
    <glyph glyph-name="odieresis" unicode="&#xf6;" horiz-adv-x="817" 
d="M133 1092v241h232v-241h-232zM451 1092v241h231v-241h-231zM197 35q-77 54 -109.5 158t-32.5 296q0 193 32.5 298t109.5 159q82 55 211 55q131 0 213 -55q75 -53 108 -158t33 -299q0 -192 -33 -296.5t-108 -157.5q-82 -55 -213 -55q-129 0 -211 55zM332 264q6 -44 24 -64
t52 -20q33 0 52.5 18.5t26.5 65.5q9 70 9 225q0 161 -9 226q-7 46 -25.5 65t-53.5 19q-34 0 -52 -19.5t-24 -64.5q-8 -47 -8 -226q0 -176 8 -225z" />
    <glyph glyph-name="divide" unicode="&#xf7;" horiz-adv-x="888" 
d="M324 256v244h241v-244h-241zM324 952v242h241v-242h-241zM102 623v206h684v-206h-684z" />
    <glyph glyph-name="oslash" unicode="&#xf8;" horiz-adv-x="817" 
d="M76 -39l63 125q-45 58 -64.5 153t-19.5 250q0 193 32.5 298t109.5 159q82 55 211 55q107 0 186 -40l24 47h113l-57 -111q46 -59 67 -156t21 -252q0 -192 -33 -296.5t-108 -157.5q-82 -55 -213 -55q-111 0 -187 40l-31 -59h-114zM496 489v80l-156 -340q14 -49 68 -49
q33 0 52.5 18.5t26.5 65.5q9 70 9 225zM324 489v-63l151 332q-20 41 -67 41q-34 0 -52 -19.5t-24 -64.5q-8 -47 -8 -226z" />
    <glyph glyph-name="ugrave" unicode="&#xf9;" horiz-adv-x="829" 
d="M295 -16q-114 0 -168.5 80.5t-54.5 279.5v639h262v-661q0 -96 16 -129t56 -33q47 0 65 37t18 147v639h263v-983h-232l-18 102q-49 -118 -207 -118zM307 1092l-145 294h270l86 -294h-211z" />
    <glyph glyph-name="uacute" unicode="&#xfa;" horiz-adv-x="829" 
d="M309 1092l86 294h271l-146 -294h-211zM295 -16q-114 0 -168.5 80.5t-54.5 279.5v639h262v-661q0 -96 16 -129t56 -33q47 0 65 37t18 147v639h263v-983h-232l-18 102q-49 -118 -207 -118z" />
    <glyph glyph-name="ucircumflex" unicode="&#xfb;" horiz-adv-x="829" 
d="M150 1092l145 294h233l146 -294h-174l-88 137l-88 -137h-174zM295 -16q-114 0 -168.5 80.5t-54.5 279.5v639h262v-661q0 -96 16 -129t56 -33q47 0 65 37t18 147v639h263v-983h-232l-18 102q-49 -118 -207 -118z" />
    <glyph glyph-name="udieresis" unicode="&#xfc;" horiz-adv-x="829" 
d="M137 1092v241h232v-241h-232zM455 1092v241h231v-241h-231zM295 -16q-114 0 -168.5 80.5t-54.5 279.5v639h262v-661q0 -96 16 -129t56 -33q47 0 65 37t18 147v639h263v-983h-232l-18 102q-49 -118 -207 -118z" />
    <glyph glyph-name="yacute" unicode="&#xfd;" horiz-adv-x="788" 
d="M39 -115q40 -8 84 -8q66 0 94.5 23.5t28.5 85.5q0 46 -23 147l-207 850h271l94 -571l14 -95h4l15 95l94 571h270l-188 -807q-25 -106 -47.5 -178t-52.5 -132.5t-65 -96.5t-84.5 -61t-110.5 -34.5t-144 -9.5zM295 1092l86 294h270l-145 -294h-211z" />
    <glyph glyph-name="thorn" unicode="&#xfe;" horiz-adv-x="835" 
d="M344 268q6 -44 25.5 -63t54.5 -19q37 0 54.5 19t23.5 65q8 74 8 219q0 169 -8 216q-6 48 -23 68t-53 20q-38 0 -55 -19t-25 -67q-12 -71 -12 -218q0 -160 10 -221zM518 -14q-124 0 -178 71v-383h-262v1760h258v-529q49 92 172 92q64 0 105.5 -18t74.5 -57
q47 -57 67.5 -149t20.5 -281q0 -188 -19.5 -287t-68.5 -154q-56 -65 -170 -65z" />
    <glyph glyph-name="ydieresis" unicode="&#xff;" horiz-adv-x="788" 
d="M39 -115q40 -8 84 -8q66 0 94.5 23.5t28.5 85.5q0 46 -23 147l-207 850h271l94 -571l14 -95h4l15 95l94 571h270l-188 -807q-25 -106 -47.5 -178t-52.5 -132.5t-65 -96.5t-84.5 -61t-110.5 -34.5t-144 -9.5zM123 1092v241h231v-241h-231zM440 1092v241h232v-241h-232z
" />
    <glyph glyph-name="Amacron" unicode="&#x100;" horiz-adv-x="845" 
d="M4 0l250 1434h338l248 -1434h-271l-28 203h-238l-29 -203h-270zM410 969l-82 -584h188l-82 584l-10 84h-4zM150 1546v195h544v-195h-544z" />
    <glyph glyph-name="amacron" unicode="&#x101;" horiz-adv-x="802" 
d="M25 250q0 71 23 127.5t73 103t139 73t213 28.5v90q0 69 -18.5 97t-65.5 28q-52 0 -74 -34t-22 -116l-236 49q43 303 353 303q163 0 241 -89.5t78 -266.5v-428q0 -36 13.5 -48.5t45.5 -14.5v-144q-39 -16 -104 -16q-148 0 -182 96q-56 -100 -213 -100q-120 0 -192 64.5
t-72 197.5zM287 279q0 -123 96 -123q90 0 90 102v197q-186 -3 -186 -176zM137 1092v184h537v-184h-537z" />
    <glyph glyph-name="Abreve" unicode="&#x102;" horiz-adv-x="845" 
d="M4 0l250 1434h338l248 -1434h-271l-28 203h-238l-29 -203h-270zM410 969l-82 -584h188l-82 584l-10 84h-4zM422 1528q-116 0 -187 62.5t-88 189.5l148 26q10 -61 40.5 -86.5t86.5 -25.5t86.5 25.5t40.5 86.5l147 -26q-34 -252 -274 -252z" />
    <glyph glyph-name="abreve" unicode="&#x103;" horiz-adv-x="802" 
d="M25 250q0 71 23 127.5t73 103t139 73t213 28.5v90q0 69 -18.5 97t-65.5 28q-52 0 -74 -34t-22 -116l-236 49q43 303 353 303q163 0 241 -89.5t78 -266.5v-428q0 -36 13.5 -48.5t45.5 -14.5v-144q-39 -16 -104 -16q-148 0 -182 96q-56 -100 -213 -100q-120 0 -192 64.5
t-72 197.5zM287 279q0 -123 96 -123q90 0 90 102v197q-186 -3 -186 -176zM406 1077q-122 0 -190 59.5t-87 184.5l147 27q10 -61 41.5 -87t88.5 -26t88 26t41 87l147 -27q-19 -125 -86.5 -184.5t-189.5 -59.5z" />
    <glyph glyph-name="Aogonek" unicode="&#x104;" horiz-adv-x="845" 
d="M668 0h-99l-28 203h-238l-29 -203h-270l250 1434h338l248 -1434h-21q-52 -60 -69 -93t-17 -61q0 -61 76 -61q19 0 33 2v-133q-36 -4 -64 -4q-93 0 -152 43t-59 119q0 49 23 88.5t78 99.5zM412 969l-82 -584h186l-82 584l-8 84h-6z" />
    <glyph glyph-name="aogonek" unicode="&#x105;" horiz-adv-x="802" 
d="M25 250q0 71 23 127.5t73 103t139 73t213 28.5v90q0 69 -18.5 97t-65.5 28q-52 0 -74 -34t-22 -116l-236 49q43 303 353 303q163 0 241 -89.5t78 -266.5v-428q0 -36 13.5 -48.5t45.5 -14.5v-144q-49 -41 -77.5 -86.5t-28.5 -81.5q0 -32 16.5 -45.5t53.5 -13.5q16 0 36 4
v-127q-20 -4 -61 -4q-209 0 -209 153q0 48 23.5 90t79.5 101q-92 17 -119 90q-56 -100 -213 -100q-120 0 -192 64.5t-72 197.5zM287 279q0 -123 96 -123q90 0 90 102v197q-186 -3 -186 -176z" />
    <glyph glyph-name="Cacute" unicode="&#x106;" horiz-adv-x="882" 
d="M129 139q-63 131 -63 578q0 446 63 577q39 81 125.5 123.5t200.5 42.5q103 0 189 -35.5t128 -109.5q48 -83 62 -283l-275 -57q-3 142 -18 190q-19 66 -84 66q-43 0 -64.5 -21t-30.5 -75q-16 -91 -16 -418t16 -418q9 -54 30.5 -75t64.5 -21q68 0 86 67q16 60 18 211
l275 -57q-12 -217 -64 -305q-40 -70 -125 -108t-192 -38q-114 0 -200.5 42.5t-125.5 123.5zM346 1546l94 293h275l-152 -293h-217z" />
    <glyph glyph-name="cacute" unicode="&#x107;" horiz-adv-x="790" 
d="M305 1092l86 294h271l-146 -294h-211zM197 35q-77 54 -109.5 158t-32.5 296q0 193 32.5 298t109.5 159q82 55 211 55q305 0 340 -313l-256 -53q-2 40 -4 59.5t-7 44t-13.5 35t-23 18t-36.5 7.5q-35 0 -52.5 -20t-23.5 -64q-8 -47 -8 -226q0 -176 8 -223q6 -46 24 -66
t52 -20q50 0 65.5 36.5t18.5 137.5l258 -55q-36 -319 -342 -319q-129 0 -211 55z" />
    <glyph glyph-name="Cdotaccent" unicode="&#x10a;" horiz-adv-x="882" 
d="M330 1546v244h250v-244h-250zM129 139q-63 131 -63 578q0 446 63 577q39 81 125.5 123.5t200.5 42.5q103 0 189 -35.5t128 -109.5q48 -83 62 -283l-275 -57q-3 142 -18 190q-19 66 -84 66q-43 0 -64.5 -21t-30.5 -75q-16 -91 -16 -418t16 -418q9 -54 30.5 -75t64.5 -21
q68 0 86 67q16 60 18 211l275 -57q-12 -217 -64 -305q-40 -70 -125 -108t-192 -38q-114 0 -200.5 42.5t-125.5 123.5z" />
    <glyph glyph-name="cdotaccent" unicode="&#x10b;" horiz-adv-x="790" 
d="M197 35q-77 54 -109.5 158t-32.5 296q0 193 32.5 298t109.5 159q82 55 211 55q305 0 340 -313l-256 -53q-2 40 -4 59.5t-7 44t-13.5 35t-23 18t-36.5 7.5q-35 0 -52.5 -20t-23.5 -64q-8 -47 -8 -226q0 -176 8 -223q6 -46 24 -66t52 -20q50 0 65.5 36.5t18.5 137.5
l258 -55q-36 -319 -342 -319q-129 0 -211 55zM287 1092v245h241v-245h-241z" />
    <glyph glyph-name="Ccaron" unicode="&#x10c;" horiz-adv-x="882" 
d="M129 139q-63 131 -63 578q0 446 63 577q39 81 125.5 123.5t200.5 42.5q103 0 189 -35.5t128 -109.5q48 -83 62 -283l-275 -57q-3 142 -18 190q-19 66 -84 66q-43 0 -64.5 -21t-30.5 -75q-16 -91 -16 -418t16 -418q9 -54 30.5 -75t64.5 -21q68 0 86 67q16 60 18 211
l275 -57q-12 -217 -64 -305q-40 -70 -125 -108t-192 -38q-114 0 -200.5 42.5t-125.5 123.5zM330 1546l-144 293h176l93 -137l92 137h176l-143 -293h-250z" />
    <glyph glyph-name="ccaron" unicode="&#x10d;" horiz-adv-x="790" 
d="M291 1092l-146 294h174l89 -139l88 139h174l-146 -294h-233zM197 35q-77 54 -109.5 158t-32.5 296q0 193 32.5 298t109.5 159q82 55 211 55q305 0 340 -313l-256 -53q-2 40 -4 59.5t-7 44t-13.5 35t-23 18t-36.5 7.5q-35 0 -52.5 -20t-23.5 -64q-8 -47 -8 -226
q0 -176 8 -223q6 -46 24 -66t52 -20q50 0 65.5 36.5t18.5 137.5l258 -55q-36 -319 -342 -319q-129 0 -211 55z" />
    <glyph glyph-name="Dcaron" unicode="&#x10e;" horiz-adv-x="927" 
d="M88 0v1434h367q174 0 261 -59.5t118 -203.5q17 -74 22.5 -172t5.5 -282q0 -191 -6 -285.5t-22 -169.5q-32 -150 -121 -206t-258 -56h-367zM367 236h57q42 0 63 3t40 16.5t28 40t14 73.5q13 107 13 348q0 247 -13 348q-5 48 -14 75t-28 40.5t-40 16.5t-63 3h-57v-964z
M328 1546l-144 293h176l93 -137l92 137h176l-143 -293h-250z" />
    <glyph glyph-name="dcaron" unicode="&#x10f;" horiz-adv-x="874" 
d="M844 1098q18 88 18 184q0 73 -14 152h194q13 -70 13 -142q0 -102 -27 -194h-184zM336 270q6 -49 22.5 -66.5t55.5 -17.5q38 0 54.5 20.5t23.5 61.5q10 61 10 221q0 146 -10 218q-7 46 -26.5 66t-53.5 20q-38 0 -55 -20t-23 -68q-6 -53 -6 -216q0 -153 8 -219zM147 51
q-50 54 -69 155.5t-19 285.5q0 189 20.5 281t67.5 149q33 39 75 57t108 18q114 0 168 -73v510h260v-1434h-230l-16 88q-52 -102 -195 -102q-111 0 -170 65z" />
    <glyph glyph-name="Dcroat" unicode="&#x110;" horiz-adv-x="927" 
d="M2 643v236h86v555h367q174 0 261 -59.5t118 -203.5q17 -74 22.5 -172t5.5 -282q0 -191 -6 -285.5t-22 -169.5q-32 -150 -121 -206t-258 -56h-367v643h-86zM367 236h57q42 0 63 3t40 16.5t28 40t14 73.5q13 107 13 348q0 247 -13 348q-5 48 -14 75t-28 40.5t-40 16.5
t-63 3h-57v-321h104v-236h-104v-407z" />
    <glyph glyph-name="dcroat" unicode="&#x111;" horiz-adv-x="835" 
d="M225 1120v152h273v162h260v-162h86v-152h-86v-1120h-230l-16 88q-52 -102 -195 -102q-111 0 -170 65q-50 54 -69 155.5t-19 285.5q0 189 20.5 281t67.5 149q33 39 75 57t108 18q114 0 168 -73v196h-273zM336 270q6 -49 22.5 -66.5t55.5 -17.5q38 0 54.5 20.5t23.5 61.5
q10 61 10 221q0 146 -10 218q-7 46 -26.5 66t-53.5 20q-38 0 -55 -20t-23 -68q-6 -53 -6 -216q0 -153 8 -219z" />
    <glyph glyph-name="Emacron" unicode="&#x112;" horiz-adv-x="808" 
d="M88 0v1434h676v-242h-412v-311h301v-238h-301v-397h412v-246h-676zM152 1546v195h544v-195h-544z" />
    <glyph glyph-name="emacron" unicode="&#x113;" horiz-adv-x="815" 
d="M197 35q-77 53 -109.5 157t-32.5 297t32.5 298t109.5 159q82 55 211 55q131 0 213 -55q78 -54 109.5 -167.5t31.5 -332.5h-445q0 -125 11 -182q6 -46 24 -66t56 -20q53 0 71 37t21 135l252 -53q-19 -157 -102 -237t-240 -80q-131 0 -213 55zM328 725q-9 -57 -11 -131h183
q-4 101 -8 131q-5 43 -22.5 64.5t-59.5 21.5q-36 0 -56 -20t-26 -66zM139 1092v184h537v-184h-537z" />
    <glyph glyph-name="Ebreve" unicode="&#x114;" horiz-adv-x="808" 
d="M88 0v1434h676v-242h-412v-311h301v-238h-301v-397h412v-246h-676zM424 1528q-240 0 -274 252l147 26q10 -61 40.5 -86.5t86.5 -25.5t86.5 25.5t40.5 86.5l147 -26q-34 -252 -274 -252z" />
    <glyph glyph-name="ebreve" unicode="&#x115;" horiz-adv-x="815" 
d="M197 35q-77 53 -109.5 157t-32.5 297t32.5 298t109.5 159q82 55 211 55q131 0 213 -55q78 -54 109.5 -167.5t31.5 -332.5h-445q0 -125 11 -182q6 -46 24 -66t56 -20q53 0 71 37t21 135l252 -53q-19 -157 -102 -237t-240 -80q-131 0 -213 55zM328 725q-9 -57 -11 -131h183
q-4 101 -8 131q-5 43 -22.5 64.5t-59.5 21.5q-36 0 -56 -20t-26 -66zM408 1077q-122 0 -190 59.5t-87 184.5l148 27q10 -61 41 -87t88 -26t88 26t41 87l147 -27q-19 -125 -86.5 -184.5t-189.5 -59.5z" />
    <glyph glyph-name="Edotaccent" unicode="&#x116;" horiz-adv-x="808" 
d="M299 1546v244h250v-244h-250zM88 0v1434h676v-242h-412v-311h301v-238h-301v-397h412v-246h-676z" />
    <glyph glyph-name="edotaccent" unicode="&#x117;" horiz-adv-x="815" 
d="M197 35q-77 53 -109.5 157t-32.5 297t32.5 298t109.5 159q82 55 211 55q131 0 213 -55q78 -54 109.5 -167.5t31.5 -332.5h-445q0 -125 11 -182q6 -46 24 -66t56 -20q53 0 71 37t21 135l252 -53q-19 -157 -102 -237t-240 -80q-131 0 -213 55zM328 725q-9 -57 -11 -131h183
q-4 101 -8 131q-5 43 -22.5 64.5t-59.5 21.5q-36 0 -56 -20t-26 -66zM287 1092v245h241v-245h-241z" />
    <glyph glyph-name="Eogonek" unicode="&#x118;" horiz-adv-x="808" 
d="M88 0v1434h676v-242h-412v-311h301v-238h-301v-397h412v-246h-23q-52 -60 -69 -93t-17 -61q0 -61 76 -61q19 0 33 2v-133q-36 -4 -64 -4q-93 0 -152 43t-59 119q0 49 23 88.5t78 99.5h-502z" />
    <glyph glyph-name="eogonek" unicode="&#x119;" horiz-adv-x="815" 
d="M197 35q-77 53 -109.5 157t-32.5 297t32.5 298t109.5 159q82 55 211 55q131 0 213 -55q77 -54 109 -166t32 -334h-445q0 -125 11 -182q6 -46 24 -66t56 -20q53 0 71 37t21 135l252 -53q-15 -131 -78 -211q-38 -52 -50 -76.5t-12 -48.5q0 -65 76 -65q17 0 27 2v-125
q-16 -4 -53 -4q-96 0 -153.5 37.5t-57.5 115.5q0 37 14 62l-2 2q-24 -6 -53 -6q-131 0 -213 55zM328 725q-9 -57 -11 -131h183q-4 101 -8 131q-5 43 -22.5 64.5t-59.5 21.5q-36 0 -56 -20t-26 -66z" />
    <glyph glyph-name="Ecaron" unicode="&#x11a;" horiz-adv-x="808" 
d="M88 0v1434h676v-242h-412v-311h301v-238h-301v-397h412v-246h-676zM299 1546l-143 293h176l92 -137l92 137h176l-143 -293h-250z" />
    <glyph glyph-name="ecaron" unicode="&#x11b;" horiz-adv-x="815" 
d="M291 1092l-146 294h174l89 -139l88 139h174l-146 -294h-233zM197 35q-77 53 -109.5 157t-32.5 297t32.5 298t109.5 159q82 55 211 55q131 0 213 -55q78 -54 109.5 -167.5t31.5 -332.5h-445q0 -125 11 -182q6 -46 24 -66t56 -20q53 0 71 37t21 135l252 -53
q-19 -157 -102 -237t-240 -80q-131 0 -213 55zM328 725q-9 -57 -11 -131h183q-4 101 -8 131q-5 43 -22.5 64.5t-59.5 21.5q-36 0 -56 -20t-26 -66z" />
    <glyph glyph-name="Gbreve" unicode="&#x11e;" horiz-adv-x="903" 
d="M127 139q-66 135 -66 576q0 446 64 579q39 84 126.5 125t199.5 41q106 0 190.5 -35.5t126.5 -109.5q48 -81 63 -283l-276 -57q-3 142 -18 190q-10 36 -30 51t-54 15q-43 0 -64.5 -21t-30.5 -75q-16 -91 -16 -418q0 -323 16 -414q9 -57 31.5 -77.5t65.5 -20.5t65 22.5
t31 73.5q12 68 12 272h-98v218h369v-791h-146l-22 115q-62 -135 -248 -135q-215 0 -291 159zM451 1528q-116 0 -187 62.5t-88 189.5l148 26q10 -61 40.5 -86.5t86.5 -25.5t86.5 25.5t40.5 86.5l147 -26q-34 -252 -274 -252z" />
    <glyph glyph-name="gbreve" unicode="&#x11f;" horiz-adv-x="808" 
d="M12 -139q0 64 38.5 107.5t105.5 62.5q-105 50 -105 159q0 59 31 99t76 57q-103 97 -103 283q0 114 27 184.5t86 118.5q42 34 87.5 50.5t117.5 16.5q73 0 125.5 -19.5t101.5 -68.5q59 95 201 95v-203q-32 4 -56 4q-43 0 -79 -10q24 -62 24 -168q0 -205 -112 -295
q-81 -66 -205 -66q-66 0 -127 23q-6 -12 -6 -29q0 -41 43 -55t176 -27t206 -43.5t100.5 -78t27.5 -128.5q0 -156 -96 -221t-285 -65q-115 0 -202.5 21.5t-142.5 71.5t-55 124zM457 629q0 104 -17.5 141t-66.5 37t-66.5 -37t-17.5 -141q0 -103 17.5 -139.5t66.5 -36.5
t66.5 36.5t17.5 139.5zM391 -23l-92 13q-55 -27 -55 -94q0 -50 37 -73.5t129 -23.5q89 0 120 20.5t31 67.5q0 44 -33 61t-137 29zM373 1077q-122 0 -190 59.5t-87 184.5l148 27q10 -61 41 -87t88 -26t88 26t41 87l147 -27q-19 -125 -86.5 -184.5t-189.5 -59.5z" />
    <glyph glyph-name="Gdotaccent" unicode="&#x120;" horiz-adv-x="903" 
d="M326 1546v244h249v-244h-249zM127 139q-66 135 -66 576q0 446 64 579q39 84 126.5 125t199.5 41q106 0 190.5 -35.5t126.5 -109.5q48 -81 63 -283l-276 -57q-3 142 -18 190q-10 36 -30 51t-54 15q-43 0 -64.5 -21t-30.5 -75q-16 -91 -16 -418q0 -323 16 -414
q9 -57 31.5 -77.5t65.5 -20.5t65 22.5t31 73.5q12 68 12 272h-98v218h369v-791h-146l-22 115q-62 -135 -248 -135q-215 0 -291 159z" />
    <glyph glyph-name="gdotaccent" unicode="&#x121;" horiz-adv-x="808" 
d="M12 -139q0 64 38.5 107.5t105.5 62.5q-105 50 -105 159q0 59 31 99t76 57q-103 97 -103 283q0 114 27 184.5t86 118.5q42 34 87.5 50.5t117.5 16.5q73 0 125.5 -19.5t101.5 -68.5q59 95 201 95v-203q-32 4 -56 4q-43 0 -79 -10q24 -62 24 -168q0 -205 -112 -295
q-81 -66 -205 -66q-66 0 -127 23q-6 -12 -6 -29q0 -41 43 -55t176 -27t206 -43.5t100.5 -78t27.5 -128.5q0 -156 -96 -221t-285 -65q-115 0 -202.5 21.5t-142.5 71.5t-55 124zM457 629q0 104 -17.5 141t-66.5 37t-66.5 -37t-17.5 -141q0 -103 17.5 -139.5t66.5 -36.5
t66.5 36.5t17.5 139.5zM391 -23l-92 13q-55 -27 -55 -94q0 -50 37 -73.5t129 -23.5q89 0 120 20.5t31 67.5q0 44 -33 61t-137 29zM252 1092v245h242v-245h-242z" />
    <glyph glyph-name="Gcommaaccent" unicode="&#x122;" horiz-adv-x="903" 
d="M332 -74h223q4 -31 4 -73q0 -135 -57 -218h-195q35 87 35 179q0 61 -10 112zM127 139q-66 135 -66 576q0 446 64 579q39 84 126.5 125t199.5 41q106 0 190.5 -35.5t126.5 -109.5q48 -81 63 -283l-276 -57q-3 142 -18 190q-10 36 -30 51t-54 15q-43 0 -64.5 -21t-30.5 -75
q-16 -91 -16 -418q0 -323 16 -414q9 -57 31.5 -77.5t65.5 -20.5t65 22.5t31 73.5q12 68 12 272h-98v218h369v-791h-146l-22 115q-62 -135 -248 -135q-215 0 -291 159z" />
    <glyph glyph-name="gcommaaccent" unicode="&#x123;" horiz-adv-x="808" 
d="M268 1090q-4 35 -4 77q0 133 60 219h190q-35 -87 -35 -178q0 -46 10 -118h-221zM12 -139q0 64 38.5 107.5t105.5 62.5q-105 50 -105 159q0 59 31 99t76 57q-103 97 -103 283q0 114 27 184.5t86 118.5q42 34 87.5 50.5t117.5 16.5q73 0 125.5 -19.5t101.5 -68.5
q59 95 201 95v-203q-32 4 -56 4q-43 0 -79 -10q24 -62 24 -168q0 -205 -112 -295q-81 -66 -205 -66q-66 0 -127 23q-6 -12 -6 -29q0 -41 43 -55t176 -27t206 -43.5t100.5 -78t27.5 -128.5q0 -156 -96 -221t-285 -65q-115 0 -202.5 21.5t-142.5 71.5t-55 124zM457 629
q0 104 -17.5 141t-66.5 37t-66.5 -37t-17.5 -141q0 -103 17.5 -139.5t66.5 -36.5t66.5 36.5t17.5 139.5zM391 -23l-92 13q-55 -27 -55 -94q0 -50 37 -73.5t129 -23.5q89 0 120 20.5t31 67.5q0 44 -33 61t-137 29z" />
    <glyph glyph-name="Hbar" unicode="&#x126;" horiz-adv-x="944" 
d="M4 1083v181h84v170h279v-170h211v170h278v-170h84v-181h-84v-1083h-278v633h-211v-633h-279v1083h-84zM367 1083v-196h211v196h-211z" />
    <glyph glyph-name="hbar" unicode="&#x127;" horiz-adv-x="831" 
d="M-8 1120v152h84v162h262v-162h272v-152h-272v-217q52 96 192 96q120 0 175 -80.5t55 -283.5v-635h-262v659q0 96 -17.5 130t-56.5 34q-48 0 -67 -37.5t-19 -146.5v-639h-262v1120h-84z" />
    <glyph glyph-name="Itilde" unicode="&#x128;" horiz-adv-x="454" 
d="M88 0v1434h279v-1434h-279zM-63 1550q0 146 42.5 208.5t137.5 62.5q41 0 73 -11.5t51.5 -27.5t36.5 -32.5t36.5 -28t41.5 -11.5q31 0 43.5 22t12.5 70h106q0 -146 -42.5 -208t-137.5 -62q-41 0 -73 11.5t-52.5 28t-37.5 33.5t-36 28.5t-41 11.5q-31 0 -43 -24t-12 -71
h-106z" />
    <glyph glyph-name="itilde" unicode="&#x129;" horiz-adv-x="415" 
d="M-35 1098q0 146 33.5 205t116.5 59q43 0 74 -17.5t45 -38t33.5 -38t41.5 -17.5q27 0 37 23.5t10 71.5h97q0 -146 -34 -205.5t-118 -59.5q-35 0 -61.5 11.5t-42 27.5t-28 32.5t-27.5 28t-33 11.5q-28 0 -39 -23.5t-11 -70.5h-94zM78 0v983h262v-983h-262z" />
    <glyph glyph-name="Imacron" unicode="&#x12a;" horiz-adv-x="454" 
d="M88 0v1434h279v-1434h-279zM-45 1546v195h545v-195h-545z" />
    <glyph glyph-name="imacron" unicode="&#x12b;" horiz-adv-x="415" 
d="M78 0v983h262v-983h-262zM-37 1092v184h492v-184h-492z" />
    <glyph glyph-name="Ibreve" unicode="&#x12c;" horiz-adv-x="454" 
d="M88 0v1434h279v-1434h-279zM227 1528q-240 0 -274 252l147 26q10 -61 40.5 -86.5t86.5 -25.5t86.5 25.5t40.5 86.5l148 -26q-17 -127 -88 -189.5t-187 -62.5z" />
    <glyph glyph-name="ibreve" unicode="&#x12d;" horiz-adv-x="415" 
d="M78 0v983h262v-983h-262zM209 1077q-122 0 -190 59.5t-87 184.5l148 27q10 -61 41 -87t88 -26t88 26t41 87l147 -27q-19 -125 -86.5 -184.5t-189.5 -59.5z" />
    <glyph glyph-name="Iogonek" unicode="&#x12e;" horiz-adv-x="454" 
d="M88 0v1434h279v-1434h-23q-52 -60 -69 -93t-17 -61q0 -61 76 -61q19 0 33 2v-133q-36 -4 -64 -4q-93 0 -152 43t-59 119q0 49 23 88.5t78 99.5h-105z" />
    <glyph glyph-name="iogonek" unicode="&#x12f;" horiz-adv-x="415" 
d="M78 0v983h262v-983h-27q-56 -64 -72 -97t-16 -63q0 -32 15.5 -45.5t52.5 -13.5q19 0 39 4v-127q-20 -4 -62 -4q-209 0 -209 153q0 47 23 90t80 103h-86zM72 1120v248h274v-248h-274z" />
    <glyph glyph-name="Idotaccent" unicode="&#x130;" horiz-adv-x="454" 
d="M88 0v1434h279v-1434h-279zM102 1546v244h250v-244h-250z" />
    <glyph glyph-name="dotlessi" unicode="&#x131;" horiz-adv-x="415" 
d="M78 0v983h262v-983h-262z" />
    <glyph glyph-name="Kcommaaccent" unicode="&#x136;" horiz-adv-x="878" 
d="M88 0v1434h268v-543l211 543h289l-211 -498l221 -936h-272l-141 616l-97 -249v-367h-268zM336 -74h223q4 -31 4 -73q0 -135 -57 -218h-195q35 87 35 179q0 61 -10 112z" />
    <glyph glyph-name="kcommaaccent" unicode="&#x137;" horiz-adv-x="784" 
d="M287 -70h223q4 -33 4 -75q0 -128 -59 -211h-193q37 85 37 174q0 48 -12 112zM510 0l-117 373l-61 -137v-236h-256v1434h256v-883l174 432h262l-188 -428l192 -555h-262z" />
    <glyph glyph-name="Lacute" unicode="&#x139;" horiz-adv-x="763" 
d="M119 1546l94 293h274l-151 -293h-217zM88 0v1434h279v-1182h372v-252h-651z" />
    <glyph glyph-name="lacute" unicode="&#x13a;" horiz-adv-x="413" 
d="M104 1552l86 295h271l-146 -295h-211zM76 0v1434h262v-1434h-262z" />
    <glyph glyph-name="Lcommaaccent" unicode="&#x13b;" horiz-adv-x="763" 
d="M299 -74h223q4 -31 4 -73q0 -135 -57 -218h-195q35 87 35 179q0 61 -10 112zM88 0v1434h279v-1182h372v-252h-651z" />
    <glyph glyph-name="lcommaaccent" unicode="&#x13c;" horiz-adv-x="413" 
d="M88 -66h223q4 -33 4 -75q0 -128 -59 -211h-193q37 85 37 174q0 48 -12 112zM76 0v1434h262v-1434h-262z" />
    <glyph glyph-name="Lcaron" unicode="&#x13d;" horiz-adv-x="763" 
d="M504 1098q18 88 18 184q0 73 -14 152h194q13 -70 13 -142q0 -102 -27 -194h-184zM88 0v1434h279v-1182h372v-252h-651z" />
    <glyph glyph-name="lcaron" unicode="&#x13e;" horiz-adv-x="452" 
d="M422 1098q18 88 18 184q0 73 -14 152h195q12 -64 12 -142q0 -102 -27 -194h-184zM76 0v1434h262v-1434h-262z" />
    <glyph glyph-name="Ldot" unicode="&#x13f;" horiz-adv-x="763" 
d="M487 604v244h250v-244h-250zM88 0v1434h279v-1182h372v-252h-651z" />
    <glyph glyph-name="ldot" unicode="&#x140;" horiz-adv-x="776" 
d="M74 0v1434h262v-1434h-262zM471 608v246h242v-246h-242z" />
    <glyph glyph-name="Lslash" unicode="&#x141;" horiz-adv-x="763" 
d="M2 485v234l86 49v666h279v-535l239 139v-235l-239 -139v-412h372v-252h-651v535z" />
    <glyph glyph-name="lslash" unicode="&#x142;" horiz-adv-x="413" 
d="M-4 516v203l80 47v668h262v-547l76 41v-205l-76 -43v-680h-262v561z" />
    <glyph glyph-name="Nacute" unicode="&#x143;" horiz-adv-x="954" 
d="M369 1546l94 293h274l-151 -293h-217zM88 0v1434h268l215 -705l23 -98h4v803h268v-1434h-266l-217 705l-23 98h-4v-803h-268z" />
    <glyph glyph-name="nacute" unicode="&#x144;" horiz-adv-x="831" 
d="M313 1092l86 294h271l-146 -294h-211zM76 0v983h237l17 -92q51 108 200 108q120 0 175 -80.5t55 -283.5v-635h-262v659q0 96 -17.5 130t-56.5 34q-48 0 -67 -37.5t-19 -146.5v-639h-262z" />
    <glyph glyph-name="Ncommaaccent" unicode="&#x145;" horiz-adv-x="954" 
d="M360 -74h224q4 -31 4 -73q0 -133 -58 -218h-194q35 87 35 179q0 56 -11 112zM88 0v1434h268l215 -705l23 -98h4v803h268v-1434h-266l-217 705l-23 98h-4v-803h-268z" />
    <glyph glyph-name="ncommaaccent" unicode="&#x146;" horiz-adv-x="831" 
d="M297 -70h223q4 -33 4 -75q0 -128 -59 -211h-193q37 85 37 174q0 48 -12 112zM76 0v983h237l17 -92q51 108 200 108q120 0 175 -80.5t55 -283.5v-635h-262v659q0 96 -17.5 130t-56.5 34q-48 0 -67 -37.5t-19 -146.5v-639h-262z" />
    <glyph glyph-name="Ncaron" unicode="&#x147;" horiz-adv-x="954" 
d="M88 0v1434h268l215 -705l23 -98h4v803h268v-1434h-266l-217 705l-23 98h-4v-803h-268zM352 1546l-143 293h176l92 -137l92 137h176l-143 -293h-250z" />
    <glyph glyph-name="ncaron" unicode="&#x148;" horiz-adv-x="831" 
d="M299 1092l-145 294h174l88 -139l88 139h174l-146 -294h-233zM76 0v983h237l17 -92q51 108 200 108q120 0 175 -80.5t55 -283.5v-635h-262v659q0 96 -17.5 130t-56.5 34q-48 0 -67 -37.5t-19 -146.5v-639h-262z" />
    <glyph glyph-name="Eng" unicode="&#x14a;" horiz-adv-x="954" 
d="M88 0v1434h266l221 -727l23 -103v830h268v-1354q0 -90 -7 -153t-25 -113.5t-46.5 -81.5t-74.5 -52t-104.5 -29t-141.5 -9v208q81 0 111 20.5t30 74.5q0 64 -49 219l-178 563l-25 102v-829h-268z" />
    <glyph glyph-name="eng" unicode="&#x14b;" horiz-adv-x="831" 
d="M76 0v983h237l17 -92q51 108 200 108q120 0 175 -80.5t55 -283.5v-606q0 -183 -76.5 -256.5t-280.5 -79.5v205q60 0 77.5 25.5t17.5 107.5v628q0 96 -17.5 130t-56.5 34q-48 0 -67 -37.5t-19 -146.5v-639h-262z" />
    <glyph glyph-name="Omacron" unicode="&#x14c;" horiz-adv-x="911" 
d="M129 139q-63 131 -63 578q0 446 63 577q39 81 126 123.5t200 42.5t200.5 -42.5t124.5 -123.5q66 -138 66 -577q0 -440 -66 -578q-37 -81 -124.5 -123.5t-200.5 -42.5t-200 42.5t-126 123.5zM362 299q9 -54 30.5 -75t62.5 -21t63 21t31 75q14 95 14 418t-14 418
q-9 54 -31 75t-63 21t-62.5 -21t-30.5 -75q-16 -91 -16 -418t16 -418zM182 1546v195h545v-195h-545z" />
    <glyph glyph-name="omacron" unicode="&#x14d;" horiz-adv-x="817" 
d="M139 1092v184h537v-184h-537zM197 35q-77 54 -109.5 158t-32.5 296q0 193 32.5 298t109.5 159q82 55 211 55q131 0 213 -55q75 -53 108 -158t33 -299q0 -192 -33 -296.5t-108 -157.5q-82 -55 -213 -55q-129 0 -211 55zM332 264q6 -44 24 -64t52 -20q33 0 52.5 18.5
t26.5 65.5q9 70 9 225q0 161 -9 226q-7 46 -25.5 65t-53.5 19q-34 0 -52 -19.5t-24 -64.5q-8 -47 -8 -226q0 -176 8 -225z" />
    <glyph glyph-name="Obreve" unicode="&#x14e;" horiz-adv-x="911" 
d="M129 139q-63 131 -63 578q0 446 63 577q39 81 126 123.5t200 42.5t200.5 -42.5t124.5 -123.5q66 -138 66 -577q0 -440 -66 -578q-37 -81 -124.5 -123.5t-200.5 -42.5t-200 42.5t-126 123.5zM362 299q9 -54 30.5 -75t62.5 -21t63 21t31 75q14 95 14 418t-14 418
q-9 54 -31 75t-63 21t-62.5 -21t-30.5 -75q-16 -91 -16 -418t16 -418zM455 1528q-116 0 -187 62.5t-88 189.5l148 26q10 -61 40.5 -86.5t86.5 -25.5t86.5 25.5t40.5 86.5l147 -26q-34 -252 -274 -252z" />
    <glyph glyph-name="obreve" unicode="&#x14f;" horiz-adv-x="817" 
d="M197 35q-77 54 -109.5 158t-32.5 296q0 193 32.5 298t109.5 159q82 55 211 55q131 0 213 -55q75 -53 108 -158t33 -299q0 -192 -33 -296.5t-108 -157.5q-82 -55 -213 -55q-129 0 -211 55zM332 264q6 -44 24 -64t52 -20q33 0 52.5 18.5t26.5 65.5q9 70 9 225q0 161 -9 226
q-7 46 -25.5 65t-53.5 19q-34 0 -52 -19.5t-24 -64.5q-8 -47 -8 -226q0 -176 8 -225zM408 1077q-122 0 -190 59.5t-87 184.5l148 27q10 -61 41 -87t88 -26t88 26t41 87l147 -27q-19 -125 -86.5 -184.5t-189.5 -59.5z" />
    <glyph glyph-name="Ohungarumlaut" unicode="&#x150;" horiz-adv-x="911" 
d="M213 1546l84 293h231l-127 -293h-188zM512 1546l82 293h231l-127 -293h-186zM129 139q-63 131 -63 578q0 446 63 577q39 81 126 123.5t200 42.5t200.5 -42.5t124.5 -123.5q66 -138 66 -577q0 -440 -66 -578q-37 -81 -124.5 -123.5t-200.5 -42.5t-200 42.5t-126 123.5z
M362 299q9 -54 30.5 -75t62.5 -21t63 21t31 75q14 95 14 418t-14 418q-9 54 -31 75t-63 21t-62.5 -21t-30.5 -75q-16 -91 -16 -418t16 -418z" />
    <glyph glyph-name="ohungarumlaut" unicode="&#x151;" horiz-adv-x="817" 
d="M166 1092l86 294h242l-140 -294h-188zM469 1092l86 294h242l-140 -294h-188zM197 35q-77 54 -109.5 158t-32.5 296q0 193 32.5 298t109.5 159q82 55 211 55q131 0 213 -55q75 -53 108 -158t33 -299q0 -192 -33 -296.5t-108 -157.5q-82 -55 -213 -55q-129 0 -211 55z
M332 264q6 -44 24 -64t52 -20q33 0 52.5 18.5t26.5 65.5q9 70 9 225q0 161 -9 226q-7 46 -25.5 65t-53.5 19q-34 0 -52 -19.5t-24 -64.5q-8 -47 -8 -226q0 -176 8 -225z" />
    <glyph glyph-name="OE" unicode="&#x152;" horiz-adv-x="1234" 
d="M94 270q-28 132 -28 443q0 316 28 450q30 144 117 207.5t264 63.5h715v-242h-397v-311h286v-238h-286v-397h397v-246h-715q-170 0 -260 58.5t-121 211.5zM354 385q5 -69 16.5 -99.5t33 -40t69.5 -9.5h55v964h-55q-48 0 -70 -10t-33.5 -41t-15.5 -100q-8 -136 -8 -347
q0 -208 8 -317z" />
    <glyph glyph-name="oe" unicode="&#x153;" horiz-adv-x="1224" 
d="M197 35q-77 54 -109.5 158t-32.5 296q0 193 32.5 298t109.5 159q79 53 211 53q129 0 206 -71q71 71 207 71q132 0 209 -53q78 -53 109.5 -168.5t31.5 -331.5h-442q0 -132 8 -182q7 -49 26 -67.5t56 -18.5q52 0 69.5 37.5t20.5 134.5l250 -53q-18 -157 -99.5 -237
t-240.5 -80q-136 0 -205 77q-71 -77 -206 -77q-129 0 -211 55zM332 264q6 -45 23.5 -64.5t52.5 -19.5t52 19.5t23 64.5q9 56 9 225q0 173 -9 226q-6 46 -23 65t-52 19t-52.5 -19t-23.5 -65q-8 -47 -8 -226q0 -176 8 -225zM737 725q-4 -25 -8 -131h180q-4 98 -8 131
q-5 43 -22.5 64.5t-59.5 21.5q-37 0 -56.5 -21t-25.5 -65z" />
    <glyph glyph-name="Racute" unicode="&#x154;" horiz-adv-x="925" 
d="M88 0v1434h303q258 0 362.5 -85.5t104.5 -293.5q0 -125 -33 -206.5t-114 -123.5v-2q80 -25 107.5 -82.5t27.5 -167.5q0 -275 14 -461v-12h-280q-9 205 -9 426q0 79 -25 107t-104 28h-82v-561h-272zM360 782h62q93 0 126.5 45.5t33.5 167.5q0 115 -33.5 159t-126.5 44h-62
v-416zM360 1546l95 293h274l-151 -293h-218z" />
    <glyph glyph-name="racute" unicode="&#x155;" horiz-adv-x="612" 
d="M231 1092l86 294h271l-146 -294h-211zM76 0v983h235l23 -133q29 81 93 113t167 34v-245q-54 6 -78 6q-101 0 -139.5 -48.5t-38.5 -158.5v-551h-262z" />
    <glyph glyph-name="Rcommaaccent" unicode="&#x156;" horiz-adv-x="925" 
d="M88 0v1434h303q258 0 362.5 -85.5t104.5 -293.5q0 -125 -33 -206.5t-114 -123.5v-2q80 -25 107.5 -82.5t27.5 -167.5q0 -275 14 -461v-12h-280q-9 205 -9 426q0 79 -25 107t-104 28h-82v-561h-272zM360 782h62q93 0 126.5 45.5t33.5 167.5q0 115 -33.5 159t-126.5 44h-62
v-416zM352 -74h223q5 -39 5 -73q0 -133 -58 -218h-194q34 84 34 179q0 61 -10 112z" />
    <glyph glyph-name="rcommaaccent" unicode="&#x157;" horiz-adv-x="612" 
d="M88 -70h223q4 -33 4 -75q0 -128 -59 -211h-193q37 85 37 174q0 48 -12 112zM76 0v983h235l23 -133q29 81 93 113t167 34v-245q-54 6 -78 6q-101 0 -139.5 -48.5t-38.5 -158.5v-551h-262z" />
    <glyph glyph-name="Rcaron" unicode="&#x158;" horiz-adv-x="925" 
d="M88 0v1434h303q258 0 362.5 -85.5t104.5 -293.5q0 -125 -33 -206.5t-114 -123.5v-2q80 -25 107.5 -82.5t27.5 -167.5q0 -275 14 -461v-12h-280q-9 205 -9 426q0 79 -25 107t-104 28h-82v-561h-272zM360 782h62q93 0 126.5 45.5t33.5 167.5q0 115 -33.5 159t-126.5 44h-62
v-416zM344 1546l-143 293h176l92 -137l92 137h176l-143 -293h-250z" />
    <glyph glyph-name="rcaron" unicode="&#x159;" horiz-adv-x="612" 
d="M217 1092l-145 294h174l88 -139l88 139h174l-145 -294h-234zM76 0v983h235l23 -133q29 81 93 113t167 34v-245q-54 6 -78 6q-101 0 -139.5 -48.5t-38.5 -158.5v-551h-262z" />
    <glyph glyph-name="Sacute" unicode="&#x15a;" horiz-adv-x="827" 
d="M418 -27q-174 0 -270 104t-109 343l262 45q4 -159 29 -213.5t88 -54.5q50 0 72 27.5t22 88.5q0 90 -41 154.5t-141 159.5q-47 45 -71.5 70t-64 68t-60.5 77t-44 78.5t-33 92t-10 99.5q0 159 93 253.5t270 94.5q186 0 272.5 -111.5t99.5 -320.5l-262 -45q-3 139 -26 197.5
t-88 58.5q-99 0 -99 -119q0 -77 42.5 -140t150.5 -165q44 -42 62 -59t56 -57t55 -64t43 -64.5t37.5 -75t21 -80t9.5 -93.5q0 -158 -91.5 -253.5t-274.5 -95.5zM305 1546l94 293h275l-152 -293h-217z" />
    <glyph glyph-name="sacute" unicode="&#x15b;" horiz-adv-x="739" 
d="M264 1092l86 294h271l-146 -294h-211zM33 291l225 41q9 -86 34.5 -122t78.5 -36q82 0 82 76q0 27 -8.5 47.5t-30 38.5t-41.5 30.5t-62 36t-71 41.5q-49 30 -80 54.5t-61 59t-44 78t-14 97.5q0 125 84 196.5t237 71.5q302 0 332 -307l-225 -41q-7 84 -31.5 121t-72.5 37
q-82 0 -82 -78q0 -24 9 -44t33 -39t41.5 -31t59 -35t61.5 -35q41 -24 68 -43t57 -46.5t47.5 -56t29 -67.5t11.5 -84q0 -270 -317 -270q-161 0 -246.5 73t-103.5 236z" />
    <glyph glyph-name="Scedilla" unicode="&#x15e;" horiz-adv-x="827" 
d="M250 -244q74 -12 112 -12q48 0 66 12t18 39q0 28 -20 37.5t-80 9.5h-35l43 135q-144 16 -223.5 121t-91.5 322l262 45q4 -159 29 -213.5t88 -54.5q50 0 72 27.5t22 88.5q0 90 -41 154.5t-141 159.5q-47 45 -71.5 70t-64 68t-60.5 77t-44 78.5t-33 92t-10 99.5
q0 159 93 253.5t270 94.5q186 0 272.5 -111.5t99.5 -320.5l-262 -45q-3 139 -26 197.5t-88 58.5q-99 0 -99 -119q0 -77 42.5 -140t150.5 -165q44 -42 62 -59t56 -57t55 -64t43 -64.5t37.5 -75t21 -80t9.5 -93.5q0 -154 -88 -249.5t-264 -99.5l-16 -51q103 0 152.5 -30
t49.5 -101q0 -77 -52.5 -111t-174.5 -34q-83 0 -141 12v98z" />
    <glyph glyph-name="scedilla" unicode="&#x15f;" horiz-adv-x="739" 
d="M195 -242q62 -12 112 -12q48 0 66 12t18 41q0 28 -21 39.5t-77 11.5q-25 0 -37 -2l43 140q-120 15 -185.5 88.5t-80.5 214.5l225 41q9 -86 34.5 -122t78.5 -36q82 0 82 76q0 27 -8.5 47.5t-30 38.5t-41.5 30.5t-62 36t-71 41.5q-49 30 -80 54.5t-61 59t-44 78t-14 97.5
q0 125 84 196.5t237 71.5q302 0 332 -307l-225 -41q-7 84 -31.5 121t-72.5 37q-82 0 -82 -78q0 -24 9 -44t33 -39t41.5 -31t59 -35t61.5 -35q41 -24 68 -43t57 -46.5t47.5 -56t29 -67.5t11.5 -84q0 -270 -317 -270h-4l-17 -62q106 0 150.5 -27.5t44.5 -95.5
q0 -78 -49.5 -109.5t-169.5 -31.5q-61 0 -143 10v92z" />
    <glyph glyph-name="Scaron" unicode="&#x160;" horiz-adv-x="827" 
d="M418 -27q-174 0 -270 104t-109 343l262 45q4 -159 29 -213.5t88 -54.5q50 0 72 27.5t22 88.5q0 90 -41 154.5t-141 159.5q-47 45 -71.5 70t-64 68t-60.5 77t-44 78.5t-33 92t-10 99.5q0 159 93 253.5t270 94.5q186 0 272.5 -111.5t99.5 -320.5l-262 -45q-3 139 -26 197.5
t-88 58.5q-99 0 -99 -119q0 -77 42.5 -140t150.5 -165q44 -42 62 -59t56 -57t55 -64t43 -64.5t37.5 -75t21 -80t9.5 -93.5q0 -158 -91.5 -253.5t-274.5 -95.5zM289 1546l-144 293h177l92 -137l92 137h176l-143 -293h-250z" />
    <glyph glyph-name="scaron" unicode="&#x161;" horiz-adv-x="739" 
d="M250 1092l-146 294h175l88 -139l88 139h174l-146 -294h-233zM33 291l225 41q9 -86 34.5 -122t78.5 -36q82 0 82 76q0 27 -8.5 47.5t-30 38.5t-41.5 30.5t-62 36t-71 41.5q-49 30 -80 54.5t-61 59t-44 78t-14 97.5q0 125 84 196.5t237 71.5q302 0 332 -307l-225 -41
q-7 84 -31.5 121t-72.5 37q-82 0 -82 -78q0 -24 9 -44t33 -39t41.5 -31t59 -35t61.5 -35q41 -24 68 -43t57 -46.5t47.5 -56t29 -67.5t11.5 -84q0 -270 -317 -270q-161 0 -246.5 73t-103.5 236z" />
    <glyph glyph-name="uni0162" unicode="&#x162;" horiz-adv-x="837" 
d="M281 0v1182h-244v252h764v-252h-242v-1182h-115l-24 -78q104 0 153.5 -30t49.5 -101q0 -77 -53 -111t-175 -34q-83 0 -141 12v98q74 -12 113 -12q48 0 66 12t18 39q0 28 -20.5 37.5t-80.5 9.5h-35l52 158h-86z" />
    <glyph glyph-name="uni0163" unicode="&#x163;" horiz-adv-x="565" 
d="M143 -242q61 -12 113 -12q48 0 66 12t18 41q0 28 -21 39.5t-77 11.5q-25 0 -37 -2l51 164q-76 28 -111.5 97.5t-35.5 195.5q0 9 0.5 87.5t1 187t0.5 190.5h-103v213h103v209l260 57v-266h161v-213h-161v-430q0 -82 23.5 -111.5t82.5 -29.5q40 0 58 2v-203
q-39 -10 -105 -10q-54 0 -100 6l-19 -74q106 0 150.5 -27.5t44.5 -95.5q0 -78 -49.5 -109.5t-169.5 -31.5q-62 0 -144 10v92z" />
    <glyph glyph-name="Tcaron" unicode="&#x164;" horiz-adv-x="837" 
d="M281 0v1182h-244v252h764v-252h-242v-1182h-278zM293 1546l-143 293h176l92 -137l92 137h176l-143 -293h-250z" />
    <glyph glyph-name="tcaron" unicode="&#x165;" horiz-adv-x="583" 
d="M469 1069q29 113 29 203q0 58 -17 162h207q17 -83 17 -162q0 -93 -29 -203h-207zM8 770v213h103v209l260 57v-266h161v-213h-161v-430q0 -82 23.5 -111.5t82.5 -29.5q40 0 58 2v-203q-39 -10 -105 -10q-86 0 -143.5 14.5t-98.5 50t-60 97.5t-19 155q0 9 0.5 87.5t1 187
t0.5 190.5h-103z" />
    <glyph glyph-name="Tbar" unicode="&#x166;" horiz-adv-x="837" 
d="M86 649v225h195v308h-244v252h764v-252h-242v-308h191v-225h-191v-649h-278v649h-195z" />
    <glyph glyph-name="tbar" unicode="&#x167;" horiz-adv-x="563" 
d="M8 770v213h103v209l260 57v-266h161v-213h-161v-199h155v-176h-155v-55q0 -82 23.5 -111.5t82.5 -29.5q40 0 58 2v-203q-39 -10 -105 -10q-86 0 -143.5 14.5t-98.5 50t-60 97.5t-19 155v90h-101v176h103v199h-103z" />
    <glyph glyph-name="Utilde" unicode="&#x168;" horiz-adv-x="935" 
d="M367 354q6 -83 29 -115t71 -32q49 0 72.5 31.5t29.5 115.5q4 94 4 215v865h279v-940q0 -274 -90 -397.5t-295 -123.5q-204 0 -293.5 123.5t-89.5 397.5v940h278v-865q0 -97 5 -215zM176 1550q0 146 42.5 208.5t137.5 62.5q50 0 88 -17.5t56.5 -38t43.5 -38t52 -17.5
q31 0 43 22t12 70h107q0 -146 -42.5 -208t-137.5 -62q-41 0 -73 11.5t-52.5 28t-37.5 33.5t-36 28.5t-41 11.5q-31 0 -43 -24t-12 -71h-107z" />
    <glyph glyph-name="utilde" unicode="&#x169;" horiz-adv-x="829" 
d="M295 -16q-114 0 -168.5 80.5t-54.5 279.5v639h262v-661q0 -96 16 -129t56 -33q47 0 65 37t18 147v639h263v-983h-232l-18 102q-49 -118 -207 -118zM119 1098q0 144 40.5 204t137.5 60q55 0 94.5 -17.5t57 -38t41.5 -38t51 -17.5q33 0 45 23.5t12 71.5h107
q0 -142 -41.5 -203.5t-139.5 -61.5q-55 0 -94 17.5t-56 38t-40.5 38t-50.5 17.5q-33 0 -45.5 -23t-12.5 -71h-106z" />
    <glyph glyph-name="Umacron" unicode="&#x16a;" horiz-adv-x="935" 
d="M367 354q6 -83 29 -115t71 -32q49 0 72.5 31.5t29.5 115.5q4 94 4 215v865h279v-940q0 -274 -90 -397.5t-295 -123.5q-204 0 -293.5 123.5t-89.5 397.5v940h278v-865q0 -97 5 -215zM195 1546v195h544v-195h-544z" />
    <glyph glyph-name="umacron" unicode="&#x16b;" horiz-adv-x="829" 
d="M295 -16q-114 0 -168.5 80.5t-54.5 279.5v639h262v-661q0 -96 16 -129t56 -33q47 0 65 37t18 147v639h263v-983h-232l-18 102q-49 -118 -207 -118zM143 1092v184h537v-184h-537z" />
    <glyph glyph-name="Ubreve" unicode="&#x16c;" horiz-adv-x="935" 
d="M367 354q6 -83 29 -115t71 -32q49 0 72.5 31.5t29.5 115.5q4 94 4 215v865h279v-940q0 -274 -90 -397.5t-295 -123.5q-204 0 -293.5 123.5t-89.5 397.5v940h278v-865q0 -97 5 -215zM467 1528q-240 0 -274 252l147 26q10 -61 40.5 -86.5t86.5 -25.5t86.5 25.5t40.5 86.5
l147 -26q-34 -252 -274 -252z" />
    <glyph glyph-name="ubreve" unicode="&#x16d;" horiz-adv-x="829" 
d="M295 -16q-114 0 -168.5 80.5t-54.5 279.5v639h262v-661q0 -96 16 -129t56 -33q47 0 65 37t18 147v639h263v-983h-232l-18 102q-49 -118 -207 -118zM412 1077q-122 0 -190 59.5t-87 184.5l148 27q10 -61 41 -87t88 -26t88 26t41 87l147 -27q-19 -125 -86.5 -184.5
t-189.5 -59.5z" />
    <glyph glyph-name="Uring" unicode="&#x16e;" horiz-adv-x="935" 
d="M467 1503q-95 0 -158 47.5t-63 132.5q0 84 63.5 132.5t157.5 48.5t157.5 -48.5t63.5 -132.5q0 -85 -63 -132.5t-158 -47.5zM467 1608q34 0 55 20t21 55q0 34 -21 54t-55 20t-55 -20t-21 -54q0 -35 21 -55t55 -20zM367 354q6 -83 29 -115t71 -32q49 0 72.5 31.5
t29.5 115.5q4 94 4 215v865h279v-940q0 -274 -90 -397.5t-295 -123.5q-204 0 -293.5 123.5t-89.5 397.5v940h278v-865q0 -97 5 -215z" />
    <glyph glyph-name="uring" unicode="&#x16f;" horiz-adv-x="829" 
d="M412 1067q-95 0 -154 47.5t-59 126.5q0 81 59 127.5t154 46.5t154 -46.5t59 -127.5q0 -79 -59 -126.5t-154 -47.5zM412 1169q34 0 52.5 19.5t18.5 52.5t-18.5 52.5t-52.5 19.5q-35 0 -53.5 -19.5t-18.5 -52.5t18.5 -52.5t53.5 -19.5zM295 -16q-114 0 -168.5 80.5
t-54.5 279.5v639h262v-661q0 -96 16 -129t56 -33q47 0 65 37t18 147v639h263v-983h-232l-18 102q-49 -118 -207 -118z" />
    <glyph glyph-name="Uhungarumlaut" unicode="&#x170;" horiz-adv-x="935" 
d="M225 1546l84 293h232l-127 -293h-189zM524 1546l82 293h232l-127 -293h-187zM367 354q6 -83 29 -115t71 -32q49 0 72.5 31.5t29.5 115.5q4 94 4 215v865h279v-940q0 -274 -90 -397.5t-295 -123.5q-204 0 -293.5 123.5t-89.5 397.5v940h278v-865q0 -97 5 -215z" />
    <glyph glyph-name="uhungarumlaut" unicode="&#x171;" horiz-adv-x="829" 
d="M295 -16q-114 0 -168.5 80.5t-54.5 279.5v639h262v-661q0 -96 16 -129t56 -33q47 0 65 37t18 147v639h263v-983h-232l-18 102q-49 -118 -207 -118zM170 1092l86 294h242l-140 -294h-188zM473 1092l86 294h242l-139 -294h-189z" />
    <glyph glyph-name="Uogonek" unicode="&#x172;" horiz-adv-x="935" 
d="M313 -188q0 45 19 83t61 85q-164 20 -236.5 142t-72.5 372v940h278v-865q0 -97 5 -215q6 -83 29 -115t71 -32q49 0 72.5 31.5t29.5 115.5q4 94 4 215v865h279v-940q0 -247 -72 -369.5t-233 -144.5q-68 -86 -68 -134q0 -61 76 -61q19 0 33 2v-133q-36 -4 -64 -4
q-93 0 -152 43t-59 119z" />
    <glyph glyph-name="uogonek" unicode="&#x173;" horiz-adv-x="829" 
d="M295 -16q-114 0 -168.5 80.5t-54.5 279.5v639h262v-661q0 -96 16 -129t56 -33q47 0 65 37t18 147v639h263v-983h-17q-56 -64 -73 -97.5t-17 -62.5q0 -32 16.5 -45.5t53.5 -13.5q17 0 37 4v-127q-20 -4 -62 -4q-209 0 -209 153q0 47 23.5 89.5t81.5 103.5h-66l-18 102
q-49 -118 -207 -118z" />
    <glyph glyph-name="Wcircumflex" unicode="&#x174;" horiz-adv-x="1314" 
d="M389 1546l143 293h250l144 -293h-176l-93 133l-92 -133h-176zM211 0l-182 1434h284l88 -877l5 -74h6l6 74l135 877h209l135 -877l6 -74h4l4 74l90 877h285l-184 -1434h-320l-116 809l-7 57h-6l-6 -57l-117 -809h-319z" />
    <glyph glyph-name="wcircumflex" unicode="&#x175;" horiz-adv-x="1187" 
d="M332 1092l145 294h234l145 -294h-174l-88 137l-88 -137h-174zM211 0l-188 983h258l88 -549l12 -94h6l10 94l92 549h211l91 -549l12 -94h4l12 94l88 549h258l-186 -983h-279l-88 492l-14 92h-6l-14 -92l-91 -492h-276z" />
    <glyph glyph-name="Ycircumflex" unicode="&#x176;" horiz-adv-x="858" 
d="M291 0v633l-283 801h295l111 -449l14 -72h4l14 72l109 449h295l-281 -801v-633h-278zM162 1546l143 293h250l143 -293h-176l-92 133l-92 -133h-176z" />
    <glyph glyph-name="ycircumflex" unicode="&#x177;" horiz-adv-x="788" 
d="M39 -115q40 -8 84 -8q66 0 94.5 23.5t28.5 85.5q0 46 -23 147l-207 850h271l94 -571l14 -95h4l15 95l94 571h270l-188 -807q-25 -106 -47.5 -178t-52.5 -132.5t-65 -96.5t-84.5 -61t-110.5 -34.5t-144 -9.5zM135 1092l146 294h233l145 -294h-174l-88 137l-88 -137h-174z
" />
    <glyph glyph-name="Ydieresis" unicode="&#x178;" horiz-adv-x="858" 
d="M291 0v633l-283 801h295l111 -449l14 -72h4l14 72l109 449h295l-281 -801v-633h-278zM150 1546v236h231v-236h-231zM479 1546v236h232v-236h-232z" />
    <glyph glyph-name="Zacute" unicode="&#x179;" horiz-adv-x="811" 
d="M45 0v188l401 1000h-391v246h703v-189l-402 -995h410v-250h-721zM299 1546l94 293h275l-152 -293h-217z" />
    <glyph glyph-name="zacute" unicode="&#x17a;" horiz-adv-x="716" 
d="M256 1092l86 294h270l-145 -294h-211zM39 0v174l332 596h-326v213h621v-174l-330 -592h336v-217h-633z" />
    <glyph glyph-name="Zdotaccent" unicode="&#x17b;" horiz-adv-x="811" 
d="M283 1546v244h249v-244h-249zM45 0v188l401 1000h-391v246h703v-189l-402 -995h410v-250h-721z" />
    <glyph glyph-name="zdotaccent" unicode="&#x17c;" horiz-adv-x="716" 
d="M39 0v174l332 596h-326v213h621v-174l-330 -592h336v-217h-633zM238 1092v245h241v-245h-241z" />
    <glyph glyph-name="Zcaron" unicode="&#x17d;" horiz-adv-x="811" 
d="M45 0v188l401 1000h-391v246h703v-189l-402 -995h410v-250h-721zM283 1546l-144 293h176l93 -137l92 137h176l-144 -293h-249z" />
    <glyph glyph-name="zcaron" unicode="&#x17e;" horiz-adv-x="716" 
d="M242 1092l-146 294h174l88 -139l88 139h175l-146 -294h-233zM39 0v174l332 596h-326v213h621v-174l-330 -592h336v-217h-633z" />
    <glyph glyph-name="florin" unicode="&#x192;" horiz-adv-x="905" 
d="M170 752l49 231h125l33 156q36 168 129 242.5t260 74.5q55 0 88 -8l-45 -211h-33q-65 0 -91.5 -34t-51.5 -146l-17 -74h136l-50 -231h-135l-157 -744q-35 -164 -124.5 -239.5t-248.5 -75.5q-78 0 -103 6l46 213q14 -2 36 -2q62 0 88.5 33.5t42.5 113.5l148 695h-125z" />
    <glyph glyph-name="AEacute" unicode="&#x1fc;" horiz-adv-x="1228" 
d="M0 0l408 1434h776v-242h-391v-311h278v-238h-278v-397h391v-246h-643v197h-219l-48 -197h-274zM535 1077l-168 -692h174v692h-6zM475 1546l94 293h275l-152 -293h-217z" />
    <glyph glyph-name="aeacute" unicode="&#x1fd;" horiz-adv-x="1206" 
d="M494 1092l86 294h270l-145 -294h-211zM25 250q0 71 22.5 128t72.5 104t139 73.5t212 28.5v88q0 72 -18 101.5t-64 29.5q-52 0 -74 -36t-22 -120l-236 49q43 303 351 303q133 0 194 -67q73 67 197 67q134 0 213 -53q78 -54 109.5 -165.5t31.5 -327.5h-442q0 -134 10 -189
q6 -46 24 -66t56 -20q52 0 69.5 37.5t20.5 134.5l252 -53q-19 -157 -101 -237t-241 -80q-200 0 -271 151q-44 -145 -243 -145q-118 0 -190 65.5t-72 198.5zM721 721q-7 -48 -10 -137h180q-3 102 -8 137q-5 43 -22.5 64.5t-59.5 21.5q-36 0 -55 -20t-25 -66zM287 279
q0 -123 94 -123q90 0 90 102v195q-184 -3 -184 -174z" />
    <glyph glyph-name="Oslashacute" unicode="&#x1fe;" horiz-adv-x="911" 
d="M346 1546l94 293h275l-152 -293h-217zM362 299q9 -54 30.5 -75t62.5 -21t63 21t31 75q14 95 14 418v100zM346 717v-107l203 525q-9 54 -31 75t-63 21t-62.5 -21t-30.5 -75q-16 -91 -16 -418zM66 -45l71 168q-39 81 -55 225t-16 369q0 446 63 577q39 81 126 123.5
t200 42.5q130 0 221 -55l31 74h139l-72 -168q72 -148 72 -594q0 -440 -66 -578q-37 -81 -124.5 -123.5t-200.5 -42.5q-128 0 -222 54l-28 -72h-139z" />
    <glyph glyph-name="oslashacute" unicode="&#x1ff;" horiz-adv-x="817" 
d="M76 -39l63 125q-45 58 -64.5 153t-19.5 250q0 193 32.5 298t109.5 159q82 55 211 55q107 0 186 -40l24 47h113l-57 -111q46 -59 67 -156t21 -252q0 -192 -33 -296.5t-108 -157.5q-82 -55 -213 -55q-111 0 -187 40l-31 -59h-114zM496 489v80l-156 -340q14 -49 68 -49
q33 0 52.5 18.5t26.5 65.5q9 70 9 225zM324 489v-63l151 332q-20 41 -67 41q-34 0 -52 -19.5t-24 -64.5q-8 -47 -8 -226zM303 1092l86 294h270l-145 -294h-211z" />
    <glyph glyph-name="uni0218" unicode="&#x218;" horiz-adv-x="827" 
d="M418 -27q-174 0 -270 104t-109 343l262 45q4 -159 29 -213.5t88 -54.5q50 0 72 27.5t22 88.5q0 90 -41 154.5t-141 159.5q-47 45 -71.5 70t-64 68t-60.5 77t-44 78.5t-33 92t-10 99.5q0 159 93 253.5t270 94.5q186 0 272.5 -111.5t99.5 -320.5l-262 -45q-3 139 -26 197.5
t-88 58.5q-99 0 -99 -119q0 -77 42.5 -140t150.5 -165q44 -42 62 -59t56 -57t55 -64t43 -64.5t37.5 -75t21 -80t9.5 -93.5q0 -158 -91.5 -253.5t-274.5 -95.5zM297 -74h223q4 -31 4 -73q0 -135 -57 -218h-195q35 87 35 179q0 61 -10 112z" />
    <glyph glyph-name="uni0219" unicode="&#x219;" horiz-adv-x="739" 
d="M244 -70h223q4 -33 4 -75q0 -128 -59 -211h-193q37 85 37 174q0 48 -12 112zM33 291l225 41q9 -86 34.5 -122t78.5 -36q82 0 82 76q0 27 -8.5 47.5t-30 38.5t-41.5 30.5t-62 36t-71 41.5q-49 30 -80 54.5t-61 59t-44 78t-14 97.5q0 125 84 196.5t237 71.5q302 0 332 -307
l-225 -41q-7 84 -31.5 121t-72.5 37q-82 0 -82 -78q0 -24 9 -44t33 -39t41.5 -31t59 -35t61.5 -35q41 -24 68 -43t57 -46.5t47.5 -56t29 -67.5t11.5 -84q0 -270 -317 -270q-161 0 -246.5 73t-103.5 236z" />
    <glyph glyph-name="uni021A" unicode="&#x21a;" horiz-adv-x="837" 
d="M301 -74h223q4 -31 4 -73q0 -135 -57 -218h-195q35 87 35 179q0 61 -10 112zM281 0v1182h-244v252h764v-252h-242v-1182h-278z" />
    <glyph glyph-name="uni021B" unicode="&#x21b;" horiz-adv-x="565" 
d="M193 -70h223q4 -33 4 -75q0 -126 -60 -211h-192q37 85 37 174q0 48 -12 112zM8 770v213h103v209l260 57v-266h161v-213h-161v-430q0 -82 23.5 -111.5t82.5 -29.5q40 0 58 2v-203q-39 -10 -105 -10q-86 0 -143.5 14.5t-98.5 50t-60 97.5t-19 155q0 9 0.5 87.5t1 187
t0.5 190.5h-103z" />
    <glyph glyph-name="circumflex" unicode="&#x2c6;" 
d="M250 1092l145 294h234l145 -294h-174l-88 137l-88 -137h-174z" />
    <glyph glyph-name="caron" unicode="&#x2c7;" 
d="M395 1092l-145 294h174l88 -139l88 139h174l-145 -294h-234z" />
    <glyph glyph-name="breve" unicode="&#x2d8;" 
d="M512 1077q-122 0 -189.5 59.5t-86.5 184.5l147 27q10 -61 41 -87t88 -26t88 26t41 87l147 -27q-19 -125 -86.5 -184.5t-189.5 -59.5z" />
    <glyph glyph-name="dotaccent" unicode="&#x2d9;" 
d="M391 1092v245h242v-245h-242z" />
    <glyph glyph-name="ring" unicode="&#x2da;" 
d="M512 1067q-95 0 -154 47.5t-59 126.5q0 81 59 127.5t154 46.5t154 -46.5t59 -127.5q0 -79 -59 -126.5t-154 -47.5zM512 1169q35 0 53.5 19.5t18.5 52.5t-18.5 52.5t-53.5 19.5t-53.5 -19.5t-18.5 -52.5t18.5 -52.5t53.5 -19.5z" />
    <glyph glyph-name="ogonek" unicode="&#x2db;" 
d="M381 -193q0 47 22.5 90t79.5 103h150q-56 -64 -72 -97t-16 -63q0 -32 15 -45.5t52 -13.5q19 0 39 4v-127q-20 -4 -61 -4q-209 0 -209 153z" />
    <glyph glyph-name="tilde" unicode="&#x2dc;" 
d="M219 1098q0 144 40.5 204t137.5 60q55 0 94.5 -17.5t57 -38t41.5 -38t51 -17.5q33 0 45 23.5t12 71.5h107q0 -142 -41 -203.5t-139 -61.5q-55 0 -94 17.5t-56.5 38t-41 38t-50.5 17.5q-33 0 -45 -23t-12 -71h-107z" />
    <glyph glyph-name="hungarumlaut" unicode="&#x2dd;" 
d="M270 1092l86 294h242l-139 -294h-189zM573 1092l86 294h242l-139 -294h-189z" />
    <glyph glyph-name="Wgrave" unicode="&#x1e80;" horiz-adv-x="1314" 
d="M549 1546l-154 293h275l94 -293h-215zM211 0l-182 1434h284l88 -877l5 -74h6l6 74l135 877h209l135 -877l6 -74h4l4 74l90 877h285l-184 -1434h-320l-116 809l-7 57h-6l-6 -57l-117 -809h-319z" />
    <glyph glyph-name="wgrave" unicode="&#x1e81;" horiz-adv-x="1187" 
d="M211 0l-188 983h258l88 -549l12 -94h6l10 94l92 549h211l91 -549l12 -94h4l12 94l88 549h258l-186 -983h-279l-88 492l-14 92h-6l-14 -92l-91 -492h-276zM489 1092l-145 294h270l86 -294h-211z" />
    <glyph glyph-name="Wacute" unicode="&#x1e82;" horiz-adv-x="1314" 
d="M549 1546l94 293h275l-152 -293h-217zM211 0l-182 1434h284l88 -877l5 -74h6l6 74l135 877h209l135 -877l6 -74h4l4 74l90 877h285l-184 -1434h-320l-116 809l-7 57h-6l-6 -57l-117 -809h-319z" />
    <glyph glyph-name="wacute" unicode="&#x1e83;" horiz-adv-x="1187" 
d="M492 1092l86 294h270l-146 -294h-210zM211 0l-188 983h258l88 -549l12 -94h6l10 94l92 549h211l91 -549l12 -94h4l12 94l88 549h258l-186 -983h-279l-88 492l-14 92h-6l-14 -92l-91 -492h-276z" />
    <glyph glyph-name="Wdieresis" unicode="&#x1e84;" horiz-adv-x="1314" 
d="M211 0l-182 1434h284l88 -877l5 -74h6l6 74l135 877h209l135 -877l6 -74h4l4 74l90 877h285l-184 -1434h-320l-116 809l-7 57h-6l-6 -57l-117 -809h-319zM377 1546v236h231v-236h-231zM707 1546v236h231v-236h-231z" />
    <glyph glyph-name="wdieresis" unicode="&#x1e85;" horiz-adv-x="1187" 
d="M319 1092v241h232v-241h-232zM637 1092v241h231v-241h-231zM211 0l-188 983h258l88 -549l12 -94h6l10 94l92 549h211l91 -549l12 -94h4l12 94l88 549h258l-186 -983h-279l-88 492l-14 92h-6l-14 -92l-91 -492h-276z" />
    <glyph glyph-name="Ygrave" unicode="&#x1ef2;" horiz-adv-x="858" 
d="M291 0v633l-283 801h295l111 -449l14 -72h4l14 72l109 449h295l-281 -801v-633h-278zM322 1546l-154 293h274l95 -293h-215z" />
    <glyph glyph-name="ygrave" unicode="&#x1ef3;" horiz-adv-x="788" 
d="M39 -115q40 -8 84 -8q66 0 94.5 23.5t28.5 85.5q0 46 -23 147l-207 850h271l94 -571l14 -95h4l15 95l94 571h270l-188 -807q-25 -106 -47.5 -178t-52.5 -132.5t-65 -96.5t-84.5 -61t-110.5 -34.5t-144 -9.5zM293 1092l-146 294h271l86 -294h-211z" />
    <glyph glyph-name="endash" unicode="&#x2013;" horiz-adv-x="735" 
d="M94 582v229h547v-229h-547z" />
    <glyph glyph-name="emdash" unicode="&#x2014;" horiz-adv-x="1099" 
d="M104 575v236h891v-236h-891z" />
    <glyph glyph-name="quoteleft" unicode="&#x2018;" horiz-adv-x="475" 
d="M262 1458l109 -24l-109 -322h121v-299h-291v254z" />
    <glyph glyph-name="quoteright" unicode="&#x2019;" horiz-adv-x="475" 
d="M213 788l-109 25l109 322h-121v299h291v-254z" />
    <glyph glyph-name="quotesinglbase" unicode="&#x201a;" horiz-adv-x="475" 
d="M213 -346l-109 24l109 322h-121v299h291v-254z" />
    <glyph glyph-name="quotedblleft" unicode="&#x201c;" horiz-adv-x="849" 
d="M639 1460l106 -24l-108 -322h121v-299h-291v254zM264 1460l107 -24l-111 -322h121v-299h-289v254z" />
    <glyph glyph-name="quotedblright" unicode="&#x201d;" horiz-adv-x="849" 
d="M211 788l-107 25l109 322h-121v299h291v-254zM586 788l-107 25l111 322h-121v299h289v-254z" />
    <glyph glyph-name="quotedblbase" unicode="&#x201e;" horiz-adv-x="849" 
d="M211 -346l-107 24l109 322h-121v299h291v-254zM586 -346l-107 24l111 322h-121v299h289v-254z" />
    <glyph glyph-name="dagger" unicode="&#x2020;" horiz-adv-x="770" 
d="M45 799v252h217v407h246v-407h219v-252h-219v-824h-246v824h-217z" />
    <glyph glyph-name="daggerdbl" unicode="&#x2021;" horiz-adv-x="808" 
d="M63 971v239h220v400h243v-400h219v-239h-219v-502h219v-240h-219v-407h-243v407h-220v240h220v502h-220z" />
    <glyph glyph-name="bullet" unicode="&#x2022;" horiz-adv-x="788" 
d="M395 487q-99 0 -167 66.5t-68 171.5t68 171.5t167 66.5q98 0 166 -66.5t68 -171.5t-68 -171.5t-166 -66.5z" />
    <glyph glyph-name="ellipsis" unicode="&#x2026;" horiz-adv-x="1521" 
d="M123 0v299h289v-299h-289zM616 0v299h289v-299h-289zM1110 0v299h289v-299h-289z" />
    <glyph glyph-name="guilsinglleft" unicode="&#x2039;" horiz-adv-x="516" 
d="M319 492l148 -390h-252l-164 390l164 389h252z" />
    <glyph glyph-name="guilsinglright" unicode="&#x203a;" horiz-adv-x="516" 
d="M49 102l148 390l-148 389h252l164 -389l-164 -390h-252z" />
    <glyph glyph-name="fraction" unicode="&#x2044;" horiz-adv-x="835" 
d="M-29 0l740 1434h153l-739 -1434h-154z" />
    <glyph glyph-name="Euro" unicode="&#x20ac;" horiz-adv-x="921" 
d="M23 782v164h98q12 251 59 348q77 166 324 166q176 0 263 -84t101 -260l-266 -55q-5 95 -23 132.5t-77 37.5q-42 0 -64.5 -20.5t-29.5 -75.5q-8 -51 -15 -189h299l-35 -164h-268v-129h244l-37 -161h-203q7 -141 15 -193q7 -55 29.5 -75.5t64.5 -20.5q56 0 75.5 36.5
t24.5 133.5l266 -56q-13 -184 -105 -264t-259 -80q-247 0 -324 166q-47 97 -59 353h-98v161h98v129h-98z" />
    <glyph glyph-name="uni20b9" unicode="&#x20b9;" horiz-adv-x="958" 
d="M59 915v160h426q-8 110 -53.5 153.5t-161.5 43.5h-211v162h838v-162h-174l-2 -2q39 -64 45 -195h131v-160h-137q-25 -173 -146 -239v-4q81 -23 108.5 -75.5t27.5 -154.5q0 -266 16 -442h-283q-6 168 -6 414q0 85 -26.5 114t-102.5 29h-289v162h211q118 0 162.5 41.5
t52.5 154.5h-426z" />
    <glyph glyph-name="numero" unicode="&#x2116;" horiz-adv-x="1445" 
d="M1235 766q-84 0 -145 39q-56 34 -77.5 105t-21.5 196t21 197.5t78 105.5q61 37 145 37q88 0 147 -37q56 -32 77.5 -104.5t21.5 -198.5q0 -125 -21.5 -196t-77.5 -105q-62 -39 -147 -39zM1235 905q21 0 32 11.5t15 41.5q4 35 4 148q0 114 -4 149q-4 29 -15 40.5t-32 11.5
q-40 0 -45 -52q-6 -53 -6 -147q0 -103 6 -150q5 -53 45 -53zM1057 524v131h356v-131h-356zM86 0v1434h268l215 -705l23 -98h4v803h268v-1434h-266l-217 705l-23 98h-4v-803h-268z" />
    <glyph glyph-name="trademark" unicode="&#x2122;" horiz-adv-x="1114" 
d="M457 819v615h231l66 -371h4l63 371h234v-615h-137v496h-5l-104 -496h-107l-102 496h-6v-496h-137zM129 819v484h-121v131h387v-131h-123v-484h-143z" />
    <glyph glyph-name="minus" unicode="&#x2212;" horiz-adv-x="888" 
d="M102 623v206h684v-206h-684z" />
    <glyph glyph-name="CR" horiz-adv-x="307" 
 />
    <glyph glyph-name="hyphen.case" horiz-adv-x="636" 
d="M94 612v232h449v-232h-449z" />
    <glyph glyph-name="endash.case" horiz-adv-x="735" 
d="M94 612v230h547v-230h-547z" />
    <glyph glyph-name="emdash.case" horiz-adv-x="1099" 
d="M104 606v236h891v-236h-891z" />
    <glyph glyph-name="guillemotleft.case" horiz-adv-x="870" 
d="M668 727l153 -389h-229l-168 389l168 389h229zM295 727l154 -389h-230l-168 389l168 389h230z" />
    <glyph glyph-name="guillemotright.case" horiz-adv-x="870" 
d="M49 338l154 389l-154 389h230l167 -389l-167 -389h-230zM422 338l153 389l-153 389h229l168 -389l-168 -389h-229z" />
    <glyph glyph-name="guilsinglleft.case" horiz-adv-x="516" 
d="M319 727l148 -389h-252l-164 389l164 389h252z" />
    <glyph glyph-name="guilsinglright.case" horiz-adv-x="516" 
d="M49 338l148 389l-148 389h252l164 -389l-164 -389h-252z" />
    <glyph glyph-name="at.case" horiz-adv-x="1490" 
d="M627 487q0 -28 12 -40.5t39 -12.5q33 0 53 21.5t37 81.5q23 98 31 139q28 137 28 186q0 34 -12 48t-41 14q-33 0 -50 -21.5t-32 -79.5q-28 -116 -33 -139q-32 -146 -32 -197zM414 446q0 91 32 236q33 161 75 252t91 124.5t121 33.5q108 0 137 -66l23 55h199l-107 -491
q-10 -51 -10 -98q0 -123 106 -123q91 0 137 96.5t46 308.5q0 656 -484 656q-279 0 -416 -201.5t-137 -579.5q0 -151 23.5 -265.5t67 -190.5t109 -124t144.5 -68.5t179 -20.5q209 0 348 92l73 -131q-172 -107 -423 -107q-121 0 -219 24t-184 82.5t-144.5 150t-91.5 232.5
t-33 324q0 162 23 298.5t75.5 254t133 199t201 128t273.5 46.5q135 0 241 -36.5t179.5 -103.5t121.5 -164t69.5 -213t21.5 -257q0 -557 -348 -557q-204 0 -246 159q-55 -141 -221 -141q-186 0 -186 186z" />
    <glyph glyph-name="parenleft.case" horiz-adv-x="569" 
d="M535 -25l-193 -51q-252 366 -252 787q0 238 69.5 427.5t176.5 319.5h215q-108 -171 -163.5 -350t-55.5 -406q0 -171 43 -342.5t160 -384.5z" />
    <glyph glyph-name="parenright.case" horiz-adv-x="569" 
d="M35 -25q117 213 160 384.5t43 342.5q0 226 -56 405.5t-164 350.5h215q107 -130 176.5 -319.5t69.5 -427.5q0 -421 -252 -787z" />
    <glyph glyph-name="bracketleft.case" horiz-adv-x="606" 
d="M580 166v-193h-430v1485h430v-190h-199v-1102h199z" />
    <glyph glyph-name="bracketright.case" horiz-adv-x="606" 
d="M27 -27v193h198v1102h-198v190h430v-1485h-430z" />
    <glyph glyph-name="braceleft.case" horiz-adv-x="630" 
d="M610 166v-193h-174q-137 0 -196.5 60t-59.5 194v244q0 88 -27 122t-106 34v180q79 0 106 34.5t27 121.5v243q0 134 59.5 193t196.5 59h174v-190h-96q-55 0 -76.5 -24t-21.5 -89v-242q0 -95 -24.5 -138t-84.5 -58q59 -15 84 -58t25 -137v-243q0 -65 21.5 -89t76.5 -24h96z
" />
    <glyph glyph-name="braceright.case" horiz-adv-x="630" 
d="M20 -27v193h97q55 0 76.5 24t21.5 89v243q0 94 25 137t84 58q-60 15 -84.5 58t-24.5 138v242q0 65 -21.5 89t-76.5 24h-97v190h175q137 0 196.5 -59t59.5 -193v-243q0 -87 27 -121.5t106 -34.5v-180q-79 0 -106 -34t-27 -122v-244q0 -134 -59.5 -194t-196.5 -60h-175z
" />
    <glyph glyph-name="grave.case" 
d="M403 1546l-153 293h274l94 -293h-215z" />
    <glyph glyph-name="acute.case" 
d="M403 1546l95 293h274l-151 -293h-218z" />
    <glyph glyph-name="circumflex.case" 
d="M244 1546l143 293h250l143 -293h-176l-92 133l-92 -133h-176z" />
    <glyph glyph-name="dieresis.case" 
d="M231 1546v236h232v-236h-232zM561 1546v236h232v-236h-232z" />
    <glyph glyph-name="tilde.case" 
d="M221 1550q0 146 42.5 208.5t137.5 62.5q50 0 88 -17.5t56.5 -38t43.5 -38t52 -17.5q31 0 43 22t12 70h107q0 -146 -42.5 -208t-137.5 -62q-41 0 -73 11.5t-52.5 28t-37.5 33.5t-36 28.5t-41 11.5q-31 0 -43 -24t-12 -71h-107z" />
    <glyph glyph-name="caron.case" 
d="M387 1546l-143 293h176l92 -137l92 137h176l-143 -293h-250z" />
    <glyph glyph-name="ring.case" 
d="M512 1503q-95 0 -158 47.5t-63 132.5q0 84 63.5 132.5t157.5 48.5t157.5 -48.5t63.5 -132.5q0 -85 -63 -132.5t-158 -47.5zM512 1608q34 0 55 20t21 55q0 34 -21 54t-55 20t-55 -20t-21 -54q0 -35 21 -55t55 -20z" />
    <glyph glyph-name="breve.case" 
d="M512 1528q-240 0 -274 252l147 26q10 -61 40.5 -86.5t86.5 -25.5t86.5 25.5t40.5 86.5l147 -26q-34 -252 -274 -252z" />
    <glyph glyph-name="macron.case" 
d="M240 1546v195h544v-195h-544z" />
    <glyph glyph-name="dotaccent.case" 
d="M387 1546v244h250v-244h-250z" />
    <glyph glyph-name="hungarumlaut.case" 
d="M270 1546l84 293h232l-127 -293h-189zM569 1546l82 293h232l-127 -293h-187z" />
    <glyph glyph-name="cedilla.case" 
d="M348 -244q74 -12 113 -12q48 0 66 12t18 39q0 28 -20.5 37.5t-80.5 9.5h-34l51 158h78l-25 -78q104 0 153.5 -30t49.5 -101q0 -77 -53 -111t-175 -34q-83 0 -141 12v98z" />
    <glyph glyph-name="ogonek.case" 
d="M358 -188q0 49 23 88.5t78 99.5h151q-52 -60 -69 -93t-17 -61q0 -61 76 -61q19 0 33 2v-133q-36 -4 -64 -4q-93 0 -152 43t-59 119z" />
    <glyph glyph-name="commaaccent.case" 
d="M395 -74h223q5 -39 5 -73q0 -133 -58 -218h-194q35 87 35 179q0 56 -11 112z" />
    <glyph glyph-name="uni030C.alt" 
d="M406 1098q18 88 18 184q0 73 -14 152h194q12 -64 12 -142q0 -106 -26 -194h-184z" />
    <glyph glyph-name="commaaccent" 
d="M393 -70h223q5 -41 5 -75q0 -126 -60 -211h-192q37 85 37 174q0 42 -13 112z" />
    <glyph glyph-name="i.trk" horiz-adv-x="415" 
d="M78 0v983h262v-983h-262zM72 1120v248h274v-248h-274z" />
    </font>
</defs>
</svg>
